<?xml version="1.0" standalone="no"?>
<!DOCTYPE svg PUBLIC "-//W3C//DTD SVG 1.1//EN" "http://www.w3.org/Graphics/SVG/1.1/DTD/svg11.dtd" >
<svg xmlns="http://www.w3.org/2000/svg" xmlns:xlink="http://www.w3.org/1999/xlink" version="1.1">
<metadata>
Created by FontForge 20170731 at Fri May 11 16:52:48 2012
 By Aleksey,,,
Copyright (c) 2012 Natanael Gama (www.ndiscovered.com), with Reserved Font Name "Cinzel Decorative"
</metadata>
<defs>
<font id="CinzelDecorative-Bold" horiz-adv-x="600" >
  <font-face 
    font-family="Cinzel Decorative Bold"
    font-weight="700"
    font-stretch="normal"
    units-per-em="1000"
    panose-1="0 0 8 0 0 0 0 0 0 0"
    ascent="800"
    descent="-200"
    x-height="700"
    cap-height="720"
    bbox="-285 -343 1570 951"
    underline-thickness="50"
    underline-position="-200"
    unicode-range="U+0020-FB02"
  />
<missing-glyph horiz-adv-x="250" 
 />
    <glyph glyph-name=".notdef" horiz-adv-x="250" 
 />
    <glyph glyph-name=".null" horiz-adv-x="0" 
 />
    <glyph glyph-name="nonmarkingreturn" horiz-adv-x="333" 
 />
    <glyph glyph-name="space" unicode=" " horiz-adv-x="250" 
 />
    <glyph glyph-name="exclam" unicode="!" horiz-adv-x="269" 
d="M193 379l-36 -173h-46l-35 173l-19 323h154zM133 -10q-30 0 -51 21t-21 51t21 51.5t51 21.5t51.5 -21.5t21.5 -51.5t-21.5 -51t-51.5 -21z" />
    <glyph glyph-name="quotedbl" unicode="&#x22;" horiz-adv-x="362" 
d="M52 500l-14 5q21 66 25.5 103.5t-1.5 91.5l107 14q1 -22 -4 -51t-17 -61.5t-37.5 -61t-58.5 -40.5zM208 500l-14 5q22 66 26.5 103.5t-2.5 91.5l107 14q2 -22 -3.5 -51t-17.5 -61.5t-37 -61t-59 -40.5z" />
    <glyph glyph-name="numbersign" unicode="#" horiz-adv-x="574" 
d="M534 449h-116l-32 -184h104v-48h-112l-39 -217h-50l38 217h-149l-39 -217h-50l38 217h-107v48h116l32 184h-104v48h113l35 203h51l-36 -203h150l35 203h51l-36 -203h107v-48zM336 265l32 184h-150l-32 -184h150z" />
    <glyph glyph-name="dollar" unicode="$" horiz-adv-x="557" 
d="M315 437l120 -78q95 -55 89 -166q-4 -94 -68.5 -148t-175.5 -59l-6 -88l-41 3l6 85q-64 3 -114 19t-75 42q-12 32 -4 84t28 85h8q-5 -73 39 -125.5t122 -60.5l19 258l-107 71q-53 30 -77 77t-19 103q7 80 63 127.5t143 46.5h30l5 75l42 -1l-6 -76q37 -3 70 -7h63
l-13 -147h-10q0 46 -30 76t-83 37zM244 483l32 -21l16 209q-51 -3 -83.5 -29.5t-34.5 -65.5q-3 -51 70 -93zM302 262l-18 -233q58 4 91.5 35t33.5 76q0 60 -80 104z" />
    <glyph glyph-name="percent" unicode="%" horiz-adv-x="740" 
d="M534 709l33 -14l-373 -711l-37 16l350 662q-57 -34 -111 -28q-25 3 -53 14q21 -44 12 -111q-11 -82 -63 -129t-130 -47q-73 0 -107.5 48.5t-21.5 133.5q13 80 64 125.5t126 45.5q40 0 70.5 -12t55 -25t48.5 -15q19 -2 41 3.5t35.5 12t34.5 17.5t26 14zM257 537
q9 68 -0.5 106.5t-36.5 38.5q-28 0 -49.5 -38.5t-32.5 -106.5q-11 -67 -1.5 -105.5t36.5 -38.5q30 0 52 38.5t32 105.5zM567 339q71 0 106 -47t25 -130q-10 -82 -62 -129t-132 -47q-73 0 -107.5 48.5t-20.5 133.5q13 80 64 125.5t127 45.5zM595 162q10 68 0.5 106.5
t-36.5 38.5q-28 0 -50 -38.5t-33 -106.5q-10 -67 -0.5 -105.5t35.5 -38.5q30 0 52.5 38t31.5 106z" />
    <glyph glyph-name="ampersand" unicode="&#x26;" horiz-adv-x="878" 
d="M1187 -96l2 -10q-79 -45 -170 -50.5t-174.5 23.5t-157.5 86q-29 23 -102 81q-39 -19 -82 -30.5t-88 -13.5q-41 -3 -88 2.5t-98 21.5t-92.5 41t-68.5 66t-28 93q0 30 8.5 56.5t23 46t34 35.5t39 26.5t40.5 18.5q-45 69 -46 136q-1 60 33 102t87 60.5t119 18.5
q42 0 80.5 -8t70.5 -24t48 -39l-34 -143h-9q-1 47 -14 84.5t-42 62.5t-71 25q-52 0 -83 -33t-31 -84q1 -55 41.5 -106t131.5 -129q76 -65 200 -168q46 48 76.5 106.5t40 126.5t-6 135.5t-67 136t-135.5 124.5l6 6q89 -51 146 -119.5t78 -140t16 -145.5t-36 -140.5
t-82 -119.5l31 -26q47 -40 79.5 -65t80.5 -55.5t89.5 -46t95.5 -23.5t109 -2zM433 38q56 3 112 28q-159 128 -194 158q-82 68 -128 122q-28 -45 -25 -109q5 -96 74 -149.5t161 -49.5z" />
    <glyph glyph-name="quotesingle" unicode="'" horiz-adv-x="200" 
d="M46 500l-14 5q21 66 25.5 103.5t-1.5 91.5l107 14q1 -22 -4 -51t-17 -61.5t-37.5 -61t-58.5 -40.5z" />
    <glyph glyph-name="parenleft" unicode="(" horiz-adv-x="423" 
d="M388 732l6 -8q-74 -35 -115.5 -137.5t-39.5 -250.5q2 -159 43 -269t110 -158l-6 -9q-94 29 -161.5 95.5t-101 153t-33.5 185.5q0 102 33 185.5t101 140t164 72.5z" />
    <glyph glyph-name="parenright" unicode=")" horiz-adv-x="423" 
d="M38 -100l-6 9q33 23 60.5 62.5t47.5 93t31.5 122.5t13.5 149q2 148 -40 250.5t-115 137.5l6 8q143 -23 220.5 -132.5t77.5 -265.5q-1 -99 -34 -185.5t-101 -153t-161 -95.5z" />
    <glyph glyph-name="asterisk" unicode="*" horiz-adv-x="388" 
d="M202 605l55 -29l64 -64l-29 -38l-44 -15l-43 79l-10 62l-11 -62l-41 -80l-45 16l-28 37l62 65l56 29l-62 -9l-89 15v47l28 39l81 -40l45 -44l-28 57l-14 89l45 14l46 -14l-13 -89l-28 -57l45 44l81 41l28 -39v-47l-89 -16z" />
    <glyph glyph-name="plus" unicode="+" horiz-adv-x="481" 
d="M442 338v-57h-173v-172h-57v172h-172v57h172v173h57v-173h173z" />
    <glyph glyph-name="comma" unicode="," horiz-adv-x="230" 
d="M46 -113l-4 11q36 13 44 45.5t-20 66.5q-20 23 -21.5 54t18.5 52q24 24 62 15.5t54 -44.5q18 -38 12 -75.5t-25 -67t-52 -46t-68 -11.5z" />
    <glyph glyph-name="hyphen" unicode="-" horiz-adv-x="380" 
d="M32 292l8 33h300l8 -33l-8 -34h-300z" />
    <glyph glyph-name="period" unicode="." horiz-adv-x="222" 
d="M111 -10q-30 0 -51 21t-21 51t21 51.5t51 21.5t51.5 -21.5t21.5 -51.5t-21.5 -51t-51.5 -21z" />
    <glyph glyph-name="slash" unicode="/" horiz-adv-x="426" 
d="M9 11l360 708l48 -23l-361 -710z" />
    <glyph glyph-name="zero" unicode="0" horiz-adv-x="688" 
d="M344 614q139 0 219.5 -84.5t80.5 -229.5t-80.5 -229.5t-219.5 -84.5q-92 0 -160 38t-104 109t-36 167q0 145 80.5 229.5t219.5 84.5zM344 572q-44 0 -77 -33t-50.5 -94.5t-17.5 -144.5q0 -126 39 -199t106 -73t106.5 73t39.5 199q0 83 -18 144.5t-51 94.5t-77 33z" />
    <glyph glyph-name="one" unicode="1" horiz-adv-x="381" 
d="M42 10h21q22 0 38.5 16t16.5 38v473q0 14 -7.5 26.5t-20.5 19.5t-28 7h-20l-1 10h302v-10h-21q-15 0 -27.5 -7t-20 -19.5t-7.5 -26.5v-473q0 -15 7.5 -27.5t20 -19.5t27.5 -7h21v-10h-301v10z" />
    <glyph glyph-name="two" unicode="2" horiz-adv-x="616" 
d="M104 417h-10l-47 144q37 30 100.5 47.5t128.5 17.5q116 0 188.5 -47.5t72.5 -130.5q0 -21 -6 -43t-15 -40t-25.5 -38.5t-30 -35.5t-37 -34t-38 -30.5t-41 -29t-38 -25t-37.5 -23.5t-32 -20h207q44 0 73.5 20.5t56.5 67.5h10l-60 -217h-480v9q25 26 70.5 71.5t76 76.5
t69 75t61.5 79t39.5 75t16.5 75q0 61 -36.5 95t-98.5 31q-67 -4 -102.5 -47.5t-35.5 -122.5z" />
    <glyph glyph-name="three" unicode="3" horiz-adv-x="563" 
d="M84 399l-42 142q76 69 213 71q107 2 169 -42.5t62 -120.5q0 -43 -20.5 -78t-51 -54t-65.5 -21q31 -6 58 -19.5t51.5 -35.5t39 -56.5t14.5 -78.5q0 -59 -28 -109.5t-75 -83.5t-106 -51.5t-126 -17t-130 23.5l2 10q81 -2 150 27t110.5 85t41.5 127q0 35 -10.5 63t-28.5 47
t-43 32t-52.5 19t-58.5 6l2 10q71 -1 124 48t47 123q-4 51 -37 79.5t-85 25.5q-121 -7 -115 -171h-10z" />
    <glyph glyph-name="four" unicode="4" horiz-adv-x="619" 
d="M560 112h-87v-149q0 -6 1.5 -12t4.5 -11t7 -10t8.5 -8.5t10 -6t11.5 -4t13 -1.5h10l1 -10h-283v10h11q22 0 38 15t17 37v150h-316v10l457 492h9v-416h44q26 0 38.5 7.5t22.5 24.5h10zM139 198h184v197z" />
    <glyph glyph-name="five" unicode="5" horiz-adv-x="555" 
d="M482 635l-39 -167l-279 -21l-29 -112q164 39 264.5 -24t95.5 -194q-3 -59 -29 -107.5t-65.5 -80t-90 -52.5t-101.5 -27.5t-99 -1.5t-84 21l2 10q27 -1 63 6.5t77.5 25t76.5 42.5t59.5 64.5t27.5 86.5q4 59 -32 96.5t-97.5 42t-140.5 -23.5l-9 5l81 340l258 21q54 0 80 50
h10z" />
    <glyph glyph-name="six" unicode="6" horiz-adv-x="629" 
d="M258 346l-7 8q14 23 36 40.5t47.5 27t54.5 11t56.5 -4.5t52.5 -22t44 -40t30.5 -61t11.5 -81q0 -101 -67.5 -169t-191.5 -70q-131 -2 -203.5 77.5t-71.5 235.5q0 97 28 178t82 141t140.5 91.5t196.5 25.5l4 -7q-61 -19 -107 -44t-77 -57.5t-51.5 -67t-31 -80.5t-14.5 -90
t-4 -103q0 -128 23 -190t84 -62q39 0 64 26.5t34 64.5t9 88q-1 149 -83 160q-25 6 -49 -2t-40 -24z" />
    <glyph glyph-name="seven" unicode="7" horiz-adv-x="544" 
d="M45 598l-28 -186h10q11 31 28.5 45.5t46.5 14.5h305l-66 -158q-29 -68 -93.5 -198t-110.5 -216h130q20 72 65 207t72 199l119 292h-478z" />
    <glyph glyph-name="eight" unicode="8" horiz-adv-x="603" 
d="M389 397q21 -11 34 -18t31.5 -18t30 -20t26 -22t22.5 -26t16 -29t11.5 -34.5t3.5 -39.5q0 -96 -74.5 -150t-199.5 -54q-51 0 -94.5 10t-79.5 31t-57 57t-20 84q1 117 144 170q-104 76 -104 183q0 87 61 139.5t159 53.5q93 1 157 -46t64 -123q0 -37 -17.5 -67.5
t-46.5 -50.5t-67 -30zM339 423l7 -4q23 26 34 64.5t10 74.5q-1 50 -25 81t-67 32q-42 1 -66 -27.5t-24 -72.5t29 -76.5t102 -71.5zM295 28q56 -3 92 29t36 80q0 46 -34.5 76.5t-118.5 73.5q-30 16 -51 28q-48 -50 -48 -133q-1 -70 32 -110.5t92 -43.5z" />
    <glyph glyph-name="nine" unicode="9" horiz-adv-x="629" 
d="M372 251l7 -9q-18 -30 -50.5 -50t-69 -26t-75 3.5t-69.5 33t-50 67.5t-19 102q1 106 68.5 171.5t190.5 67.5q132 2 203.5 -77t71.5 -236q0 -96 -28 -177t-82 -141.5t-140.5 -92t-196.5 -25.5l-4 7q73 22 124.5 55t82.5 70.5t48.5 89.5t23.5 103.5t6 120.5
q0 132 -23 193.5t-84 61.5q-39 0 -64 -25.5t-34 -64t-9 -88.5q1 -151 84 -161q24 -5 48 3t40 24z" />
    <glyph glyph-name="colon" unicode=":" horiz-adv-x="222" 
d="M111 373q-30 0 -51 21t-21 51t21 51t51 21t51.5 -21t21.5 -51q0 -20 -10 -36.5t-26.5 -26t-36.5 -9.5zM111 -10q-30 0 -51 21t-21 51t21 51.5t51 21.5t51.5 -21.5t21.5 -51.5t-21.5 -51t-51.5 -21z" />
    <glyph glyph-name="semicolon" unicode=";" horiz-adv-x="230" 
d="M111 401q-30 0 -51 21.5t-21 51t21 51t51 21.5t51.5 -21.5t21.5 -51t-21.5 -51t-51.5 -21.5zM46 -113l-4 11q36 13 44 45.5t-20 66.5q-20 23 -21.5 54t18.5 52q24 24 62 15.5t54 -44.5q18 -38 12 -75.5t-25 -67t-52 -46t-68 -11.5z" />
    <glyph glyph-name="less" unicode="&#x3c;" horiz-adv-x="493" 
d="M442 525v-62l-322 -153l322 -154v-62l-402 189v53z" />
    <glyph glyph-name="equal" unicode="=" horiz-adv-x="481" 
d="M40 358v57h402v-57h-402zM40 183v57h402v-57h-402z" />
    <glyph glyph-name="greater" unicode="&#x3e;" horiz-adv-x="481" 
d="M40 525l402 -188v-54l-402 -189v62l322 154l-322 153v62z" />
    <glyph glyph-name="question" unicode="?" horiz-adv-x="461" 
d="M42 518l-34 107q23 41 73.5 65t118.5 24q107 0 165.5 -46t58.5 -128q0 -36 -16 -69t-35 -53t-54 -53.5t-54 -54.5q-14 -16 -20.5 -24t-13.5 -22.5t-5 -29t12 -31.5l-8 -6q-38 17 -59.5 46t-18.5 67q1 20 10 39t21.5 33t27 31.5t26.5 34.5t19.5 42.5t7.5 54.5
q-1 61 -27.5 94t-75.5 33q-34 0 -58.5 -17t-37.5 -51.5t-13 -85.5h-10zM208 -10q-30 0 -51.5 21t-21.5 51q0 20 10 36.5t26.5 26.5t36.5 10q30 0 51 -21.5t21 -51.5t-21 -51t-51 -21z" />
    <glyph glyph-name="at" unicode="@" horiz-adv-x="989" 
d="M524 207h-147q-53 -71 -92 -102t-85 -32q-64 -2 -108.5 41.5t-53.5 115.5t26 165q64 153 219.5 235.5t341.5 57.5q164 -22 249.5 -125.5t76.5 -250.5q-7 -114 -62 -210.5t-152 -158t-232 -67.5t-302 61l-4 10q128 -52 239.5 -43.5t195.5 61.5t136 145t61 206
q11 135 -44.5 223.5t-164.5 108.5q-84 15 -165 -7t-154 -86t-119 -165q-24 -50 -35.5 -100t-11 -89t16.5 -63.5t46 -25.5q21 -1 42 10t42.5 34t36.5 41.5t37 50t31 43.5l127 173q47 57 55 77h7l67 -404q8 -47 40 -47h5l-1 -7h-207l1 7h7q15 0 29.5 12.5t12.5 30.5zM504 386
l-105 -149h122z" />
    <glyph glyph-name="A" unicode="A" horiz-adv-x="705" 
d="M964 -173l1 -10q-52 -26 -108 -31.5t-112.5 13t-108 57.5t-97.5 105t-79 153l-32 85h-236l-53 -126q-8 -20 -3 -34t16.5 -21.5t25.5 -7.5h8v-10h-214v10h9q23 0 45.5 13.5t37.5 40.5l223 509q-11 26 -23 47t-27 41t-32.5 33t-37.5 21t-44.5 7t-51.5 -10l-2 10
q60 31 113 36t94 -11t77.5 -52t63 -80t50.5 -102l145 -358q23 -57 44 -101t55 -95.5t69 -82.5t83 -46.5t101 -2.5zM209 242h204l-70 185q-4 10 -8 22t-9.5 26.5t-8.5 24.5z" />
    <glyph glyph-name="B" unicode="B" horiz-adv-x="691" 
d="M52 700h254q111 0 184.5 -44.5t74.5 -125.5q0 -48 -23.5 -85.5t-60.5 -51.5q55 -3 99 -26t70 -65t27 -95q1 -73 -48 -125.5t-130.5 -76t-183.5 -19.5q-54 2 -100 12.5t-90 35t-74 61t-45.5 95.5t-9.5 134l10 1q7 -172 123 -246v549q0 18 -9 32t-23.5 22t-31.5 8h-13v10z
M279 657v-624q14 -1 27 -1q94 0 147.5 50t51.5 135q-2 45 -19.5 78.5t-47 50.5t-60.5 25t-65 8v9q32 0 54 23t30 52.5t8 60.5q-2 67 -31.5 99t-94.5 34z" />
    <glyph glyph-name="C" unicode="C" horiz-adv-x="826" 
d="M799 391h9q9 -97 -12 -174.5t-68 -127.5t-114 -76.5t-150 -26.5q-204 0 -322 100.5t-118 261.5q0 164 119.5 265t315.5 101q75 0 143 -15t113 -39l2 -172h-8q-17 64 -57 106.5t-87 60t-103 17.5q-126 0 -200.5 -87t-74.5 -229q0 -145 77.5 -235t213.5 -93q147 0 236 96
t85 267z" />
    <glyph glyph-name="D" unicode="D" horiz-adv-x="862" 
d="M-90 507l-10 4q24 100 100.5 144.5t205.5 45.5q68 0 229 -1q177 -2 280 -95.5t103 -254.5q0 -162 -103 -256t-280 -94h-363v10h13q25 0 43.5 17.5t20.5 42.5v585q-56 -4 -97.5 -17t-68.5 -34.5t-42.5 -43.5t-30.5 -53zM299 656v-614h124q107 0 169.5 83t62.5 225
t-62.5 224.5t-169.5 81.5h-124z" />
    <glyph glyph-name="E" unicode="E" horiz-adv-x="670" 
d="M660 204h10l-47 -204h-581v10h13q26 0 44.5 18.5t19.5 44.5v557q-1 17 -10 30.5t-23.5 21.5t-30.5 8h-13v10h281q21 0 46 3t44.5 7t29.5 8v-175h-11v12q1 45 -25.5 72.5t-71.5 29.5h-66v-291h159q37 1 61 25.5t24 60.5v9h9v-231h-9v8q0 37 -24 61t-60 25h-160v-281h195
q73 0 122.5 42t73.5 119z" />
    <glyph glyph-name="F" unicode="F" horiz-adv-x="657" 
d="M642 461h10v-231h-10v8q0 37 -23.5 61t-59.5 25h-290v-251q0 -26 19 -44.5t45 -18.5h12l1 -10h-304v10h13q26 0 44.5 18.5t19.5 44.5v557q-2 25 -20.5 42.5t-43.5 17.5h-13v10h383q21 0 46 3t44.5 7t29.5 8v-169h-10v10q0 29 -11.5 51t-33 34t-50.5 13h-171v-291h288
q37 1 61 25.5t24 60.5v9z" />
    <glyph glyph-name="G" unicode="G" horiz-adv-x="861" 
d="M1115 -154l2 -10q-115 -45 -211.5 -30t-164.5 73.5t-98 145.5q-94 -39 -203 -39q-180 0 -295 102t-115 262q0 107 52.5 190t147.5 128.5t217 45.5q80 0 155 -15.5t121 -38.5l2 -172h-8q-24 91 -92.5 137.5t-164.5 46.5q-118 0 -192.5 -90.5t-74.5 -235.5q0 -140 73 -229
t188 -89q62 0 107.5 27t61.5 72v152q0 22 -13 34t-37 12h-16v10h281v-10h-15q-25 0 -38 -12t-12 -33v-159q1 -66 25.5 -123t67.5 -96.5t108 -55t141 -0.5z" />
    <glyph glyph-name="H" unicode="H" horiz-adv-x="861" 
d="M737 610v-537q1 -17 9 -31.5t23 -23t33 -8.5h12v-10h-303v10h12q26 0 45 18t20 44v255h-315v-257q0 -59 -15.5 -107t-46 -83.5t-82 -49.5t-118.5 0l-2 10q37 16 60.5 38t35 53.5t15 62t3.5 76.5v558q-1 26 -19.5 44t-44.5 18h-13v10h304v-10h-13q-17 0 -31 -8t-23 -22
t-10 -32v-258h315v240q0 117 72.5 186.5t188.5 53.5l2 -10q-37 -13 -60.5 -35.5t-34.5 -56t-14.5 -64t-4.5 -74.5z" />
    <glyph glyph-name="I" unicode="I" horiz-adv-x="456" 
d="M339 616v-543q1 -26 19.5 -44.5t44.5 -18.5h13v-10h-304v10h13q26 0 44.5 18.5t19.5 44.5v586l-95 -4q-89 -4 -94 -64q-2 -31 18 -51.5t58 -18.5v-6q-30 -11 -57.5 -5t-45.5 29.5t-17 55.5q2 41 35.5 68.5t105.5 32.5q13 1 83.5 4t132 7.5t103.5 12.5l2 -10
q-43 -7 -60.5 -29t-18.5 -65z" />
    <glyph glyph-name="J" unicode="J" horiz-adv-x="390" 
d="M45 700h304v-10h-13q-17 0 -31.5 -8.5t-23.5 -22.5t-9 -32v-547q0 -65 -18 -119.5t-51 -90.5t-76 -54t-96.5 -12.5t-109.5 35.5l3 10q63 -12 109 17t67.5 85.5t21.5 131.5v544q-1 17 -9.5 31.5t-23 23t-31.5 8.5h-13v10z" />
    <glyph glyph-name="K" unicode="K" horiz-adv-x="761" 
d="M269 628v-555q0 -26 19 -44.5t45 -18.5h12l1 -10h-304v10h13q26 0 44.5 18.5t19.5 44.5v555q-1 17 -9.5 31t-23 22.5t-31.5 8.5h-13v10h304l-1 -10h-12q-26 0 -45 -18t-19 -44zM1047 -160l1 -10q-122 -64 -241 -21t-243 197l-263 324l237 314q13 16 5 31.5t-28 15.5h-10
v9h229v-9h-4q-67 0 -109 -48l-195 -232l272 -338q91 -120 171 -174t178 -59z" />
    <glyph glyph-name="L" unicode="L" horiz-adv-x="427" 
d="M1022 -98l7 -8q-30 -41 -65.5 -69t-71 -43.5t-78 -20t-79.5 -2t-83 14.5t-81 24.5t-81 33t-76 36t-71.5 37t-63.5 31.5q-40 20 -69.5 31.5t-75.5 22t-92 10.5v10h13q26 0 44.5 18t19.5 45v554q-1 27 -19.5 45t-44.5 18h-13v10h304l-1 -10h-10q-18 0 -33 -8.5t-24 -22.5
t-9 -32v-580q0 -17 3.5 -28.5t13 -20.5t25.5 -14q132 -43 228.5 -69t193.5 -42.5t168.5 -9t120.5 38.5z" />
    <glyph glyph-name="M" unicode="M" horiz-adv-x="968" 
d="M799 714l104 -588q12 -68 32 -121t50.5 -95t75 -63t100.5 -18v-10q-56 -15 -110 -14.5t-104 23t-91 61t-71.5 99.5t-45.5 138l-49 291l-188 -326q-38 -63 -39 -111h-9l-249 472l-49 -400q-1 -11 4.5 -21t15 -16t19.5 -6h16v-9h-209v10h16q26 0 46.5 15.5t25.5 42.5
l68 477q-22 39 -46 73t-57 69t-71.5 54t-77.5 15l-2 10q44 19 87 23t80.5 -5.5t71 -28t62.5 -45.5t52.5 -56.5t42.5 -63.5l200 -375l290 499h9z" />
    <glyph glyph-name="N" unicode="N" horiz-adv-x="865" 
d="M1103 -132l4 -10q-185 -90 -380 118l-474 503v-409q0 -25 18 -42.5t43 -17.5h19v-10h-303v10h18q26 0 44 17.5t18 43.5v561q-14 16 -25 28.5t-28 29.5t-31.5 30t-34 28t-37 25t-38.5 18.5t-41 11.5t-42 1.5t-43 -8.5l-4 10q174 101 380 -118l447 -475v416q-1 26 -19 43.5
t-43 17.5h-18v10h303v-10h-19q-25 0 -43 -17.5t-19 -42.5v-569l16 -16q6 -6 18.5 -20.5t22.5 -25t25.5 -26.5t29 -28t32 -26t35 -23.5t37.5 -18t41.5 -12t43.5 -3.5t47 6z" />
    <glyph glyph-name="O" unicode="O" horiz-adv-x="930" 
d="M343 447h-11q-14 30 -17 64.5t7 68t31 62t59 48t88 24.5q54 6 110.5 -5.5t108.5 -41t92.5 -72.5t65 -105t24.5 -133q0 -167 -120.5 -269t-313.5 -102q-194 0 -315.5 102t-121.5 268q0 124 70.5 215.5t190.5 124.5l6 -9q-51 -43 -77 -126t-26 -179q0 -162 75 -258t197 -96
q121 0 195.5 90.5t74.5 239.5q0 90 -27.5 162.5t-82 114.5t-127.5 37q-62 -4 -103 -39t-53.5 -84.5t0.5 -101.5z" />
    <glyph glyph-name="P" unicode="P" horiz-adv-x="705" 
d="M46 661l-2 9q53 4 111 13t109.5 18t75.5 12q65 10 123.5 1t103.5 -31.5t72.5 -67t29.5 -105.5q2 -59 -21.5 -107.5t-61 -75.5t-83.5 -38t-90 -2q-41 6 -69 28t-35 61l9 4q11 -26 39.5 -35t58.5 -1q41 11 68 55.5t25 114.5q-1 43 -14 75t-35.5 51t-53 27t-67.5 3l-67 -10
v-587q0 -27 19 -45t45 -18h13v-10h-304v10h13q26 0 44.5 18t19.5 45v533q-1 26 -16 41.5t-45 14.5q-4 0 -15 -1z" />
    <glyph glyph-name="Q" unicode="Q" horiz-adv-x="925" 
d="M1564 -84l6 -4q-23 -69 -90.5 -114.5t-161 -61t-209.5 -1.5t-232 58q-50 19 -147 61.5t-185 79.5t-134 52v10h2q58 0 112 19t99 56.5t74 101.5t32 146q3 69 -14 132t-50.5 112t-85.5 80t-115 34q-121 6 -201.5 -82.5t-80.5 -243.5q0 -107 43 -180t122 -84q36 -5 70 3
t63.5 38t37.5 78l11 -1q-1 -42 -14 -73t-35.5 -48.5t-51.5 -28t-61.5 -10t-66.5 4.5q-123 21 -200.5 105t-77.5 204q0 76 31.5 142.5t88 115.5t139.5 76t181 26q190 -3 309.5 -106t118.5 -262q0 -77 -29.5 -143.5t-78 -112t-109 -74.5t-125.5 -39q35 -5 76 -13t83.5 -16.5
t80 -16.5t82.5 -18t75 -16q79 -17 142.5 -28.5t140 -19t134.5 -4.5t112.5 19t88.5 47z" />
    <glyph glyph-name="R" unicode="R" horiz-adv-x="731" 
d="M45 700h343q38 0 73 -5.5t69 -19t58.5 -34.5t40 -53.5t15.5 -73.5q0 -87 -57 -142t-135 -49q22 -12 43 -28t37 -32t36.5 -40t35 -42.5t38.5 -49t41 -51.5q35 -45 66.5 -79.5t70 -65.5t78 -51t87 -31.5t100.5 -12.5v-10q-41 -20 -89.5 -30.5t-108 -7t-117 25t-118.5 71.5
t-110 125q-25 36 -93 138t-88 130q-35 55 -56 60v10h2.5h3.5h4h5h5.5h5h5.5q20 1 40.5 6t42.5 17t38.5 36t22.5 57q5 25 4 48q-3 65 -41.5 102.5t-94.5 37.5h-76v-583q0 -26 19 -44.5t45 -18.5h13v-10h-304v10h13q25 0 44 18t20 44v555q-1 26 -19.5 44.5t-44.5 18.5h-13v10z
" />
    <glyph glyph-name="S" unicode="S" horiz-adv-x="623" 
d="M281 483l187 -122q57 -37 89 -87t37 -100t-13.5 -100t-56 -88t-96.5 -62t-130 -24q-72 0 -130 24.5t-90.5 65.5t-45.5 91.5t0.5 105.5t52.5 104l9 -7q-30 -48 -37.5 -97.5t7 -91.5t43.5 -75.5t73.5 -52.5t96.5 -19q54 0 96 20.5t61.5 54t22 72t-22 79.5t-71.5 72
l-170 114q-108 69 -98 180q6 77 61.5 125.5t148.5 48.5q57 0 138 -10h62l-13 -147h-9q-1 52 -40 83.5t-103 31.5q-38 0 -67.5 -12.5t-45.5 -34.5t-17 -50t16.5 -48.5t54.5 -43.5z" />
    <glyph glyph-name="T" unicode="T" horiz-adv-x="698" 
d="M95 701h471q21 0 45.5 3t44.5 7t29 8v-174h-10v12q0 45 -27 73t-73 29h-135v-587q1 -17 9.5 -31t23 -22.5t31.5 -8.5h13v-10h-304v10h13q26 0 44.5 18t19.5 43v588h-195q-41 0 -72 -15t-47.5 -40t-15.5 -60t24 -72l-10 -5q-30 29 -42 62.5t-4 63.5t29 54.5t57.5 39
t80.5 14.5z" />
    <glyph glyph-name="U" unicode="U" horiz-adv-x="824" 
d="M662 247v363q0 135 76 218.5t199 73.5v-10q-39 -3 -71.5 -16.5t-57 -37.5t-41.5 -57.5t-25.5 -76.5t-8.5 -94v-357q-2 -126 -81 -196.5t-222 -70.5q-150 0 -237 72.5t-86 193.5v389q0 21 -15.5 35t-37.5 14h-16v10h288v-10h-16q-15 0 -27 -6.5t-19 -17.5t-7 -24v-382
q0 -106 55 -168.5t146 -61.5q90 -1 147 57.5t57 159.5z" />
    <glyph glyph-name="V" unicode="V" horiz-adv-x="719" 
d="M413 214l207 483q11 28 24.5 52.5t35.5 57t49.5 57.5t62 46.5t79.5 31t96 4.5v-10q-30 -1 -57.5 -9t-50 -21.5t-41.5 -28t-35.5 -35t-29 -37t-24.5 -39.5t-19 -36t-16 -33l-268 -586q-46 -99 -49 -131h-9l-303 653q-15 28 -38 42.5t-47 14.5h-8v10h318v-10h-8
q-22 0 -35.5 -17.5t-3.5 -45.5z" />
    <glyph glyph-name="W" unicode="W" horiz-adv-x="960" 
d="M736 276l115 403q12 41 30 78.5t48.5 75t67.5 64t90 40t113 7.5v-10q-47 -2 -88 -19.5t-69.5 -42t-52.5 -58.5t-39 -66t-27 -69l-188 -586q-2 -7 -5 -18.5t-8 -41t-4 -51.5h-10l-217 482l-178 -423q-13 -31 -32 -63t-47 -65t-61.5 -54.5t-74 -32.5t-85.5 1l1 10
q37 2 71.5 20t60.5 43.5t50 59.5t39 62.5t27 57.5l-203 552q-13 29 -37 43.5t-49 14.5h-8v10h305v-10h-9q-21 0 -34.5 -17.5t-3.5 -44.5l123 -347l181 435l9 -1z" />
    <glyph glyph-name="X" unicode="X" horiz-adv-x="729" 
d="M654 687l-213 -309l200 -310q17 -25 44.5 -41.5t56.5 -16.5h14v-10h-341v10h13q21 0 33.5 20.5t0.5 40.5l-139 217l-194 -276q-70 -98 -144 -137t-158 -25v10q32 3 60.5 14t48 24t42.5 37t36 41t36 48l234 324l-183 283q-11 16 -26 29t-35 21.5t-40 8.5h-14v10h340v-10
h-13q-21 0 -33.5 -20.5t-1.5 -40.5l123 -189l174 256q124 182 281 166v-10q-25 -1 -50 -11.5t-42.5 -23.5t-39 -38t-33 -40t-30.5 -42q-4 -7 -7 -10z" />
    <glyph glyph-name="Y" unicode="Y" horiz-adv-x="667" 
d="M-67 748v10q71 5 134.5 -11.5t111.5 -47.5t88.5 -75.5t68 -93t47.5 -103.5q17 49 38.5 94t52.5 90t65 77.5t78 52t91 17.5v-10q-50 -1 -103.5 -52.5t-93.5 -124.5t-67.5 -152t-32.5 -137v-209q0 -25 18.5 -44t45.5 -19h13v-10h-304v10h13q26 0 44.5 18.5t19.5 44.5v210
q-6 48 -24 107.5t-48.5 121.5t-68 113.5t-87 86t-100.5 36.5z" />
    <glyph glyph-name="Z" unicode="Z" horiz-adv-x="649" 
d="M1049 -105l7 -7q-39 -47 -86.5 -75t-97 -37t-104.5 -6t-109 17.5t-112 34.5t-111 44t-108 47.5t-101.5 42.5t-93 31t-81.5 13h-7v9l367 650h-242q-46 -1 -73.5 -28.5t-27.5 -73.5v-12h-10v174q15 -6 53 -12t68 -6h319q19 0 42 2t40.5 5t22.5 6v-9l-390 -697l30 -7
q35 -10 107.5 -29t104 -27.5t92 -23.5t90 -21t80 -16t78.5 -12t68.5 -4.5t68 1t58.5 9.5t58 17z" />
    <glyph glyph-name="bracketleft" unicode="[" horiz-adv-x="417" 
d="M120 -90v812h254v-10l-104 -38v-716l107 -38v-10h-257z" />
    <glyph glyph-name="backslash" unicode="\" horiz-adv-x="426" 
d="M9 696l48 23l360 -708l-47 -25z" />
    <glyph glyph-name="bracketright" unicode="]" horiz-adv-x="350" 
d="M43 722h254v-812h-257v10l107 38v716l-104 38v10z" />
    <glyph glyph-name="asciicircum" unicode="^" horiz-adv-x="552" 
d="M245 377l-210 -201h79l164 153l162 -153h78l-208 201h-65z" />
    <glyph glyph-name="underscore" unicode="_" horiz-adv-x="500" 
d="M0 -102v42h500v-42h-500z" />
    <glyph glyph-name="grave" unicode="`" horiz-adv-x="536" 
d="M272 751l-7 -7q-100 24 -204 90q19 57 68 81q101 -91 143 -164z" />
    <glyph glyph-name="a" unicode="a" horiz-adv-x="716" 
d="M355 720l297 -652q15 -29 38 -43.5t47 -14.5h9v-10h-319v10h9q22 0 35.5 17.5t2.5 45.5l-49 123h-234l-52 -123q-11 -28 2.5 -45.5t36.5 -17.5h8v-10h-214v10h9q23 0 46 14t38 42l231 523q47 99 50 131h9zM208 238h200l-97 246z" />
    <glyph glyph-name="b" unicode="b" horiz-adv-x="673" 
d="M42 700h290q116 0 184.5 -42t69.5 -129q-1 -44 -19 -77t-45 -50t-59 -21q77 -7 127 -57.5t50 -128.5q0 -94 -75.5 -144.5t-205.5 -50.5h-317v10h13q26 0 44.5 18t19.5 44v556q-1 26 -19.5 44t-44.5 18h-13v10zM269 46h46q70 -1 111.5 39.5t41.5 121.5q0 57 -23 94.5
t-59 53t-83 15.5v9q52 0 87 33.5t36 103.5q-1 49 -17 81t-44 46t-67 14h-29v-611z" />
    <glyph glyph-name="c" unicode="c" horiz-adv-x="780" 
d="M714 292h8l10 -172q-81 -134 -281 -134q-186 1 -296 98t-110 267q0 168 109 265.5t299 97.5q145 0 249 -54l2 -172h-8q-51 184 -233 184q-118 0 -186.5 -85.5t-68.5 -233.5t65.5 -235t177.5 -90q59 0 101.5 13.5t75 44.5t53.5 81.5t33 124.5z" />
    <glyph glyph-name="d" unicode="d" horiz-adv-x="828" 
d="M42 700h363q177 0 280 -94t103 -256t-103 -256t-280 -94h-363v10h13q26 0 44.5 18.5t19.5 44.5v560q-3 24 -21 40.5t-43 16.5h-13v10zM269 658v-616h123q72 0 124.5 37.5t80.5 107t28 163.5q0 142 -62.5 225t-170.5 83h-123z" />
    <glyph glyph-name="e" unicode="e" horiz-adv-x="631" 
d="M596 204h10l-46 -204h-518v10h13q26 0 44.5 18.5t19.5 44.5v557q-1 17 -10 30.5t-23.5 21.5t-30.5 8h-13v10h383q31 0 68 6t52 12v-175h-10v12q0 45 -26.5 72.5t-71.5 29.5h-168v-291h132q37 1 61 25.5t24 60.5v9h10v-231h-10v8q0 24 -10.5 43.5t-30 30.5t-43.5 12h-133
v-281h131q73 0 122.5 42t73.5 119z" />
    <glyph glyph-name="f" unicode="f" horiz-adv-x="595" 
d="M545 718v-169h-10v10q0 44 -25.5 70.5t-69.5 27.5h-171v-291h132q37 1 61 25t24 61v9h10v-231h-10v8q0 37 -23.5 61t-60.5 25h-133v-251q0 -17 8.5 -31.5t23.5 -23t32 -8.5h12l1 -10h-304v10h13q26 0 44.5 18.5t19.5 44.5v557q-2 25 -20.5 42.5t-43.5 17.5h-13v10h383
q16 0 34.5 2t35 4.5t30 5.5t20.5 6z" />
    <glyph glyph-name="g" unicode="g" horiz-adv-x="836" 
d="M819 325h-15q-24 0 -37 -11.5t-13 -33.5v-165q-39 -51 -129 -90t-202 -39q-171 0 -274.5 98.5t-103.5 266.5q0 167 103.5 265t280.5 98q80 0 155 -15.5t121 -38.5l2 -172h-9q-26 97 -89 140.5t-150 43.5q-121 0 -186 -86.5t-65 -240.5q0 -147 59.5 -232t168.5 -85
q37 0 71 11.5t60.5 34t38.5 53.5v153q0 22 -13.5 33.5t-38.5 11.5h-16v10h281v-10z" />
    <glyph glyph-name="h" unicode="h" horiz-adv-x="861" 
d="M820 10v-10h-304v10h13q13 0 24.5 5t20 13t14 19.5t5.5 24.5v255h-324v-254q0 -26 19 -44.5t45 -18.5h12l1 -10h-304v10h13q26 0 44.5 18.5t19.5 44.5v555q-1 26 -19.5 44t-44.5 18h-13v10h304l-1 -10h-12q-26 0 -45 -18t-19 -44v-258h324v258q-1 26 -19.5 44t-44.5 18
h-13v10h304v-10h-13q-26 0 -45 -18.5t-19 -44.5v-554q0 -26 19 -44.5t45 -18.5h13z" />
    <glyph glyph-name="i" unicode="i" horiz-adv-x="386" 
d="M345 10l1 -10h-304v10h13q26 0 44.5 18.5t19.5 44.5v555q-1 26 -19.5 44t-44.5 18h-13v10h304l-1 -10h-12q-26 0 -45 -18t-19 -44v-555q0 -26 19 -44.5t45 -18.5h12z" />
    <glyph glyph-name="j" unicode="j" horiz-adv-x="384" 
d="M45 700h304v-10h-13q-26 0 -44.5 -18.5t-19.5 -44.5v-597q0 -71 -38 -127t-99 -83t-130 -20v9q60 25 88.5 86.5t28.5 137.5v594q-1 17 -9.5 31.5t-23 23t-31.5 8.5h-13v10z" />
    <glyph glyph-name="k" unicode="k" horiz-adv-x="756" 
d="M269 628v-555q0 -26 19 -44.5t45 -18.5h12l1 -10h-304v10h13q26 0 44.5 18.5t19.5 44.5v555q-1 17 -9.5 31t-23 22.5t-31.5 8.5h-13v10h304l-1 -10h-12q-17 0 -31.5 -8.5t-23.5 -22.5t-9 -31zM426 412l249 -340q46 -60 102 -62v-10h-82q-152 0 -215 83q-179 243 -179 247
l237 314q13 16 5 31.5t-28 15.5h-10v9h229v-9h-4q-67 0 -109 -48z" />
    <glyph glyph-name="l" unicode="l" horiz-adv-x="616" 
d="M596 204h10l-46 -204h-518v10h13q26 0 44.5 18.5t19.5 44.5v554q-1 26 -19.5 44.5t-44.5 18.5h-13v10h304l-1 -10h-12q-26 0 -45 -18.5t-19 -44.5v-584h131q73 0 122.5 42t73.5 119z" />
    <glyph glyph-name="m" unicode="m" horiz-adv-x="953" 
d="M789 714l85 -641q5 -29 25.5 -46t47.5 -17h16v-10h-300v9h15q17 0 29 13.5t10 29.5l-39 363l-188 -324q-37 -62 -38 -111h-10l-257 432l-39 -360q-2 -16 10 -29.5t29 -13.5h15v-9h-209v10h16q28 0 48.5 17t24.5 46l83 641h9l310 -510l298 510h9z" />
    <glyph glyph-name="n" unicode="n" horiz-adv-x="865" 
d="M533 700h303v-10h-19q-25 0 -43 -17.5t-19 -42.5v-516q0 -34 3 -66t6 -47l3 -15h-9l-505 481v-397q0 -25 18 -42.5t43 -17.5h19v-10h-303v10h18q26 0 44 17.5t18 43.5v519q0 33 -3 64.5t-6 45.5l-2 15h9l505 -481v395q-1 26 -19 43.5t-43 17.5h-18v10z" />
    <glyph glyph-name="o" unicode="o" horiz-adv-x="879" 
d="M440 714q185 0 294 -98t109 -266t-109 -266t-294 -98t-294 98t-109 266q0 111 49.5 193.5t140.5 126.5t213 44zM440 28q110 0 174.5 86.5t64.5 235.5q0 98 -29 171t-83 112t-127 39q-110 0 -174.5 -86.5t-64.5 -235.5t64.5 -235.5t174.5 -86.5z" />
    <glyph glyph-name="p" unicode="p" horiz-adv-x="655" 
d="M45 700h334q62 0 110 -14.5t77.5 -40.5t44.5 -60.5t16 -76.5q2 -50 -17 -93t-52.5 -70t-75 -40t-88 -6t-88.5 34v10h4h11.5t17 1.5t20.5 5t23 8.5t23.5 13.5t22 20t19.5 28.5t14 37q8 28 6 60q-1 32 -10 58t-25 44.5t-40 28.5t-53 10h-67v-585q0 -26 19 -44.5t45 -18.5
h13v-10h-304v10h13q26 0 44.5 18.5t19.5 44.5v559q-2 16 -11 29.5t-23 21t-30 7.5h-13v10z" />
    <glyph glyph-name="q" unicode="q" horiz-adv-x="894" 
d="M1351 -72l6 -4q-5 -81 -75.5 -138t-187.5 -64t-268 66q-45 23 -104.5 60t-100 63.5t-91.5 48.5t-95 26q-180 4 -285.5 101.5t-105.5 262.5q0 111 49.5 193.5t140.5 126.5t213 44q185 0 294 -98t109 -266q0 -133 -70 -224t-195 -123q63 -13 125.5 -34.5t177.5 -66.5
q134 -53 257.5 -47t205.5 73zM208 350q0 -149 64.5 -235.5t174.5 -86.5t174.5 86.5t64.5 235.5q0 98 -29 171t-83 112t-127 39q-110 0 -174.5 -86.5t-64.5 -235.5z" />
    <glyph glyph-name="r" unicode="r" horiz-adv-x="746" 
d="M45 700h343q48 0 89 -10t75 -31.5t54 -59t20 -88.5q0 -44 -16.5 -84t-55 -70t-92.5 -36q20 -6 40 -21t35 -31.5t27 -35.5q61 -97 101 -147q33 -42 59 -58.5t65 -17.5v-10h-98q-85 0 -142 23.5t-93 80.5q-18 29 -46 87.5t-37 83.5q-27 60 -68 67v10h31q45 0 79.5 27
t46.5 88q5 25 4 49q-3 69 -34.5 104t-83.5 36q-13 1 -43 0.5t-33 -0.5v-583q0 -17 9 -31.5t23.5 -23t31.5 -8.5h13v-10h-304v10h13q17 0 31.5 8.5t23 22.5t9.5 31v555q-1 26 -19.5 44.5t-44.5 18.5h-13v10z" />
    <glyph glyph-name="s" unicode="s" horiz-adv-x="578" 
d="M251 483l191 -124q96 -56 90 -166q-5 -98 -75 -152.5t-190 -54.5q-68 0 -125.5 16.5t-84.5 44.5q-12 32 -4 84t28 85h9q-7 -79 46.5 -134t141.5 -54q64 1 101 32.5t37 80.5q0 59 -80 103l-174 115q-52 30 -76.5 77t-18.5 103q6 79 61.5 127t148.5 48q55 0 136 -10h63
l-13 -147h-10q0 52 -38.5 83.5t-102.5 31.5q-38 0 -67.5 -13t-45.5 -34.5t-18 -48.5q-3 -50 70 -93z" />
    <glyph glyph-name="t" unicode="t" horiz-adv-x="666" 
d="M132 701h403q15 0 33.5 2t34.5 4.5t29.5 5.5t20.5 6v-174h-10v12q0 45 -27 73t-73 29h-134v-587q1 -26 19.5 -44t44.5 -18h12l1 -10h-304v10h13q25 0 43.5 18t20.5 43v588h-135q-46 -1 -73 -29t-27 -73v-12h-10v174q14 -6 50.5 -12t67.5 -6z" />
    <glyph glyph-name="u" unicode="u" horiz-adv-x="821" 
d="M581 700h209v-10h-17q-21 0 -36.5 -13.5t-15.5 -33.5v-390q0 -123 -77 -195t-211 -72q-158 0 -242 70.5t-84 195.5v388q0 22 -15.5 36t-37.5 14h-16v10h288v-10h-16q-22 0 -37 -13.5t-16 -34.5v-382q0 -106 52 -168t142 -62q92 0 145 58.5t54 158.5v395q0 21 -15.5 34.5
t-37.5 13.5h-16v10z" />
    <glyph glyph-name="v" unicode="v" horiz-adv-x="727" 
d="M542 700h214v-10h-9q-23 0 -46 -14t-38 -42l-237 -523q-46 -99 -49 -131h-9l-303 653q-15 28 -38 42.5t-47 14.5h-8v10h318v-10h-8q-22 0 -35.5 -17.5t-3.5 -45.5l170 -413l176 413q11 28 -2.5 45.5t-35.5 17.5h-9v10z" />
    <glyph glyph-name="w" unicode="w" horiz-adv-x="971" 
d="M789 700h211v-10h-9q-25 0 -50.5 -15t-36.5 -43l-168 -539q-2 -7 -5 -18.5t-8 -41t-4 -51.5h-10l-218 483l-158 -372q-23 -58 -24 -111h-10l-239 650q-13 29 -37 43.5t-49 14.5h-8v10h305v-10h-9q-21 0 -34.5 -17.5t-3.5 -44.5l123 -348l181 436l9 -1l199 -439l100 352
q8 28 -4 45t-34 17h-9v10z" />
    <glyph glyph-name="x" unicode="x" horiz-adv-x="729" 
d="M756 10v-10h-341v10h13q21 0 33.5 20.5t0.5 40.5l-140 218l-147 -217q-8 -15 -5 -28.5t15 -23.5t25 -10h13v-10h-247v10h14q56 0 99 56l197 279l-185 286q-17 25 -44 42t-57 17h-14v10h340v-10h-13q-21 0 -33.5 -20.5t-1.5 -40.5l125 -193l123 192q12 20 -1 41t-34 21
h-13v10h246v-10h-14q-30 0 -56 -16.5t-44 -41.5l-170 -253l201 -311q17 -25 44.5 -41.5t56.5 -16.5h14z" />
    <glyph glyph-name="y" unicode="y" horiz-adv-x="702" 
d="M496 700h238v-10h-14q-30 0 -57 -17t-43 -41l-197 -314v-245q0 -26 19 -44.5t45 -18.5h12l1 -10h-304v10h13q26 0 44.5 18t19.5 44v247l-191 314q-15 24 -42.5 40.5t-56.5 16.5h-14v10h331v-10h-13q-22 0 -34 -20.5t-1 -41.5l143 -260l148 260q12 21 -0.5 41.5
t-34.5 20.5h-12v10z" />
    <glyph glyph-name="z" unicode="z" horiz-adv-x="660" 
d="M623 201h10l-36 -201h-552v9l367 650h-242q-46 -1 -73.5 -28.5t-27.5 -73.5v-12h-10v174q15 -6 53 -12t68 -6h319q14 0 31 1t32 3t26.5 4.5t15.5 4.5v-9l-370 -663h210q64 0 111.5 43t67.5 116z" />
    <glyph glyph-name="braceleft" unicode="{" horiz-adv-x="439" 
d="M8 446l-8 -3q7 -41 24.5 -66t41.5 -33t46 -8t45 6q74 18 109 72t40 157v21q1 31 2 46.5t4 41t8.5 37.5t16 27t25.5 19.5t38 4.5t52 -7l5 7q-34 23 -75 32t-81.5 -1t-73 -36t-52.5 -77.5t-18 -121.5q0 -12 1.5 -36.5t2.5 -39.5t-0.5 -36t-6 -34.5t-14 -26.5t-24.5 -20
q-35 -16 -67 5.5t-41 69.5zM457 -134l-5 7q-29 -8 -52 -7.5t-38 5.5t-25.5 20.5t-16 28t-9 39t-4 43l-1.5 49.5v4t-0.5 3.5t-0.5 4.5q-5 102 -39 156t-109 73q-24 6 -46 6t-46 -8t-41 -33t-24 -66l8 -3q9 48 41 69.5t67 5.5q15 -7 24.5 -20t14 -26.5t6 -34.5t0.5 -36
t-2.5 -39.5t-1.5 -36.5q-2 -69 17.5 -120.5t52 -77.5t72.5 -36.5t81.5 -2t76.5 32.5z" />
    <glyph glyph-name="bar" unicode="|" horiz-adv-x="257" 
d="M100 -180v880h57v-880h-57z" />
    <glyph glyph-name="braceright" unicode="}" horiz-adv-x="439" 
d="M-17 768l5 -7q30 7 52.5 7t37.5 -4.5t26 -19.5t16 -27t8.5 -37.5t4 -41l1.5 -46.5q1 -14 1 -21q5 -103 40 -157t108 -72q15 -4 29.5 -5.5t31.5 -0.5t31.5 8t28 18.5t23 32t13.5 48.5l-7 3q-10 -48 -41.5 -69.5t-67.5 -5.5q-14 7 -24 20t-14 26.5t-5.5 34.5t-1 36t2 39.5
t2.5 36.5q1 70 -18.5 121.5t-52.5 77.5t-73.5 36t-81.5 1t-75 -32zM433 188l7 3q-6 41 -23.5 66t-41.5 33t-46 8t-46 -6q-75 -19 -109 -73.5t-39 -155.5v-12q-1 -33 -2 -49.5t-4 -43t-8.5 -39t-16.5 -28t-26 -20.5t-37.5 -5.5t-52.5 7.5l-5 -7q35 -24 76.5 -32.5t81.5 2
t73 36.5t52 77.5t18 120.5q-1 12 -2.5 36t-2 39t1 36.5t5.5 35t14 26.5t24 20q35 16 67.5 -5.5t41.5 -69.5z" />
    <glyph glyph-name="asciitilde" unicode="~" horiz-adv-x="493" 
d="M399 359h59q19 -73 -17.5 -112t-94.5 -39q-25 0 -55 15t-54 33t-51 34t-46 17q-29 1 -43.5 -22.5t-4.5 -71.5h-57q-15 70 18 110t87 41q25 0 56.5 -15t56 -33.5t51 -34.5t42.5 -16q34 -1 52 25t1 69z" />
    <glyph glyph-name="exclamdown" unicode="&#xa1;" horiz-adv-x="269" 
d="M136 712q30 0 51 -21.5t21 -51.5t-21 -51t-51 -21t-51 21t-21 51t21 51.5t51 21.5zM76 323l36 171h47l35 -171l18 -323h-154z" />
    <glyph glyph-name="cent" unicode="&#xa2;" horiz-adv-x="587" 
d="M545 304l11 -130q-26 -44 -78.5 -70.5t-129.5 -26.5l-7 -86l-40 3l7 84q-130 10 -204.5 81t-74.5 188q0 128 85.5 199t236.5 71l7 84l41 -1l-7 -85q85 -8 142 -37v-137h-7q-32 121 -138 136l-38 -462q87 1 129.5 43.5t58.5 145.5h6zM311 118l37 461q-88 -2 -132.5 -61.5
t-44.5 -168.5q0 -98 36 -157.5t104 -73.5z" />
    <glyph glyph-name="sterling" unicode="&#xa3;" horiz-adv-x="603" 
d="M579 196h10l-45 -172q-47 -21 -110.5 -29.5t-106.5 -2.5q-29 4 -97 20t-104 12q-14 -1 -41 -11.5t-34 -18.5h-10v10q34 44 61 124t29 195h-93l15 48h77q-10 325 247 343q63 4 109.5 -12.5t69.5 -44.5l-40 -122h-10q3 142 -107 137q-41 -3 -67 -25t-37 -60t-14 -91.5
t1 -118.5l1 -6h181l-17 -48h-163q-1 -65 -11.5 -111t-30.5 -74t-41 -43.5t-53 -28.5q19 6 41.5 7t40.5 -1t48.5 -6t50.5 -6q50 -4 94.5 6.5t87 43t68.5 86.5z" />
    <glyph glyph-name="currency" unicode="&#xa4;" horiz-adv-x="541" 
d="M492 154l-22 -22l-60 61q-59 -54 -139.5 -54t-140.5 52l-59 -59l-21 22l59 58q-53 61 -52.5 141t53.5 140l-60 60l21 21l60 -60q60 51 139.5 51t138.5 -52l61 61l22 -21l-62 -61q52 -60 52.5 -139t-51.5 -139zM140 222.5q54 -53.5 129.5 -53.5t129 53.5t53.5 129.5
t-53.5 129.5t-129 53.5t-129.5 -53.5t-54 -129.5t54 -129.5z" />
    <glyph glyph-name="yen" unicode="&#xa5;" horiz-adv-x="702" 
d="M496 700h238v-10h-14q-20 0 -39.5 -8.5t-35 -21t-25.5 -28.5l-133 -211h107v-42h-133l-38 -61v-11h171v-42h-171v-192q0 -26 19 -44.5t45 -18.5h12l1 -10h-304v10h13q26 0 44.5 18.5t19.5 44.5v192h-173v42h173v12l-37 60h-136v42h111l-129 212q-15 24 -42.5 40.5
t-56.5 16.5h-14v10h331v-10h-13q-22 0 -34 -20.5t-1 -41.5l143 -260l148 260q8 15 4.5 29t-14.5 23.5t-25 9.5h-12v10z" />
    <glyph glyph-name="brokenbar" unicode="&#xa6;" horiz-adv-x="257" 
d="M100 350v350h57v-350h-57zM100 -180v350h57v-350h-57z" />
    <glyph glyph-name="section" unicode="&#xa7;" horiz-adv-x="526" 
d="M310 713q34 2 63 -4t47.5 -18t29.5 -27t10.5 -32t-12.5 -32q-14 -18 -31 -19.5t-33.5 10t-35.5 26.5t-37 28.5t-38 16t-39 -10.5q-15 -11 -19.5 -25.5t4 -35.5t18.5 -38t34.5 -45.5t40.5 -46t48 -51.5l6 -6q54 -59 84.5 -125.5t35 -126.5t-11.5 -115.5t-50 -96.5
t-84 -66.5t-110 -28.5q-34 -2 -65 4t-51.5 17.5t-34.5 27.5t-13.5 33t11.5 33q14 20 32 21.5t35.5 -10t38.5 -27t40 -29.5t40 -16.5t40 11.5q14 11 18.5 24t-1.5 31t-17.5 37t-34.5 45.5t-48 52t-62 61.5q-50 49 -79 104.5t-35 107.5t3 102t34.5 92t60 74.5t78.5 51.5t90 21
zM143 583q-22 -46 -26.5 -88t8.5 -82t40.5 -78.5t71.5 -81.5q84 -80 122.5 -144t25.5 -128q22 41 26 82t-11 82t-43 81t-72 84q-88 91 -116.5 142.5t-25.5 130.5z" />
    <glyph glyph-name="dieresis" unicode="&#xa8;" 
d="M164 679q-25 0 -42.5 17.5t-17.5 42.5t17.5 42.5t42.5 17.5t42.5 -17.5t17.5 -42.5t-17.5 -42.5t-42.5 -17.5zM397 679q-25 0 -42.5 17.5t-17.5 42.5t17.5 42.5t42.5 17.5t42.5 -17.5t17.5 -42.5t-17.5 -42.5t-42.5 -17.5z" />
    <glyph glyph-name="copyright" unicode="&#xa9;" horiz-adv-x="848" 
d="M424 714q151 0 257.5 -106.5t106.5 -257.5t-106.5 -257.5t-257.5 -106.5t-257.5 106.5t-106.5 257.5t106.5 257.5t257.5 106.5zM424 668q-86 0 -159.5 -42.5t-116 -116t-42.5 -159.5t42.5 -159.5t116 -116t159.5 -42.5t159.5 42.5t116 116t42.5 159.5t-42.5 159.5
t-116 116t-159.5 42.5zM612 322h6l12 -103q-33 -44 -84 -68t-114 -24q-104 1 -172.5 64.5t-68.5 158.5q0 96 69 159.5t174 63.5q44 0 91 -11.5t81 -31.5l2 -112h-6q-21 57 -63 88.5t-102 31.5q-62 0 -99.5 -51.5t-37.5 -136.5q0 -84 38 -135.5t101 -51.5q72 0 118 40t55 119
z" />
    <glyph glyph-name="ordfeminine" unicode="&#xaa;" horiz-adv-x="381" 
d="M188 711l150 -300q17 -29 42 -29h5v-5h-173v5h4q11 0 18 8t2 21l-20 46h-109l-20 -44q-6 -14 1 -22.5t18 -8.5h4v-5h-113v5h4q26 0 42 27l114 234q25 56 26 68h5zM119 483h86l-42 95z" />
    <glyph glyph-name="guillemotleft" unicode="&#xab;" horiz-adv-x="501" 
d="M259 485l-8 5q-45 -64 -95 -108t-116 -90q121 -87 211 -204l9 7q-16 33 -49 96t-51 101q18 37 50.5 98.5t48.5 94.5zM449 485l-8 5q-45 -64 -95 -108t-116 -90q121 -87 211 -204l9 7q-16 33 -49 96t-51 101q18 37 50.5 98.5t48.5 94.5z" />
    <glyph glyph-name="logicalnot" unicode="&#xac;" 
d="M40 403h522v-208h-57v151h-465v57z" />
    <glyph glyph-name="softhyphen" unicode="&#xad;" horiz-adv-x="380" 
d="M32 292l8 33h300l8 -33l-8 -34h-300z" />
    <glyph glyph-name="registered" unicode="&#xae;" horiz-adv-x="245" 
d="M123 701q47 0 80 -33t33 -80t-33 -80t-80 -33t-80 33t-33 80t33 80t80 33zM122.5 497q38.5 0 65 26.5t26.5 64.5t-26.5 64.5t-65 26.5t-64.5 -26.5t-26 -64.5t26 -64.5t64.5 -26.5zM106 650l20 1q19 0 31 -9t12 -24q0 -30 -30 -33q9 -2 30 -33q10 -16 20 -19v-2h-16
q-7 0 -13 1t-10.5 4t-8 5.5t-6.5 8t-4.5 8t-4.5 9t-4 9.5q-7 13 -11 13v2h11q12 1 16 16q1 6 1 12q-1 22 -22 22h-11v-98q0 -10 11 -10h2v-2h-54v2h2q10 0 11 10v95q-1 10 -11 10h-2v2h41z" />
    <glyph glyph-name="macron" unicode="&#xaf;" 
d="M158 703v65h274v-65h-274z" />
    <glyph glyph-name="degree" unicode="&#xb0;" horiz-adv-x="244" 
d="M122.5 664q40.5 0 69.5 -28.5t29 -69.5t-29 -70t-69.5 -29t-69.5 29t-29 70t29 69.5t69.5 28.5zM122 613q-20 0 -33.5 -13.5t-13.5 -33.5t13.5 -34t33.5 -14t34 14t14 34t-14 33.5t-34 13.5z" />
    <glyph glyph-name="plusminus" unicode="&#xb1;" horiz-adv-x="481" 
d="M269 408h173v-57h-173v-172h-57v172h-172v57h172v173h57v-173zM40 54v57h402v-57h-402z" />
    <glyph glyph-name="twosuperior" unicode="&#xb2;" horiz-adv-x="401" 
d="M74 573h-6l-34 99q16 15 39.5 25t50 15t53.5 5q70 0 116.5 -31.5t46.5 -84.5q0 -104 -167 -200h111q26 0 44.5 14t33.5 45h6l-38 -152h-295v6q15 17 50 57t53.5 63t42.5 56.5t34.5 63t10.5 57.5q0 37 -21 58t-55 19q-36 -3 -56 -32.5t-20 -82.5z" />
    <glyph glyph-name="threesuperior" unicode="&#xb3;" horiz-adv-x="348" 
d="M56 584l-28 92q43 38 131 37q43 0 74 -11t48.5 -32.5t17.5 -51.5q0 -33 -23 -54.5t-54 -24.5q38 -7 65.5 -32.5t27.5 -69.5q0 -49 -27 -84t-68.5 -50.5t-92.5 -14.5t-99 21l1 5q76 -1 126 32.5t50 96.5q0 45 -31.5 66.5t-77.5 22.5l1 6q42 -1 70.5 26t25.5 66
q-2 30 -21.5 43.5t-46.5 11.5q-23 -2 -37 -12.5t-20 -32.5t-6 -56h-6z" />
    <glyph glyph-name="acute" unicode="&#xb4;" horiz-adv-x="536" 
d="M209 744l-7 7q44 74 144 164q49 -25 68 -81q-103 -65 -205 -90z" />
    <glyph glyph-name="paragraph" unicode="&#xb6;" horiz-adv-x="532" 
d="M516 743l7 -6q-9 -31 -37 -54.5t-70 -24.5v-511q0 -105 -60 -160l-9 8q14 24 20 49t6.5 40.5t0.5 60.5v513h-83v-658q0 -154 -98 -199l-7 9q41 42 52 78.5t8 111.5v333q-85 0 -141 50.5t-55 133.5t57 133t139 50h174h7.5h8.5t9 0.5t10.5 2t10 3t12 5t12 8t13 10.5
t13.5 14z" />
    <glyph glyph-name="periodcentered" unicode="&#xb7;" horiz-adv-x="218" 
d="M109.5 393q31.5 0 60.5 -20.5t42 -51.5q-13 -31 -42 -51.5t-60.5 -20.5t-61 20.5t-41.5 51.5q12 31 41.5 51.5t61 20.5zM109 362q-18 0 -35 -12t-24 -29q7 -17 24 -29t35 -12t35.5 12t24.5 29q-7 17 -24.5 29t-35.5 12z" />
    <glyph glyph-name="cedilla" unicode="&#xb8;" 
d="M229 -62l48 63h48l-42 -49q15 5 33.5 5t37.5 -5t31.5 -21t11.5 -40q-3 -50 -57.5 -75t-112.5 -5l1 10q36 0 66 17.5t32 53.5q1 20 -15 31.5t-37 11t-40 -6.5z" />
    <glyph glyph-name="onesuperior" unicode="&#xb9;" horiz-adv-x="260" 
d="M38 308h196v6h-12q-13 0 -22.5 9.5t-9.5 22.5v369h-6q-26 -17 -70.5 -26.5t-79.5 -11.5v-6h12q37 0 37 -39v-286q0 -13 -9.5 -22.5t-22.5 -9.5h-13v-6z" />
    <glyph glyph-name="ordmasculine" unicode="&#xba;" horiz-adv-x="404" 
d="M202 711q82 0 130.5 -45.5t48.5 -122.5q0 -78 -48.5 -123.5t-130.5 -45.5t-130 45.5t-48 123.5q0 77 48 122.5t130 45.5zM202 398q40 0 62 38.5t22 106.5q0 67 -22 106t-62 39t-61.5 -39t-21.5 -106q0 -45 9.5 -77.5t28.5 -50t45 -17.5z" />
    <glyph glyph-name="guillemotright" unicode="&#xbb;" horiz-adv-x="501" 
d="M242 95l9 -6q90 116 211 203q-66 46 -116 90t-95 108l-8 -5q14 -28 31.5 -61.5t35.5 -67.5t33 -64q-19 -38 -52 -101t-49 -96zM52 95l9 -6q90 116 211 203q-66 46 -116 90t-95 108l-8 -5q16 -33 49 -94.5t51 -98.5q-19 -38 -52 -101t-49 -96z" />
    <glyph glyph-name="onequarter" unicode="&#xbc;" horiz-adv-x="747" 
d="M590 719l-478 -711l38 -26l478 712zM224 314h12v-6h-196v6h13q13 0 22.5 9.5t9.5 22.5v286q0 39 -37 39h-12v6q35 2 79.5 11.5t70.5 26.5h5v-369q0 -13 10 -22.5t23 -9.5zM702 107h-54v-68q0 -13 10 -23t24 -10h7v-6h-188v6h7q9 0 17 4t12.5 11.5t5.5 16.5v69h-190v6
l289 294h5v-243h28q27 0 39 22h6zM447 164h96v97z" />
    <glyph glyph-name="onehalf" unicode="&#xbd;" horiz-adv-x="832" 
d="M576 719l-478 -711l38 -26l478 712zM40 308h196v6h-12q-13 0 -23 9.5t-10 22.5v369h-6q-25 -17 -69.5 -26.5t-79.5 -11.5v-6h12q37 0 37 -39v-286q0 -13 -9.5 -22.5t-23.5 -9.5h-12v-6zM498 265h-5l-35 100q24 21 63 32.5t81 11.5q45 0 82 -13.5t58.5 -40.5t21.5 -62
q0 -104 -166 -200h110q18 0 31.5 6t25 19t22.5 35h6l-38 -153h-296v6q15 17 42 48t44.5 51t39.5 49t34.5 51t22 48.5t9.5 49.5q0 37 -21.5 58t-55.5 19q-36 -3 -56 -32.5t-20 -82.5z" />
    <glyph glyph-name="threequarters" unicode="&#xbe;" horiz-adv-x="789" 
d="M649 719l-479 -711l39 -26l478 712zM59 584l-28 92q43 38 131 37q25 0 47 -4t39 -12t29 -19.5t18 -26.5t6 -33q0 -22 -11 -40t-28.5 -27.5t-36.5 -11.5q38 -7 65.5 -32.5t27.5 -69.5q0 -49 -27 -84t-68.5 -50.5t-92.5 -14.5t-99 21l1 5q76 -1 126 32.5t50 96.5
q0 31 -16.5 51.5t-40 28.5t-52.5 9l1 6q42 -1 70.5 26t25.5 66q-2 30 -21.5 43.5t-46.5 11.5q-34 -3 -49 -26.5t-14 -74.5h-6zM752 107h-54v-68q0 -9 5 -16.5t12.5 -12t17.5 -4.5h6v-6h-187v6h6q14 0 24 9.5t11 22.5v69h-189v6l288 294h6v-243h27q27 0 39 22h6zM497 164h96
v97z" />
    <glyph glyph-name="questiondown" unicode="&#xbf;" horiz-adv-x="487" 
d="M254 710q19 0 36 -9.5t26.5 -26.5t9.5 -36q1 -30 -20.5 -51.5t-51.5 -21.5t-51 21.5t-21 51.5t21 51t51 21zM420 182l34 -107q-23 -41 -74 -65t-118 -24q-107 0 -165.5 46t-58.5 128q0 36 16 69t35 53t54 53.5t54 54.5q14 16 20.5 24t13.5 22.5t5 29t-12 31.5l7 6
q39 -17 60.5 -46t18.5 -67q-2 -24 -14 -45.5t-28.5 -39.5t-32.5 -38t-26.5 -48.5t-10.5 -63.5q0 -61 27 -94t76 -33q52 0 80.5 39t28.5 115h10z" />
    <glyph glyph-name="Agrave" unicode="&#xc0;" horiz-adv-x="705" 
d="M363 787l-7 -7q-101 24 -205 90q19 57 68 81q101 -91 144 -164zM964 -173l1 -10q-52 -26 -108 -31.5t-112.5 13t-108 57.5t-97.5 105t-79 153l-32 85h-236l-53 -126q-8 -20 -3 -34t16.5 -21.5t25.5 -7.5h8v-10h-214v10h9q23 0 45.5 13.5t37.5 40.5l223 509q-11 26 -23 47
t-27 41t-32.5 33t-37.5 21t-44.5 7t-51.5 -10l-2 10q60 31 113 36t94 -11t77.5 -52t63 -80t50.5 -102l145 -358q23 -57 44 -101t55 -95.5t69 -82.5t83 -46.5t101 -2.5zM209 242h204l-70 185q-4 10 -8 22t-9.5 26.5t-8.5 24.5z" />
    <glyph glyph-name="Aacute" unicode="&#xc1;" horiz-adv-x="705" 
d="M333 778l-7 7q43 74 144 164q49 -25 68 -81q-103 -65 -205 -90zM964 -173l1 -10q-52 -26 -108 -31.5t-112.5 13t-108 57.5t-97.5 105t-79 153l-32 85h-236l-53 -126q-11 -28 3 -45.5t36 -17.5h8v-10h-214v10h9q23 0 45.5 13.5t37.5 40.5l223 509q-11 26 -23 47t-27 41
t-32.5 33t-37.5 21t-44.5 7t-51.5 -10l-2 10q60 31 113 36t94 -11t77.5 -52t63 -80t50.5 -102l145 -358q23 -57 44 -101t55 -95.5t69 -82.5t83 -46.5t101 -2.5zM209 242h204l-70 185q-5 13 -14.5 39t-11.5 34z" />
    <glyph glyph-name="Acircumflex" unicode="&#xc2;" horiz-adv-x="705" 
d="M337 931l-144 -153l7 -8l142 65l153 -65l7 8l-154 153h-11zM964 -173l1 -10q-52 -26 -108 -31.5t-112.5 13t-108 57.5t-97.5 105t-79 153l-32 85h-236l-53 -126q-8 -20 -3 -34t16.5 -21.5t25.5 -7.5h8v-10h-214v10h9q23 0 45.5 13.5t37.5 40.5l223 509q-11 26 -23 47
t-27 41t-32.5 33t-37.5 21t-44.5 7t-51.5 -10l-2 10q60 31 113 36t94 -11t77.5 -52t63 -80t50.5 -102l145 -358q23 -57 44 -101t55 -95.5t69 -82.5t83 -46.5t101 -2.5zM209 242h204l-70 185q-5 13 -14.5 39t-11.5 34z" />
    <glyph glyph-name="Atilde" unicode="&#xc3;" horiz-adv-x="705" 
d="M523 905h-12q-6 -16 -28 -29t-48 -10q-28 2 -73.5 25.5t-72.5 23.5q-50 0 -76 -43t-20 -89h11q8 20 29.5 35t47.5 12q24 -3 70 -26.5t75 -23.5q52 0 79 42t18 83zM964 -173l1 -10q-52 -26 -108 -31.5t-112.5 13t-108 57.5t-97.5 105t-79 153l-32 85h-236l-53 -126
q-8 -20 -3 -34t16.5 -21.5t25.5 -7.5h8v-10h-214v10h9q23 0 45.5 13.5t37.5 40.5l223 509q-11 26 -23 47t-27 41t-32.5 33t-37.5 21t-44.5 7t-51.5 -10l-2 10q60 31 113 36t94 -11t77.5 -52t63 -80t50.5 -102l145 -358q14 -34 26.5 -62t30.5 -63.5t35 -61t40 -54.5t45.5 -45
t51.5 -32t58 -15.5t65 5.5zM209 242h204l-70 185q-4 10 -8 22t-9.5 26.5t-8.5 24.5z" />
    <glyph glyph-name="Adieresis" unicode="&#xc4;" horiz-adv-x="705" 
d="M225 775q-25 0 -42.5 17.5t-17.5 42.5t17.5 42.5t42.5 17.5t42.5 -17.5t17.5 -42.5t-17.5 -42.5t-42.5 -17.5zM458 775q-25 0 -42.5 17.5t-17.5 42.5t17.5 42.5t42.5 17.5t42.5 -17.5t17.5 -42.5t-17.5 -42.5t-42.5 -17.5zM964 -173l1 -10q-52 -26 -108 -31.5t-112.5 13
t-108 57.5t-97.5 105t-79 153l-32 85h-236l-53 -126q-8 -20 -3 -34t16.5 -21.5t25.5 -7.5h8v-10h-214v10h9q23 0 45.5 13.5t37.5 40.5l223 509q-11 26 -23 47t-27 41t-32.5 33t-37.5 21t-44.5 7t-51.5 -10l-2 10q60 31 113 36t94 -11t77.5 -52t63 -80t50.5 -102l145 -358
q23 -57 44 -101t55 -95.5t69 -82.5t83 -46.5t101 -2.5zM209 242h204l-70 185q-5 13 -14.5 39t-11.5 34z" />
    <glyph glyph-name="Aring" unicode="&#xc5;" horiz-adv-x="705" 
d="M344 947q30 0 54.5 -10.5t38.5 -29t14 -42.5t-14 -43.5t-38.5 -30.5t-55.5 -11q-47 0 -77.5 23.5t-30.5 59.5t31 60t78 24zM343 922q-22 0 -36 -16.5t-14 -42.5t14 -42t36 -16t36.5 16t14.5 42t-14.5 42.5t-36.5 16.5zM964 -173l1 -10q-52 -26 -108 -31.5t-112.5 13
t-108 57.5t-97.5 105t-79 153l-32 85h-236l-53 -126q-8 -20 -3 -34t16.5 -21.5t25.5 -7.5h8v-10h-214v10h9q23 0 45.5 13.5t37.5 40.5l223 509q-11 26 -23 47t-27 41t-32.5 33t-37.5 21t-44.5 7t-51.5 -10l-2 10q60 31 113 36t94 -11t77.5 -52t63 -80t50.5 -102l145 -358
q23 -57 44 -101t55 -95.5t69 -82.5t83 -46.5t101 -2.5zM209 242h204l-70 185q-4 10 -8 22t-9.5 26.5t-8.5 24.5z" />
    <glyph glyph-name="AE" unicode="&#xc6;" horiz-adv-x="913" 
d="M902 195h10l-45 -195h-563v10h10q20 0 34.5 14t15.5 34v260h-146l-158 -263q-36 -60 -80 -98t-90 -51.5t-89.5 -12.5t-85.5 16l1 10q79 -2 140.5 30.5t125.5 129.5l380 572q6 14 -1.5 26t-22.5 12h-4v11h234h-1q31 0 69 6t53 12v-169h-10v10q0 29 -12 51t-33.5 34.5
t-51.5 12.5h-69v-296h163q23 0 42 11.5t29.5 30.5t10.5 43v9h10v-231h-10v9q1 35 -22 59t-59 26h-164v-275h204q66 0 114.5 40.5t70.5 111.5zM243 361h121v203z" />
    <glyph glyph-name="Ccedilla" unicode="&#xc7;" horiz-adv-x="826" 
d="M799 391h9q7 -77 -4.5 -142t-40.5 -112.5t-72.5 -81.5t-98.5 -51t-120 -18l-37 -43q14 5 33 5t37.5 -5t31 -21t11.5 -40q-2 -50 -57 -75t-113 -5l1 10q23 0 43.5 6.5t37 23.5t17.5 41q1 20 -14.5 31.5t-36.5 11t-41 -6.5l-5 10l45 58q-187 10 -294 109t-107 252
q0 164 119.5 265t315.5 101q75 0 143 -15t113 -39l2 -172h-8q-17 64 -57 106.5t-87 60t-103 17.5q-126 0 -200.5 -87t-74.5 -229q0 -145 77.5 -235t213.5 -93q147 0 236 96t85 267z" />
    <glyph glyph-name="Egrave" unicode="&#xc8;" horiz-adv-x="670" 
d="M286 771l-7 -7q-100 24 -205 90q20 57 68 81q102 -91 144 -164zM660 204h10l-47 -204h-581v10h13q26 0 44.5 18.5t19.5 44.5v557q-1 17 -10 30.5t-23.5 21.5t-30.5 8h-13v10h281q31 0 68 6t52 12v-175h-11v12q1 45 -25.5 72.5t-71.5 29.5h-66v-291h159q37 1 61 25t24 61
v9h9v-231h-9v8q0 37 -24 61t-60 25h-160v-281h195q73 0 122.5 42t73.5 119z" />
    <glyph glyph-name="Eacute" unicode="&#xc9;" horiz-adv-x="670" 
d="M257 762l-7 7q43 74 143 164q49 -25 68 -81q-103 -65 -204 -90zM660 204h10l-47 -204h-581v10h13q26 0 44.5 18.5t19.5 44.5v557q-2 25 -20.5 42.5t-43.5 17.5h-13v10h281q21 0 46 3t44.5 7t29.5 8v-175l-11 1v11q1 45 -25.5 72.5t-71.5 29.5h-66v-291h159q37 1 61 25.5
t24 60.5v9h9v-231h-9v8q0 37 -24 61t-60 25h-160v-281h195q73 0 122.5 42t73.5 119z" />
    <glyph glyph-name="Ecircumflex" unicode="&#xca;" horiz-adv-x="670" 
d="M261 915l-145 -153l7 -8l143 65l152 -65l7 8l-153 153h-11zM660 204h10l-47 -204h-581v10h13q26 0 44.5 18.5t19.5 44.5v557q-1 17 -10 30.5t-23.5 21.5t-30.5 8h-13v10h281q31 0 68 6t52 12v-175h-11v12q1 45 -25.5 72.5t-71.5 29.5h-66v-291h159q37 1 61 25t24 61v9h9
v-231h-9v8q0 37 -24 61t-60 25h-160v-281h195q73 0 122.5 42t73.5 119z" />
    <glyph glyph-name="Edieresis" unicode="&#xcb;" horiz-adv-x="670" 
d="M148 759q-25 0 -42.5 17.5t-17.5 42.5t17.5 42.5t42.5 17.5t42.5 -17.5t17.5 -42.5t-17.5 -42.5t-42.5 -17.5zM381.5 759q-24.5 0 -42.5 17.5t-18 42.5t18 42.5t42.5 17.5t42.5 -17.5t18 -42.5t-18 -42.5t-42.5 -17.5zM660 204h10l-47 -204h-581v10h13q26 0 44.5 18.5
t19.5 44.5v557q-1 17 -10 30.5t-23.5 21.5t-30.5 8h-13v10h281q21 0 46 3t44.5 7t29.5 8v-175h-11v12q1 45 -25.5 72.5t-71.5 29.5h-66v-291h159q37 1 61 25.5t24 60.5v9h9v-231h-9v8q0 37 -24 61t-60 25h-160v-281h195q73 0 122.5 42t73.5 119z" />
    <glyph glyph-name="Igrave" unicode="&#xcc;" horiz-adv-x="456" 
d="M282 771l-7 -7q-100 24 -204 90q19 57 67 81q102 -91 144 -164zM339 616v-543q1 -26 19.5 -44.5t44.5 -18.5h13v-10h-304v10h13q26 0 44.5 18.5t19.5 44.5v586l-95 -4q-29 -2 -49 -8.5t-31.5 -20.5t-13.5 -35q-2 -31 18 -51.5t58 -18.5v-6q-30 -11 -57.5 -5t-45.5 29.5
t-17 55.5q2 41 35.5 68.5t105.5 32.5q13 1 83.5 3.5t132 7.5t103.5 13l2 -10q-43 -7 -60.5 -29t-18.5 -65z" />
    <glyph glyph-name="Iacute" unicode="&#xcd;" horiz-adv-x="456" 
d="M253 762l-7 7q43 74 144 164q48 -25 67 -81q-102 -65 -204 -90zM339 616v-543q0 -17 9 -31.5t23.5 -23t31.5 -8.5h13v-10h-304v10h13q26 0 44.5 18.5t19.5 44.5v586l-95 -4q-89 -4 -94 -64q-2 -31 18 -51.5t58 -18.5v-6q-30 -11 -57.5 -5t-45.5 29.5t-17 55.5
q2 41 35.5 68.5t105.5 32.5q13 1 83.5 4t132 7.5t103.5 12.5l2 -10q-43 -7 -60.5 -29t-18.5 -65z" />
    <glyph glyph-name="Icircumflex" unicode="&#xce;" horiz-adv-x="456" 
d="M257 915l-144 -153l6 -8l143 65l152 -65l7 8l-153 153h-11zM339 616v-543q0 -17 9 -31.5t23.5 -23t31.5 -8.5h13v-10h-304v10h13q26 0 44.5 18.5t19.5 44.5v586l-95 -4q-44 -2 -67.5 -17t-26.5 -47q-2 -31 18 -51.5t58 -18.5v-6q-30 -11 -57.5 -5t-45.5 29.5t-17 55.5
q2 41 35.5 68.5t105.5 32.5q13 1 83.5 3.5t132 7.5t103.5 13l2 -10q-43 -7 -60.5 -29t-18.5 -65z" />
    <glyph glyph-name="Idieresis" unicode="&#xcf;" horiz-adv-x="456" 
d="M144 759q-25 0 -42.5 17.5t-17.5 42.5t17.5 42.5t42.5 17.5t42.5 -17.5t17.5 -42.5t-17.5 -42.5t-42.5 -17.5zM378 759q-25 0 -42.5 17.5t-17.5 42.5t17.5 42.5t42.5 17.5t42.5 -17.5t17.5 -42.5t-17.5 -42.5t-42.5 -17.5zM339 616v-543q1 -26 19.5 -44.5t44.5 -18.5h13
v-10h-304v10h13q26 0 44.5 18.5t19.5 44.5v586l-95 -4q-89 -4 -94 -64q-2 -31 18 -51.5t58 -18.5v-6q-30 -11 -57.5 -5t-45.5 29.5t-17 55.5q2 41 35.5 68.5t105.5 32.5q13 1 83.5 4t132 7.5t103.5 12.5l2 -10q-43 -7 -60.5 -29t-18.5 -65z" />
    <glyph glyph-name="Eth" unicode="&#xd0;" horiz-adv-x="854" 
d="M-98 507l-10 4q23 99 99 144t203 46q67 0 232 -1q178 -2 281 -95.5t103 -254.5q0 -162 -103 -256t-281 -94h-362v10h13q25 0 43.5 17.5t20.5 42.5v259h-77v42h77v283q-46 -3 -82 -13t-60 -22.5t-43.5 -31.5t-31 -37.5t-22.5 -42.5zM291 329v-287h123q107 0 170 83t63 225
t-62.5 224.5t-170.5 81.5h-123v-285h131v-42h-131z" />
    <glyph glyph-name="Ntilde" unicode="&#xd1;" horiz-adv-x="865" 
d="M590 889h-11q-7 -16 -28.5 -29t-48.5 -10q-28 2 -73 25.5t-73 23.5q-49 0 -75 -43t-21 -89h12q8 20 29.5 35t47.5 12q23 -3 69.5 -26.5t75.5 -23.5q52 0 79 42t17 83zM1103 -132l4 -10q-185 -90 -380 118l-474 503v-409q0 -25 18 -42.5t43 -17.5h19v-10h-303v10h18
q26 0 44 17.5t18 43.5v561q-15 18 -28 32t-32.5 33.5t-37 33.5t-39 29.5t-43.5 24.5t-45 15.5t-47 5t-48 -9.5l-4 10q174 101 380 -118l447 -475v416q-1 26 -19 43.5t-43 17.5h-18v10h303v-10h-19q-25 0 -43 -17.5t-19 -42.5v-569l16 -16q6 -6 18.5 -20.5t22.5 -25
t25.5 -26.5t29 -28t32 -26t35 -23.5t37.5 -18t41.5 -12t43.5 -3.5t47 6z" />
    <glyph glyph-name="Ograve" unicode="&#xd2;" horiz-adv-x="930" 
d="M486 779l-7 -7q-100 24 -205 90q20 57 68 82q101 -91 144 -165zM343 447h-11q-14 30 -17 64.5t7 68t31 62t59 48t88 24.5q54 6 110.5 -5.5t108.5 -41t92.5 -72.5t65 -105t24.5 -133q0 -167 -120.5 -269t-313.5 -102q-194 0 -315.5 102t-121.5 268q0 124 70.5 215.5
t190.5 124.5l6 -9q-51 -43 -77 -126t-26 -179q0 -162 75 -258t197 -96q121 0 195.5 90.5t74.5 239.5q0 90 -27.5 162.5t-82 114.5t-127.5 37q-62 -4 -103 -39t-53.5 -84.5t0.5 -101.5z" />
    <glyph glyph-name="Oacute" unicode="&#xd3;" horiz-adv-x="930" 
d="M456 771l-7 7q44 74 144 164q49 -25 68 -81q-103 -66 -205 -90zM343 447h-11q-15 30 -17.5 64.5t7.5 68t31 62t59 48t88 24.5q54 6 110.5 -5.5t108.5 -41t92.5 -72.5t65 -104.5t24.5 -133.5q0 -167 -120.5 -269t-313.5 -102q-194 0 -315.5 102t-121.5 268
q0 124 70.5 215.5t190.5 124.5l6 -9q-51 -43 -77 -126t-26 -179q0 -108 34.5 -188.5t96 -123t141.5 -42.5q121 0 195.5 90.5t74.5 239.5q0 90 -27.5 162.5t-82 114.5t-127.5 37q-62 -4 -103 -39t-53.5 -84.5t0.5 -101.5z" />
    <glyph glyph-name="Ocircumflex" unicode="&#xd4;" horiz-adv-x="930" 
d="M460 924l-144 -153l7 -8l142 65l153 -66l7 8l-153 154h-12zM343 447h-11q-14 30 -17 64.5t7 68t31 62t59 48t88 24.5q54 6 110.5 -5.5t108.5 -41t92.5 -72.5t65 -105t24.5 -133q0 -167 -120.5 -269t-313.5 -102q-194 0 -315.5 102t-121.5 268q0 124 71 215.5t190 124.5
l6 -9q-51 -43 -77 -126t-26 -179q0 -162 75 -258t197 -96q121 0 195.5 90.5t74.5 239.5q0 90 -27 162.5t-82 114.5t-128 37q-62 -4 -103 -39t-53.5 -84.5t0.5 -101.5z" />
    <glyph glyph-name="Otilde" unicode="&#xd5;" horiz-adv-x="930" 
d="M646 898h-11q-7 -17 -29 -30t-48 -10q-28 3 -73 26t-73 23q-50 0 -75.5 -43t-20.5 -88h11q8 20 29.5 35t47.5 12q24 -3 70 -26.5t76 -23.5q52 -1 78.5 41t17.5 84zM343 447h-11q-14 30 -17 64.5t7 68t31 62t59 48t88 24.5q54 6 110.5 -5.5t108.5 -41t92.5 -72.5t65 -105
t24.5 -133q0 -167 -120.5 -269t-313.5 -102q-194 0 -315.5 102t-121.5 268q0 124 71 215.5t190 124.5l6 -9q-51 -43 -77 -126t-26 -179q0 -108 34.5 -188.5t96 -123t141.5 -42.5q121 0 195.5 90.5t74.5 239.5q0 90 -27 162.5t-82 114.5t-128 37q-62 -4 -103 -39t-53.5 -84.5
t0.5 -101.5z" />
    <glyph glyph-name="Odieresis" unicode="&#xd6;" horiz-adv-x="930" 
d="M348 767q-25 0 -42.5 18t-17.5 42.5t17.5 42.5t42.5 18t42.5 -18t17.5 -42.5t-17.5 -42.5t-42.5 -18zM581.5 767q-24.5 0 -42.5 18t-18 42.5t18 42.5t42.5 18t42 -18t17.5 -42.5t-17.5 -42.5t-42 -18zM343 447h-11q-14 30 -17 64.5t7 68t31 62t59 48t88 24.5
q54 6 110.5 -5.5t108.5 -41t92.5 -72.5t65 -105t24.5 -133q0 -167 -120.5 -269t-313.5 -102q-194 0 -315.5 102t-121.5 268q0 124 70.5 215.5t190.5 124.5l6 -9q-51 -43 -77 -126t-26 -179q0 -162 75 -258t197 -96q121 0 195.5 90.5t74.5 239.5q0 90 -27.5 162.5t-82 114.5
t-127.5 37q-62 -4 -103 -39t-53.5 -84.5t0.5 -101.5z" />
    <glyph glyph-name="multiply" unicode="&#xd7;" horiz-adv-x="411" 
d="M368 432l-121 -122l121 -122l-40 -40l-122 121l-122 -121l-40 40l122 122l-122 122l40 40l122 -122l122 122z" />
    <glyph glyph-name="Oslash" unicode="&#xd8;" horiz-adv-x="914" 
d="M773 695l-37 -44q71 -47 113 -122t42 -172q0 -167 -121 -269t-314 -102q-136 0 -239 52l-52 -61l-37 30l47 56q-74 49 -114 124.5t-40 168.5q0 124 70.5 215.5t190.5 124.5l6 -9q-51 -43 -77 -126t-26 -179q0 -144 60 -237l397 468q-62 65 -152 59q-62 -4 -103 -39
t-54 -84.5t1 -101.5h-12q-14 30 -17 64.5t7.5 68t31.5 62t59 48t88 24.5q104 11 204 -39l42 50zM672 575l-398 -469q72 -78 181 -78q121 0 196.5 90.5t75.5 239.5q0 130 -55 217z" />
    <glyph glyph-name="Ugrave" unicode="&#xd9;" horiz-adv-x="824" 
d="M488 771l-7 -7q-100 24 -204 90q19 57 67 81q102 -91 144 -164zM662 247v363q0 135 76 218.5t199 73.5v-10q-98 -8 -151 -81t-53 -201v-357q-1 -83 -36.5 -143t-103.5 -92t-163 -32q-150 0 -237 72.5t-86 193.5v389q0 21 -15.5 35t-37.5 14h-16v10h288v-10h-16
q-22 0 -37 -14t-16 -34v-382q0 -106 55 -168.5t146 -61.5q90 -1 147 57.5t57 159.5z" />
    <glyph glyph-name="Uacute" unicode="&#xda;" horiz-adv-x="824" 
d="M459 762l-7 7q43 74 144 164q48 -25 67 -81q-102 -65 -204 -90zM662 247v363q0 135 76 218.5t199 73.5v-10q-98 -7 -151 -80.5t-53 -201.5v-357q-1 -83 -36.5 -143t-103.5 -92t-163 -32q-150 0 -237 72.5t-86 193.5v389q0 21 -15.5 35t-37.5 14h-16v10h288v-10h-16
q-15 0 -27 -6.5t-19 -17.5t-7 -24v-382q0 -106 55 -168.5t146 -61.5q44 0 81.5 14.5t64.5 42t42.5 69t15.5 91.5z" />
    <glyph glyph-name="Ucircumflex" unicode="&#xdb;" horiz-adv-x="824" 
d="M463 915l-144 -153l6 -8l143 65l152 -65l7 8l-153 153h-11zM662 247v363q0 135 76 218.5t199 73.5v-10q-98 -8 -151 -81t-53 -201v-357q-2 -126 -81 -196.5t-222 -70.5q-150 0 -237 72.5t-86 193.5v389q0 21 -15.5 35t-37.5 14h-16v10h288v-10h-16q-22 0 -37 -14t-16 -34
v-382q0 -106 55 -168.5t146 -61.5q90 -1 147 57.5t57 159.5z" />
    <glyph glyph-name="Udieresis" unicode="&#xdc;" horiz-adv-x="824" 
d="M662 247v363q0 135 76 218.5t199 73.5v-10q-39 -3 -71.5 -16.5t-57 -37.5t-41.5 -57.5t-25.5 -76.5t-8.5 -94v-357q-2 -126 -81 -196.5t-222 -70.5q-150 0 -237 72.5t-86 193.5v389q0 21 -15.5 35t-37.5 14h-16v10h288v-10h-16q-15 0 -27 -6.5t-19 -17.5t-7 -24v-382
q0 -106 55 -168.5t146 -61.5q90 -1 147 57.5t57 159.5zM350 759q-25 0 -42.5 17.5t-17.5 42.5t17.5 42.5t42.5 17.5t42.5 -17.5t17.5 -42.5t-17.5 -42.5t-42.5 -17.5zM584 759q-25 0 -42.5 17.5t-17.5 42.5t17.5 42.5t42.5 17.5t42.5 -17.5t17.5 -42.5t-17.5 -42.5
t-42.5 -17.5z" />
    <glyph glyph-name="Yacute" unicode="&#xdd;" horiz-adv-x="667" 
d="M341 762l-7 7q43 74 144 164q49 -25 68 -81q-103 -65 -205 -90zM-67 748v10q71 5 134.5 -11.5t111.5 -47.5t88.5 -75.5t68 -93t47.5 -103.5q17 49 38.5 94t52.5 90t65 77.5t78 52t91 17.5v-10q-50 -1 -103.5 -52.5t-93.5 -124.5t-67.5 -152t-32.5 -137v-209
q0 -25 18.5 -44t45.5 -19h13v-10h-304v10h13q26 0 44.5 18.5t19.5 44.5v210q-6 48 -24 107.5t-48.5 121.5t-68 113.5t-87 86t-100.5 36.5z" />
    <glyph glyph-name="Thorn" unicode="&#xde;" horiz-adv-x="646" 
d="M270 554h102q123 0 183.5 -52t63.5 -140q1 -50 -17.5 -93t-52 -70t-74.5 -40t-87.5 -6t-88.5 34v10h4h11.5t17 1.5t20.5 5t23 8.5t23.5 13.5t22 20t19.5 28.5t14 37q8 28 6 60q-1 32 -10 58t-25 44.5t-40 28.5t-53 10h-62v-439q0 -26 18.5 -44.5t45.5 -18.5h12v-10h-303
v10h12q27 0 45.5 18.5t19.5 44.5v555q-1 26 -19.5 44t-44.5 18h-13v10h303v-10h-12q-26 0 -45 -18t-19 -44v-74z" />
    <glyph glyph-name="germandbls" unicode="&#xdf;" horiz-adv-x="1156" 
d="M829 483l191 -124q96 -56 90 -166q-5 -98 -75 -152.5t-190 -54.5q-68 0 -125.5 16.5t-84.5 44.5q-12 32 -4 84t28 85h9q-6 -79 47 -134t141 -54q64 1 101 32.5t37 80.5q0 59 -80 103l-174 115q-52 30 -76.5 77t-18.5 103q6 79 61.5 127t148.5 48q55 0 136 -10h63
l-13 -147h-10q0 52 -38.5 83.5t-102.5 31.5q-29 0 -53 -7.5t-40.5 -20.5t-26.5 -30.5t-11 -37.5q-3 -50 70 -93zM251 483l191 -124q96 -56 90 -166q-5 -98 -75 -152.5t-190 -54.5q-68 0 -125.5 16.5t-84.5 44.5q-12 32 -4 84t28 85h9q-7 -79 46.5 -134t141.5 -54
q64 1 101 32.5t37 80.5q0 59 -80 103l-174 115q-52 30 -76.5 77t-18.5 103q6 79 61.5 127t148.5 48q55 0 136 -10h63l-13 -147h-10q0 52 -38.5 83.5t-102.5 31.5q-38 0 -67.5 -13t-45.5 -34.5t-18 -48.5q-3 -50 70 -93z" />
    <glyph glyph-name="agrave" unicode="&#xe0;" horiz-adv-x="716" 
d="M372 771l-7 -7q-101 24 -205 90q19 57 68 81q101 -91 144 -164zM355 720l297 -652q15 -29 38 -43.5t47 -14.5h9v-10h-319v10h9q22 0 35.5 17.5t2.5 45.5l-49 123h-234l-52 -123q-8 -20 -3 -34t16.5 -21.5t25.5 -7.5h8v-10h-214v10h9q23 0 46 14t38 42l231 523
q47 99 50 131h9zM208 238h200l-97 246z" />
    <glyph glyph-name="aacute" unicode="&#xe1;" horiz-adv-x="716" 
d="M342 762l-7 7q43 74 144 164q48 -25 68 -81q-103 -65 -205 -90zM355 720l297 -652q15 -29 38 -43.5t47 -14.5h9v-10h-319v10h9q22 0 35.5 17.5t2.5 45.5l-49 123h-234l-52 -123q-11 -28 2.5 -45.5t36.5 -17.5h8v-10h-214v10h9q23 0 46 14t38 42l231 523q47 99 50 131h9z
M208 238h200l-97 246z" />
    <glyph glyph-name="acircumflex" unicode="&#xe2;" horiz-adv-x="716" 
d="M346 915l-144 -153l7 -8l142 65l153 -65l6 8l-153 153h-11zM355 720l297 -652q15 -29 38 -43.5t47 -14.5h9v-10h-319v10h9q22 0 35.5 17.5t2.5 45.5l-49 123h-234l-52 -123q-8 -20 -3 -34t16.5 -21.5t25.5 -7.5h8v-10h-214v10h9q23 0 46 14t38 42l231 523q47 99 50 131h9
zM208 238h200l-97 246z" />
    <glyph glyph-name="atilde" unicode="&#xe3;" horiz-adv-x="716" 
d="M532 889h-12q-6 -16 -28 -29t-49 -10q-27 2 -72.5 25.5t-72.5 23.5q-50 0 -76 -43t-21 -89h12q8 20 29.5 35t47.5 12q24 -3 70 -26.5t75 -23.5q52 0 79 42t18 83zM355 720l297 -652q15 -29 38 -43.5t47 -14.5h9v-10h-319v10h9q22 0 35.5 17.5t2.5 45.5l-49 123h-234
l-52 -123q-11 -28 2.5 -45.5t36.5 -17.5h8v-10h-214v10h9q23 0 46 14t38 42l231 523q47 99 50 131h9zM208 238h200l-97 246z" />
    <glyph glyph-name="adieresis" unicode="&#xe4;" horiz-adv-x="716" 
d="M234 759q-25 0 -42.5 17.5t-17.5 42.5t17.5 42.5t42.5 17.5t42.5 -17.5t17.5 -42.5t-17.5 -42.5t-42.5 -17.5zM467 759q-25 0 -42.5 17.5t-17.5 42.5t17.5 42.5t42.5 17.5t42.5 -17.5t17.5 -42.5t-17.5 -42.5t-42.5 -17.5zM355 720l297 -652q15 -29 38 -43.5t47 -14.5h9
v-10h-319v10h9q22 0 35.5 17.5t2.5 45.5l-49 123h-234l-52 -123q-11 -28 2.5 -45.5t36.5 -17.5h8v-10h-214v10h9q23 0 46 14t38 42l231 523q47 99 50 131h9zM208 238h200l-97 246z" />
    <glyph glyph-name="aring" unicode="&#xe5;" horiz-adv-x="716" 
d="M352 931q47 0 77.5 -23t30.5 -59q0 -37 -31 -61t-77.5 -24t-77.5 23.5t-31 59.5t31.5 60t77.5 24zM352 906q-22 0 -36 -16.5t-14 -42.5q0 -17 6.5 -30.5t18 -20.5t25.5 -7q22 0 36.5 16t14.5 42t-14.5 42.5t-36.5 16.5zM355 720l297 -652q15 -29 38 -43.5t47 -14.5h9v-10
h-319v10h9q22 0 35.5 17.5t2.5 45.5l-49 123h-234l-52 -123q-11 -28 2.5 -45.5t36.5 -17.5h8v-10h-214v10h9q23 0 46 14t38 42l231 523q47 99 50 131h9zM208 238h200l-97 246z" />
    <glyph glyph-name="ae" unicode="&#xe6;" horiz-adv-x="969" 
d="M935 195h10l-45 -195h-494l1 10h9q20 0 34.5 14t15.5 34v260h-160l-150 -247q-14 -27 -1.5 -44.5t34.5 -16.5h10v-10h-223v10h8q47 0 88 61l385 576q10 17 3 30t-25 13h-4v10h335q21 0 46 3t44.5 7t28.5 8v-169h-10v10q0 29 -11.5 51t-33 34t-50.5 13h-164v-296h128
q36 1 59.5 25t23.5 60v9h10v-231h-10v9q0 23 -10.5 42.5t-29 30.5t-41.5 12h-130v-275h133q67 0 115.5 40.5t70.5 111.5zM332 361h134v220z" />
    <glyph glyph-name="ccedilla" unicode="&#xe7;" horiz-adv-x="780" 
d="M722 292l10 -172q-81 -134 -282 -134l-39 -45q15 5 34 5t37.5 -5t31 -21t11.5 -40q-2 -50 -57 -75t-113 -5l1 10q22 0 43 6.5t37.5 23.5t17.5 41q1 20 -15 31.5t-36.5 11t-40.5 -6.5l-5 10l47 61q-166 13 -262.5 108.5t-96.5 254.5q0 168 109 265.5t299 97.5
q145 0 249 -54l2 -172h-8q-51 184 -233 184q-118 0 -186.5 -85.5t-68.5 -233.5t65.5 -235t177.5 -90q59 0 101.5 13.5t75 44.5t53.5 81.5t33 124.5h8z" />
    <glyph glyph-name="egrave" unicode="&#xe8;" horiz-adv-x="631" 
d="M342 771l-7 -7q-101 24 -205 90q19 57 68 81q101 -91 144 -164zM596 204h10l-46 -204h-518v10h13q26 0 44.5 18.5t19.5 44.5v557q-1 17 -10 30.5t-23.5 21.5t-30.5 8h-13v10h383q21 0 46 3t44.5 7t29.5 8v-175h-10v12q0 45 -26.5 72.5t-71.5 29.5h-168v-291h132
q37 1 61 25t24 61v9h10v-231h-10v8q0 37 -23.5 61t-60.5 25h-133v-281h131q73 0 122.5 42t73.5 119z" />
    <glyph glyph-name="eacute" unicode="&#xe9;" horiz-adv-x="631" 
d="M312 762l-7 7q43 74 144 164q48 -25 68 -81q-103 -65 -205 -90zM596 204h10l-46 -204h-518v10h13q26 0 44.5 18.5t19.5 44.5v557q-1 17 -10 30.5t-23.5 21.5t-30.5 8h-13v10h383q31 0 68 6t52 12v-175l-10 1v11q0 15 -3 28.5t-9 24.5t-14.5 20t-19.5 15t-24 10t-28 4
h-168v-291h132q37 1 61 25.5t24 60.5v9h10v-231h-10v8q0 24 -10.5 43.5t-30 30.5t-43.5 12h-133v-281h131q73 0 122.5 42t73.5 119z" />
    <glyph glyph-name="ecircumflex" unicode="&#xea;" horiz-adv-x="631" 
d="M316 915l-144 -153l7 -8l142 65l153 -65l6 8l-153 153h-11zM596 204h10l-46 -204h-518v10h13q26 0 44.5 18.5t19.5 44.5v557q-1 17 -10 30.5t-23.5 21.5t-30.5 8h-13v10h383q31 0 68 6t52 12v-175h-10v12q0 45 -26.5 72.5t-71.5 29.5h-168v-291h132q37 1 61 25t24 61v9
h10v-231h-10v8q0 37 -23.5 61t-59.5 25h-134v-281h131q73 0 122.5 42t73.5 119z" />
    <glyph glyph-name="edieresis" unicode="&#xeb;" horiz-adv-x="631" 
d="M204 759q-25 0 -42.5 17.5t-17.5 42.5t17.5 42.5t42.5 17.5t42.5 -17.5t17.5 -42.5t-17.5 -42.5t-42.5 -17.5zM437 759q-25 0 -42.5 17.5t-17.5 42.5t17.5 42.5t42.5 17.5t42.5 -17.5t17.5 -42.5t-17.5 -42.5t-42.5 -17.5zM596 204h10l-46 -204h-518v10h13
q26 0 44.5 18.5t19.5 44.5v557q-1 17 -10 30.5t-23.5 21.5t-30.5 8h-13v10h383q31 0 68 6t52 12v-175h-10v12q0 45 -26.5 72.5t-71.5 29.5h-168v-291h132q37 1 61 25.5t24 60.5v9h10v-231h-10v8q0 24 -10.5 43.5t-30 30.5t-43.5 12h-133v-281h131q73 0 122.5 42t73.5 119z
" />
    <glyph glyph-name="igrave" unicode="&#xec;" horiz-adv-x="386" 
d="M212 771l-7 -7q-100 24 -204 90q19 57 67 81q102 -91 144 -164zM345 10l1 -10h-304v10h13q26 0 44.5 18.5t19.5 44.5v555q-1 26 -19.5 44t-44.5 18h-13v10h304l-1 -10h-12q-26 0 -45 -18t-19 -44v-555q0 -26 19 -44.5t45 -18.5h12z" />
    <glyph glyph-name="iacute" unicode="&#xed;" horiz-adv-x="386" 
d="M183 762l-7 7q43 74 144 164q48 -25 67 -81q-102 -65 -204 -90zM345 10l1 -10h-304v10h13q26 0 44.5 18.5t19.5 44.5v555q-1 26 -19.5 44t-44.5 18h-13v10h304l-1 -10h-12q-26 0 -45 -18t-19 -44v-555q0 -26 19 -44.5t45 -18.5h12z" />
    <glyph glyph-name="icircumflex" unicode="&#xee;" horiz-adv-x="386" 
d="M187 915l-145 -153l7 -8l143 65l152 -65l7 8l-153 153h-11zM345 10l1 -10h-304v10h13q26 0 44.5 18.5t19.5 44.5v555q-1 26 -19.5 44t-44.5 18h-13v10h304l-1 -10h-12q-26 0 -45 -18t-19 -44v-555q0 -26 19 -44.5t45 -18.5h12z" />
    <glyph glyph-name="idieresis" unicode="&#xef;" horiz-adv-x="386" 
d="M74 759q-25 0 -42.5 17.5t-17.5 42.5t17.5 42.5t42.5 17.5t42.5 -17.5t17.5 -42.5t-17.5 -42.5t-42.5 -17.5zM308 759q-25 0 -42.5 17.5t-17.5 42.5t17.5 42.5t42.5 17.5t42.5 -17.5t17.5 -42.5t-17.5 -42.5t-42.5 -17.5zM345 10l1 -10h-304v10h13q26 0 44.5 18.5
t19.5 44.5v555q-1 26 -19.5 44t-44.5 18h-13v10h304l-1 -10h-12q-26 0 -45 -18t-19 -44v-555q0 -26 19 -44.5t45 -18.5h12z" />
    <glyph glyph-name="eth" unicode="&#xf0;" horiz-adv-x="832" 
d="M44 700h363q177 0 279 -94t102 -256t-102 -256t-279 -94h-363v10h13q26 0 44.5 18.5t19.5 44.5v256h-79v42h79v262q-2 16 -11 29t-23 20.5t-30 7.5h-13v10zM271 329v-287h123q108 0 172 83t64 225t-64 225t-172 83h-123v-287h129v-42h-129z" />
    <glyph glyph-name="ntilde" unicode="&#xf1;" horiz-adv-x="865" 
d="M597 889h-12q-6 -16 -28 -29t-49 -10q-27 2 -72.5 25.5t-72.5 23.5q-50 0 -76 -43t-21 -89h12q8 20 29.5 35t47.5 12q21 -2 46.5 -15t50.5 -24t48 -11q52 0 79 42t18 83zM533 700h303v-10h-19q-16 0 -30 -8t-22.5 -21.5t-9.5 -30.5v-516q0 -34 3 -66t6 -47l3 -15h-9
l-505 481v-397q0 -16 8.5 -30t22.5 -22t30 -8h19v-10h-303v10h18q26 0 44 17.5t18 43.5v519q0 33 -3 64.5t-6 45.5l-2 15h9l505 -481v395q-1 26 -19 43.5t-43 17.5h-18v10z" />
    <glyph glyph-name="ograve" unicode="&#xf2;" horiz-adv-x="879" 
d="M460 779l-7 -7q-101 24 -205 90q19 57 68 82q101 -91 144 -165zM440 714q185 0 294 -98t109 -266t-109 -266t-294 -98t-294 98t-109 266q0 111 49.5 193.5t140.5 126.5t213 44zM440 28q110 0 174.5 86.5t64.5 235.5q0 98 -29 171t-83 112t-127 39q-110 0 -174.5 -86.5
t-64.5 -235.5t64.5 -235.5t174.5 -86.5z" />
    <glyph glyph-name="oacute" unicode="&#xf3;" horiz-adv-x="879" 
d="M430 771l-7 7q43 74 144 164q49 -25 68 -81q-103 -66 -205 -90zM440 714q185 0 294 -98t109 -266t-109 -266t-294 -98t-294 98t-109 266t109 266t294 98zM440 28q110 0 174.5 86.5t64.5 235.5q0 98 -29 171t-83 112t-127 39q-110 0 -174.5 -86.5t-64.5 -235.5
t64.5 -235.5t174.5 -86.5z" />
    <glyph glyph-name="ocircumflex" unicode="&#xf4;" horiz-adv-x="879" 
d="M434 924l-144 -153l7 -8l142 65l153 -66l7 8l-154 154h-11zM440 714q92 0 167 -25.5t127 -72t80.5 -115t28.5 -151.5q0 -168 -109 -266t-294 -98t-294 98t-109 266q0 111 49.5 193.5t140.5 126.5t213 44zM440 28q110 0 174.5 86.5t64.5 235.5q0 98 -29 171t-83 112
t-127 39q-110 0 -174.5 -86.5t-64.5 -235.5t64.5 -235.5t174.5 -86.5z" />
    <glyph glyph-name="otilde" unicode="&#xf5;" horiz-adv-x="879" 
d="M620 898h-12q-6 -17 -28 -30t-48 -10q-28 3 -73.5 26t-72.5 23q-50 0 -76 -43t-21 -88h12q8 20 29.5 35t47.5 12q24 -3 70 -26.5t75 -23.5q52 -1 79 41t18 84zM440 714q185 0 294 -98t109 -266t-109 -266t-294 -98t-294 98t-109 266q0 111 49.5 193.5t140.5 126.5t213 44
zM440 28q110 0 174.5 86.5t64.5 235.5q0 98 -29 171t-83 112t-127 39q-110 0 -174.5 -86.5t-64.5 -235.5t64.5 -235.5t174.5 -86.5z" />
    <glyph glyph-name="odieresis" unicode="&#xf6;" horiz-adv-x="879" 
d="M322 767q-25 0 -42.5 18t-17.5 42.5t17.5 42.5t42.5 18t42.5 -18t17.5 -42.5t-17.5 -42.5t-42.5 -18zM555 767q-25 0 -42.5 18t-17.5 42.5t17.5 42.5t42.5 18t42.5 -18t17.5 -42.5t-17.5 -42.5t-42.5 -18zM440 714q185 0 294 -98t109 -266t-109 -266t-294 -98t-294 98
t-109 266q0 111 49.5 193.5t140.5 126.5t213 44zM440 28q110 0 174.5 86.5t64.5 235.5q0 98 -29 171t-83 112t-127 39q-110 0 -174.5 -86.5t-64.5 -235.5t64.5 -235.5t174.5 -86.5z" />
    <glyph glyph-name="divide" unicode="&#xf7;" horiz-adv-x="481" 
d="M240.5 423q-18.5 0 -32 13t-13.5 32t13.5 32.5t32 13.5t32 -13.5t13.5 -32.5t-13.5 -32t-32 -13zM40 281v57h402v-57h-402zM240.5 107q-18.5 0 -32 13t-13.5 32t13.5 32.5t32 13.5t32 -13.5t13.5 -32.5t-13.5 -32t-32 -13z" />
    <glyph glyph-name="oslash" unicode="&#xf8;" horiz-adv-x="879" 
d="M750 695l-46 -55q67 -47 103 -121t36 -169q0 -168 -109 -266t-294 -98q-142 0 -241 59l-58 -68l-36 31l55 64q-123 99 -123 278q0 111 49.5 193.5t140.5 126.5t213 44q128 0 223 -49l50 60zM237 164l368 433q-63 75 -165 75q-110 0 -174.5 -86.5t-64.5 -235.5
q0 -109 36 -186zM633 557l-371 -437q65 -92 178 -92q110 0 174.5 86.5t64.5 235.5q0 125 -46 207z" />
    <glyph glyph-name="ugrave" unicode="&#xf9;" horiz-adv-x="821" 
d="M470 771l-7 -7q-100 24 -204 90q19 57 67 81q102 -91 144 -164zM581 700h209v-10h-17q-21 0 -36.5 -13.5t-15.5 -33.5v-390q0 -123 -77 -195t-211 -72q-158 0 -242 70.5t-84 195.5v388q0 15 -7.5 26t-19.5 17.5t-26 6.5h-16v10h288v-10h-16q-22 0 -37 -13.5t-16 -34.5
v-382q0 -106 52 -168t142 -62q92 0 145 58.5t54 158.5v395q0 21 -15.5 34.5t-37.5 13.5h-16v10z" />
    <glyph glyph-name="uacute" unicode="&#xfa;" horiz-adv-x="821" 
d="M441 762l-7 7q43 74 144 164q48 -25 67 -81q-102 -65 -204 -90zM581 700h209v-10h-17q-21 0 -36.5 -13.5t-15.5 -33.5v-390q0 -123 -77 -195t-211 -72q-158 0 -242 70.5t-84 195.5v389q0 14 -7.5 25t-19.5 17.5t-26 6.5h-16v10h288v-10h-16q-22 0 -37 -13.5t-16 -34.5
v-382q0 -106 52 -168t142 -62q45 0 82.5 15t63 43t39.5 68.5t14 90.5v395q0 21 -15.5 34.5t-37.5 13.5h-16v10z" />
    <glyph glyph-name="ucircumflex" unicode="&#xfb;" horiz-adv-x="821" 
d="M445 915l-145 -153l7 -8l143 65l152 -65l7 8l-153 153h-11zM581 700h209v-10h-16q-15 0 -27 -6t-19 -17t-7 -24v-390q0 -123 -77 -195t-211 -72q-158 0 -242 70.5t-84 195.5v388q0 15 -7.5 26t-19.5 17.5t-26 6.5h-16v10h288v-10h-16q-22 0 -37 -13.5t-16 -34.5v-382
q0 -106 52 -168t142 -62q92 0 145 58.5t54 158.5v395q0 21 -15.5 34.5t-37.5 13.5h-16v10z" />
    <glyph glyph-name="udieresis" unicode="&#xfc;" horiz-adv-x="821" 
d="M332 759q-25 0 -42.5 17.5t-17.5 42.5t17.5 42.5t42.5 17.5t42.5 -17.5t17.5 -42.5t-17.5 -42.5t-42.5 -17.5zM565.5 759q-24.5 0 -42 17.5t-17.5 42.5t17.5 42.5t42 17.5t42.5 -17.5t18 -42.5t-18 -42.5t-42.5 -17.5zM581 700h209v-10h-17q-14 0 -26 -6t-19 -17t-7 -24
v-390q0 -123 -77 -195t-211 -72q-158 0 -242 70.5t-84 195.5v388q0 22 -15.5 36t-37.5 14h-16v10h288v-10h-16q-22 0 -37 -13.5t-16 -34.5v-382q0 -106 52 -168t142 -62q92 0 145 58.5t54 158.5v395q0 21 -15.5 34.5t-37.5 13.5h-16v10z" />
    <glyph glyph-name="yacute" unicode="&#xfd;" horiz-adv-x="702" 
d="M389 762l-7 7q43 74 144 164q48 -25 67 -81q-102 -65 -204 -90zM496 700h238v-10h-14q-30 0 -57 -17t-43 -41l-197 -314v-245q0 -17 8.5 -31.5t23.5 -23t32 -8.5h12l1 -10h-304v10h13q26 0 44.5 18t19.5 44v247l-191 314q-10 15 -25 28t-34.5 21t-39.5 8h-14v10h331v-10
h-13q-22 0 -34 -20.5t-1 -41.5l143 -260l148 260q12 21 -0.5 41.5t-34.5 20.5h-12v10z" />
    <glyph glyph-name="thorn" unicode="&#xfe;" horiz-adv-x="646" 
d="M270 554h102q123 0 183.5 -52t63.5 -140q1 -50 -17.5 -93t-52 -70t-74.5 -40t-87.5 -6t-88.5 34v10h4h11.5t17 1.5t20.5 5t23 8.5t23.5 13.5t22 20t19.5 28.5t14 37q8 28 6 60q-1 32 -10 58t-25 44.5t-40 28.5t-53 10h-62v-439q0 -26 18.5 -44.5t45.5 -18.5h12v-10h-303
v10h12q27 0 45.5 18.5t19.5 44.5v555q-1 26 -19.5 44t-44.5 18h-13v10h303v-10h-12q-26 0 -45 -18t-19 -44v-74z" />
    <glyph glyph-name="ydieresis" unicode="&#xff;" horiz-adv-x="702" 
d="M280 759q-25 0 -42.5 17.5t-17.5 42.5t17.5 42.5t42.5 17.5t42.5 -17.5t17.5 -42.5t-17.5 -42.5t-42.5 -17.5zM514 759q-25 0 -42.5 17.5t-17.5 42.5t17.5 42.5t42.5 17.5t42.5 -17.5t17.5 -42.5t-17.5 -42.5t-42.5 -17.5zM496 700h238v-10h-14q-30 0 -57 -17t-43 -41
l-197 -314v-245q0 -26 19 -44.5t45 -18.5h12l1 -10h-304v10h13q26 0 44.5 18t19.5 44v247l-191 314q-15 24 -42.5 40.5t-56.5 16.5h-14v10h331v-10h-13q-22 0 -34 -20.5t-1 -41.5l143 -260l148 260q12 21 -0.5 41.5t-34.5 20.5h-12v10z" />
    <glyph glyph-name="Amacron" unicode="&#x100;" horiz-adv-x="705" 
d="M209 811v66h275v-66h-275zM964 -173l1 -10q-52 -26 -108 -31.5t-112.5 13t-108 57.5t-97.5 105t-79 153l-32 85h-236l-53 -126q-8 -20 -3 -34t16.5 -21.5t25.5 -7.5h8v-10h-214v10h9q23 0 45.5 13.5t37.5 40.5l223 509q-11 26 -23 47t-27 41t-32.5 33t-37.5 21t-44.5 7
t-51.5 -10l-2 10q60 31 113 36t94 -11t77.5 -52t63 -80t50.5 -102l145 -358q23 -57 44 -101t55 -95.5t69 -82.5t83 -46.5t101 -2.5zM209 242h204l-70 185q-5 13 -14.5 39t-11.5 34z" />
    <glyph glyph-name="amacron" unicode="&#x101;" horiz-adv-x="716" 
d="M218 795v66h274v-66h-274zM355 720l297 -652q15 -29 38 -43.5t47 -14.5h9v-10h-319v10h9q22 0 35.5 17.5t2.5 45.5l-49 123h-234l-52 -123q-11 -28 2.5 -45.5t36.5 -17.5h8v-10h-214v10h9q23 0 46 14t38 42l231 523q47 99 50 131h9zM208 238h200l-97 246z" />
    <glyph glyph-name="Abreve" unicode="&#x102;" horiz-adv-x="705" 
d="M457 920h12q9 -55 -29.5 -97.5t-95.5 -42.5q-58 0 -96 42.5t-29 97.5h11q11 -25 42.5 -42.5t71 -17.5t71.5 17.5t42 42.5zM964 -173l1 -10q-52 -26 -108 -31.5t-112.5 13t-108 57.5t-97.5 105t-79 153l-32 85h-236l-53 -126q-11 -28 3 -45.5t36 -17.5h8v-10h-214v10h9
q23 0 45.5 13.5t37.5 40.5l223 509q-11 26 -23 47t-27 41t-32.5 33t-37.5 21t-44.5 7t-51.5 -10l-2 10q60 31 113 36t94 -11t77.5 -52t63 -80t50.5 -102l145 -358q14 -34 26.5 -62t30.5 -63.5t35 -61t40 -54.5t45.5 -45t51.5 -32t58 -15.5t65 5.5zM209 242h204l-70 185
q-5 13 -14.5 39t-11.5 34z" />
    <glyph glyph-name="abreve" unicode="&#x103;" horiz-adv-x="716" 
d="M466 904h12q8 -55 -30 -97.5t-95 -42.5q-58 0 -96 42.5t-30 97.5h12q10 -25 42 -42.5t71.5 -17.5t71.5 17.5t42 42.5zM355 720l297 -652q15 -29 38 -43.5t47 -14.5h9v-10h-319v10h9q22 0 35.5 17.5t2.5 45.5l-49 123h-234l-52 -123q-8 -20 -3 -34t16.5 -21.5t25.5 -7.5h8
v-10h-214v10h9q23 0 46 14t38 42l231 523q47 99 50 131h9zM208 238h200l-97 246z" />
    <glyph glyph-name="Aogonek" unicode="&#x104;" horiz-adv-x="699" 
d="M958 -156l1 -10q-56 -24 -114 -28t-115 13t-111 61.5t-97 114.5q-51 -12 -55 -63q-3 -45 31.5 -64.5t75.5 7.5l5 -7q-13 -52 -64 -62t-91.5 26t-27.5 96q8 42 42.5 61.5t76.5 16.5q-29 49 -53 108l-33 85h-237l-53 -126q-11 -28 3 -45.5t36 -17.5h8v-10h-214v10h9
q23 0 45.5 13.5t37.5 40.5l217 495q-93 174 -228 135l-3 10q76 35 139.5 37t113.5 -28t89.5 -82t73.5 -130l148 -345q20 -46 37 -81t41.5 -77t51 -70t59 -51.5t72 -31.5t83.5 -1zM209 242h203l-72 183q-20 50 -27 67z" />
    <glyph glyph-name="aogonek" unicode="&#x105;" horiz-adv-x="726" 
d="M360 714l301 -643q25 -53 86 -60l8 -1v-10q-13 0 -44 2t-57 3.5t-57 0.5t-52 -6q-35 -7 -50 -26.5t-14 -45.5q2 -29 20.5 -47t46 -17.5t50.5 22.5l6 -6q-5 -33 -27.5 -53t-51.5 -21t-56.5 9t-44.5 37.5t-14 63.5q4 28 19 45.5t43 35.5q18 11 21 27t-8 45l-52 127h-240
l-54 -123q-11 -28 2.5 -45.5t36.5 -17.5h8v-10h-214v10h9q25 0 49 16t38 47l234 510q46 99 49 131h9zM211 238h204l-100 243z" />
    <glyph glyph-name="Cacute" unicode="&#x106;" horiz-adv-x="826" 
d="M438 762l-7 7q43 74 144 164q48 -25 67 -81q-102 -65 -204 -90zM799 391h9q9 -97 -12 -174.5t-68 -127.5t-114 -76.5t-150 -26.5q-204 0 -322 100.5t-118 261.5q0 164 119.5 265t315.5 101q50 0 99.5 -7.5t88.5 -19.5t68 -27l2 -172h-8q-13 49 -38.5 85t-59.5 57.5
t-71 31.5t-78 10q-126 0 -200.5 -87t-74.5 -229q0 -95 34 -168t100.5 -115.5t156.5 -44.5q147 0 236 96t85 267z" />
    <glyph glyph-name="cacute" unicode="&#x107;" horiz-adv-x="780" 
d="M421 762l-7 7q43 74 144 164q48 -25 68 -81q-103 -65 -205 -90zM714 292h8l10 -172q-81 -134 -281 -134q-186 1 -296 98t-110 267q0 168 109 265.5t299 97.5q145 0 249 -54l2 -172h-8q-51 184 -233 184q-118 0 -186.5 -85.5t-68.5 -233.5t65.5 -235t177.5 -90
q59 0 101.5 13.5t75 44.5t53.5 81.5t33 124.5z" />
    <glyph glyph-name="Cdotaccent" unicode="&#x10a;" horiz-adv-x="826" 
d="M447.5 764q-25.5 0 -43.5 18t-18 43.5t18 44t43.5 18.5t43.5 -18.5t18 -44t-18 -43.5t-43.5 -18zM799 391h9q9 -97 -12 -174.5t-68 -127.5t-114 -76.5t-150 -26.5q-204 0 -322 100.5t-118 261.5q0 164 119.5 265t315.5 101q75 0 143 -15t113 -39l2 -172h-8
q-13 49 -38.5 85t-59.5 57.5t-71 31.5t-78 10q-126 0 -200.5 -87t-74.5 -229q0 -145 77.5 -235t213.5 -93q147 0 236 96t85 267z" />
    <glyph glyph-name="cdotaccent" unicode="&#x10b;" horiz-adv-x="780" 
d="M430.5 764q-25.5 0 -43.5 18t-18 43.5t18 44t43.5 18.5t43.5 -18.5t18 -44t-18 -43.5t-43.5 -18zM714 292h8l10 -172q-81 -134 -281 -134q-186 1 -296 98t-110 267q0 168 109 265.5t299 97.5q145 0 249 -54l2 -172h-8q-51 184 -233 184q-118 0 -186.5 -85.5t-68.5 -233.5
t65.5 -235t177.5 -90q59 0 101.5 13.5t75 44.5t53.5 81.5t33 124.5z" />
    <glyph glyph-name="Ccaron" unicode="&#x10c;" horiz-adv-x="826" 
d="M454 764l139 153l-7 8l-137 -65l-147 65l-6 -8l147 -153h11zM799 391h9q9 -97 -12 -174.5t-68 -127.5t-114 -76.5t-150 -26.5q-204 0 -322 100.5t-118 261.5q0 164 119.5 265t315.5 101q75 0 143 -15t113 -39l2 -172h-8q-13 49 -38.5 85t-59.5 57.5t-71 31.5t-78 10
q-126 0 -200.5 -87t-74.5 -229q0 -144 77.5 -234.5t213.5 -93.5q147 0 236 96t85 267z" />
    <glyph glyph-name="ccaron" unicode="&#x10d;" horiz-adv-x="780" 
d="M437 764l139 153l-7 8l-137 -65l-147 65l-6 -8l147 -153h11zM714 292h8l10 -172q-81 -134 -281 -134q-186 1 -296 98t-110 267q0 168 109 265.5t299 97.5q145 0 249 -54l2 -172h-8q-51 184 -233 184q-118 0 -186.5 -85.5t-68.5 -233.5t65.5 -235t177.5 -90
q59 0 101.5 13.5t75 44.5t53.5 81.5t33 124.5z" />
    <glyph glyph-name="Dcaron" unicode="&#x10e;" horiz-adv-x="862" 
d="M449 764l138 153l-7 8l-136 -65l-147 65l-7 -8l148 -153h11zM-90 507l-10 4q24 100 100.5 144.5t205.5 45.5q68 0 229 -1q177 -1 280 -95t103 -255q0 -162 -103 -256t-280 -94h-363v10h13q17 0 31 8t23 21.5t10 30.5v585q-56 -4 -97.5 -17t-68.5 -34.5t-42.5 -43.5
t-30.5 -53zM299 656v-614h124q107 0 169.5 83t62.5 225t-62.5 224.5t-169.5 81.5h-124z" />
    <glyph glyph-name="dcaron" unicode="&#x10f;" horiz-adv-x="828" 
d="M420 764l138 153l-7 8l-137 -65l-146 65l-7 -8l147 -153h12zM42 700h363q177 0 280 -94t103 -256t-103 -256t-280 -94h-363v10h13q26 0 44.5 18.5t19.5 44.5v560q-3 24 -21 40.5t-43 16.5h-13v10zM269 658v-616h123q72 0 124.5 37.5t80.5 107t28 163.5q0 70 -16.5 127.5
t-46.5 97.5t-73 61.5t-97 21.5h-123z" />
    <glyph glyph-name="Dcroat" unicode="&#x110;" horiz-adv-x="862" 
d="M308 795v66h275v-66h-275zM-90 507l-10 4q24 100 100.5 144.5t205.5 45.5q68 0 229 -1q177 -1 280 -95t103 -255q0 -162 -103 -256t-280 -94h-363v10h13q25 0 43.5 17.5t20.5 42.5v585q-56 -4 -97.5 -17t-68.5 -34.5t-42.5 -43.5t-30.5 -53zM299 656v-614h124
q107 0 169.5 83t62.5 225t-62.5 224.5t-169.5 81.5h-124z" />
    <glyph glyph-name="dcroat" unicode="&#x111;" horiz-adv-x="828" 
d="M279 795v66h274v-66h-274zM42 700h363q177 0 280 -94t103 -256t-103 -256t-280 -94h-363v10h13q26 0 44.5 18.5t19.5 44.5v560q-3 24 -21 40.5t-43 16.5h-13v10zM269 658v-616h123q72 0 124.5 37.5t80.5 107t28 163.5q0 56 -10.5 104.5t-30.5 86t-48 63.5t-64.5 40
t-79.5 14h-123z" />
    <glyph glyph-name="Emacron" unicode="&#x112;" horiz-adv-x="670" 
d="M133 795v66h274v-66h-274zM660 204h10l-47 -204h-581v10h13q26 0 44.5 18.5t19.5 44.5v557q-1 17 -10 30.5t-23.5 21.5t-30.5 8h-13v10h281q21 0 46 3t44.5 7t29.5 8v-175h-11v12q1 30 -11 52.5t-34 35.5t-52 14h-66v-291h159q37 1 61 25.5t24 60.5v9h9v-231h-9v8
q0 37 -24 61t-60 25h-160v-281h195q73 0 122.5 42t73.5 119z" />
    <glyph glyph-name="emacron" unicode="&#x113;" horiz-adv-x="631" 
d="M188 795v66h274v-66h-274zM596 204h10l-46 -204h-518v10h13q26 0 44.5 18.5t19.5 44.5v557q-1 17 -10 30.5t-23.5 21.5t-30.5 8h-13v10h383q21 0 46 3t44.5 7t29.5 8v-175l-10 1v11q0 45 -26.5 72.5t-71.5 29.5h-168v-291h132q37 1 61 25.5t24 60.5v9h10v-231h-10v8
q0 24 -10.5 43.5t-30 30.5t-43.5 12h-133v-281h131q73 0 122.5 42t73.5 119z" />
    <glyph glyph-name="Edotaccent" unicode="&#x116;" horiz-adv-x="670" 
d="M266.5 764q-25.5 0 -43.5 18t-18 43.5t18 44t43.5 18.5t43.5 -18.5t18 -44t-18 -43.5t-43.5 -18zM660 204h10l-47 -204h-581v10h13q26 0 44.5 18.5t19.5 44.5v557q-1 17 -10 30.5t-23.5 21.5t-30.5 8h-13v10h281q21 0 46 3t44.5 7t29.5 8v-175h-11v12q1 45 -25.5 72.5
t-71.5 29.5h-66v-291h159q37 1 61 25.5t24 60.5v9h9v-231h-9v8q0 37 -24 61t-60 25h-160v-281h195q73 0 122.5 42t73.5 119z" />
    <glyph glyph-name="edotaccent" unicode="&#x117;" horiz-adv-x="631" 
d="M322 764q-26 0 -44 18t-18 43.5t18 44t44 18.5t44 -18.5t18 -44t-18 -43.5t-44 -18zM596 204h10l-46 -204h-518v10h13q26 0 44.5 18.5t19.5 44.5v557q-1 17 -10 30.5t-23.5 21.5t-30.5 8h-13v10h383q31 0 68 6t52 12v-175h-10v12q0 45 -26.5 72.5t-71.5 29.5h-168v-291
h132q37 1 61 25.5t24 60.5v9h10v-231h-10v8q0 24 -10.5 43.5t-30 30.5t-43.5 12h-133v-281h131q73 0 122.5 42t73.5 119z" />
    <glyph glyph-name="Eogonek" unicode="&#x118;" horiz-adv-x="670" 
d="M669 -120l6 -6q-5 -33 -27.5 -53t-51 -21t-56 8.5t-44.5 37.5t-13 65q2 24 15 43.5t31.5 30t41.5 15.5h-529v10h13q26 0 44.5 18.5t19.5 44.5v557q-1 17 -10 30.5t-23.5 21.5t-30.5 8h-13v10h281q31 0 68 6t52 12v-175h-11v12q1 45 -25.5 72.5t-71.5 29.5h-66v-291h159
q37 1 61 25.5t24 60.5v9h9v-231h-9v8q0 37 -24 61t-60 25h-160v-281h195q73 0 122.5 42t73.5 119h10l-47 -204h-2q-72 -17 -68 -78q3 -45 41 -59.5t75 17.5z" />
    <glyph glyph-name="eogonek" unicode="&#x119;" horiz-adv-x="631" 
d="M606 -120l6 -6q-5 -33 -27.5 -53t-51 -21t-55.5 8.5t-44 37.5t-14 65q4 36 28.5 59t59.5 30h-466v10h13q26 0 44.5 18.5t19.5 44.5v557q-1 17 -10 30.5t-23.5 21.5t-30.5 8h-13v10h383q31 0 68 6t52 12v-175h-10v12q0 45 -26.5 72.5t-71.5 29.5h-168v-291h132
q37 1 61 25.5t24 60.5v9h10v-231h-10v8q0 24 -10.5 43.5t-30 30.5t-43.5 12h-133v-281h131q73 0 122.5 42t73.5 119h10l-47 -204q-73 -17 -69 -78q4 -45 41.5 -59.5t74.5 17.5z" />
    <glyph glyph-name="Ecaron" unicode="&#x11a;" horiz-adv-x="670" 
d="M273 764l138 153l-6 8l-137 -65l-147 65l-7 -8l148 -153h11zM660 204h10l-47 -204h-581v10h13q26 0 44.5 18.5t19.5 44.5v557q-1 17 -10 30.5t-23.5 21.5t-30.5 8h-13v10h281q21 0 46 3t44.5 7t29.5 8v-175l-11 1v11q1 45 -25.5 72.5t-71.5 29.5h-66v-291h159
q37 1 61 25.5t24 60.5v9h9v-231h-9v8q0 37 -24 61t-60 25h-160v-281h195q73 0 122.5 42t73.5 119z" />
    <glyph glyph-name="ecaron" unicode="&#x11b;" horiz-adv-x="631" 
d="M329 764l138 153l-7 8l-136 -65l-147 65l-7 -8l147 -153h12zM596 204h10l-46 -204h-518v10h13q26 0 44.5 18.5t19.5 44.5v557q-2 25 -20.5 42.5t-43.5 17.5h-13v10h383q21 0 46 3t44.5 7t29.5 8v-175l-10 1v11q0 30 -12 52.5t-34 35.5t-52 14h-168v-291h132q37 1 61 25.5
t24 60.5v9h10v-231h-10v8q0 37 -23.5 61t-60.5 25h-133v-281h131q73 0 122.5 42t73.5 119z" />
    <glyph glyph-name="Gbreve" unicode="&#x11e;" horiz-adv-x="861" 
d="M549 904h12q9 -55 -29.5 -97.5t-95.5 -42.5q-58 0 -96 42.5t-29 97.5h11q11 -25 42.5 -42.5t71.5 -17.5q26 0 50 8.5t40.5 22t22.5 29.5zM1115 -154l2 -10q-115 -45 -211.5 -30t-164.5 73.5t-98 145.5q-94 -39 -203 -39q-180 0 -295 102t-115 262q0 162 116 263t301 101
q80 0 155 -15.5t121 -38.5l2 -172h-8q-24 91 -92.5 137.5t-164.5 46.5q-118 0 -192.5 -90.5t-74.5 -235.5q0 -92 33 -164.5t92.5 -113t135.5 -40.5q62 0 107.5 27t61.5 72v152q0 11 -3 19.5t-9.5 14.5t-16 9t-21.5 3h-16v10h281v-10h-15q-25 0 -38 -12t-12 -33v-159
q1 -66 25.5 -123t67.5 -96.5t108 -55t141 -0.5z" />
    <glyph glyph-name="gbreve" unicode="&#x11f;" horiz-adv-x="836" 
d="M536 904h11q9 -55 -29.5 -97.5t-95.5 -42.5t-95 42.5t-30 97.5h12q10 -25 42 -42.5t71 -17.5t71 17.5t43 42.5zM819 325h-15q-24 0 -37 -11.5t-13 -33.5v-165q-25 -32 -70 -60.5t-115 -48.5t-146 -20q-171 0 -274.5 98.5t-103.5 266.5q0 167 103.5 265t280.5 98
q80 0 155 -15.5t121 -38.5l2 -172h-9q-26 97 -89 140.5t-150 43.5q-121 0 -186 -86.5t-65 -240.5q0 -147 59.5 -232t168.5 -85q57 0 104.5 26.5t65.5 72.5v153q0 22 -13.5 33.5t-38.5 11.5h-16v10h281v-10z" />
    <glyph glyph-name="Gdotaccent" unicode="&#x120;" horiz-adv-x="861" 
d="M435.5 764q-25.5 0 -43.5 18t-18 43.5t18 44t43.5 18.5t43.5 -18.5t18 -44t-18 -43.5t-43.5 -18zM1115 -154l2 -10q-115 -45 -211.5 -30t-164.5 73.5t-98 145.5q-94 -39 -203 -39q-180 0 -295 102t-115 262q0 107 52.5 190t147.5 128.5t217 45.5q80 0 155 -15.5
t121 -38.5l2 -172h-8q-24 91 -92.5 137.5t-164.5 46.5q-118 0 -192.5 -90.5t-74.5 -235.5q0 -140 73 -229t188 -89q62 0 107.5 27t61.5 72v152q0 22 -13 34t-37 12h-16v10h281v-10h-15q-25 0 -38 -12t-12 -33v-159q1 -66 25.5 -123t67.5 -96.5t108 -55t141 -0.5z" />
    <glyph glyph-name="gdotaccent" unicode="&#x121;" horiz-adv-x="836" 
d="M421.5 764q-25.5 0 -43.5 18t-18 43.5t18 44t43.5 18.5t43.5 -18.5t18 -44t-18 -43.5t-43.5 -18zM819 325h-15q-24 0 -37 -11.5t-13 -33.5v-165q-24 -32 -69.5 -60.5t-115.5 -48.5t-146 -20q-171 0 -274.5 98.5t-103.5 266.5q0 167 103.5 265t280.5 98q80 0 155 -15.5
t121 -38.5l2 -172h-9q-26 97 -89 140.5t-150 43.5q-121 0 -186 -86.5t-65 -240.5q0 -147 59.5 -232t168.5 -85q37 0 71 11.5t60.5 34t38.5 53.5v153q0 22 -13.5 33.5t-38.5 11.5h-16v10h281v-10z" />
    <glyph glyph-name="Gcommaaccent" unicode="&#x122;" horiz-adv-x="861" 
d="M1115 -154l2 -10q-115 -45 -211.5 -30t-164.5 73.5t-98 145.5q-94 -39 -203 -39q-180 0 -295 102t-115 262q0 107 52.5 190t147.5 128.5t217 45.5q80 0 155 -15.5t121 -38.5l2 -172h-8q-24 91 -92.5 137.5t-164.5 46.5q-118 0 -192.5 -90.5t-74.5 -235.5q0 -140 73 -229
t188 -89q62 0 107.5 27t61.5 72v152q0 22 -13 34t-37 12h-16v10h281v-10h-15q-25 0 -38 -12t-12 -33v-159q1 -66 25.5 -123t67.5 -96.5t108 -55t141 -0.5zM404 -247l-2 8q26 9 32.5 34t-14.5 49q-15 18 -16.5 40t13.5 38q17 19 45.5 12.5t40.5 -33.5q14 -39 5 -74t-39 -57
t-65 -17z" />
    <glyph glyph-name="gcommaaccent" unicode="&#x123;" horiz-adv-x="836" 
d="M819 325h-15q-24 0 -37 -11.5t-13 -33.5v-165q-39 -51 -129 -90t-202 -39q-171 0 -274.5 98.5t-103.5 266.5q0 167 103.5 265t280.5 98q80 0 155 -15.5t121 -38.5l2 -172h-9q-26 97 -89 140.5t-150 43.5q-121 0 -186 -86.5t-65 -240.5q0 -147 59.5 -232t168.5 -85
q37 0 71 11.5t60.5 34t38.5 53.5v153q0 22 -13.5 33.5t-38.5 11.5h-16v10h281v-10zM385 -251l-2 8q26 9 32.5 34t-14.5 49q-15 18 -16.5 40t13.5 38q17 19 45.5 12.5t40.5 -33.5q14 -39 5 -74t-38.5 -57t-65.5 -17z" />
    <glyph glyph-name="Hbar" unicode="&#x126;" horiz-adv-x="862" 
d="M737 492v-419q1 -26 19.5 -44.5t45.5 -18.5h12v-10h-303v10h12q26 0 45 18t20 44v255h-315v-257q0 -59 -15.5 -107t-46 -83.5t-82 -49.5t-118.5 0l-2 10q37 16 60.5 38t35 53.5t15 62t3.5 76.5v422h-74v42h74v94q-1 26 -19.5 44t-44.5 18h-13v10h304v-10h-13
q-25 0 -44 -17.5t-20 -44.5v-94h315v76q0 117 72.5 186.5t188.5 53.5l2 -10q-30 -10 -51 -28t-32.5 -38.5t-18.5 -49.5t-9 -54t-2 -60v-76h66v-42h-67zM273 370h315v122h-315v-122z" />
    <glyph glyph-name="hbar" unicode="&#x127;" horiz-adv-x="861" 
d="M820 10v-10h-304v10h13q13 0 24.5 5t20 13t14 19.5t5.5 24.5v255h-324v-254q0 -26 19 -44.5t45 -18.5h12l1 -10h-304v10h13q26 0 44.5 18.5t19.5 44.5v419h-64v42h64v94q-1 26 -19.5 44t-44.5 18h-13v10h304l-1 -10h-12q-26 0 -45 -18t-19 -44v-94h324v94q-1 26 -19.5 44
t-44.5 18h-13v10h304v-10h-13q-26 0 -45 -18.5t-19 -44.5v-93h67v-42h-67v-419q0 -26 19 -44.5t45 -18.5h13zM269 369h324v123h-324v-123z" />
    <glyph glyph-name="Imacron" unicode="&#x12a;" horiz-adv-x="456" 
d="M129 795v66h274v-66h-274zM339 616v-543q1 -26 19.5 -44.5t44.5 -18.5h13v-10h-304v10h13q26 0 44.5 18.5t19.5 44.5v586l-95 -4q-29 -2 -49 -8.5t-31.5 -20.5t-13.5 -35q-2 -31 18 -51.5t58 -18.5v-6q-30 -11 -57.5 -5t-45.5 29.5t-17 55.5q2 41 35.5 68.5t105.5 32.5
q13 1 83.5 4t132 7.5t103.5 12.5l2 -10q-43 -7 -60.5 -29t-18.5 -65z" />
    <glyph glyph-name="imacron" unicode="&#x12b;" horiz-adv-x="386" 
d="M59 795v66h274v-66h-274zM345 10l1 -10h-304v10h13q26 0 44.5 18.5t19.5 44.5v555q-1 26 -19.5 44t-44.5 18h-13v10h304l-1 -10h-12q-26 0 -45 -18t-19 -44v-555q0 -26 19 -44.5t45 -18.5h12z" />
    <glyph glyph-name="Iogonek" unicode="&#x12e;" horiz-adv-x="456" 
d="M416 10v-10h-120l3 -1q-72 -17 -68 -78q3 -45 41 -59.5t75 17.5l6 -6q-5 -33 -27.5 -53t-51 -21t-56 9t-44.5 37.5t-13 64.5q2 25 16 44.5t33.5 30.5t43.5 15h-142v10h13q26 0 44.5 18.5t19.5 44.5v586l-95 -4q-89 -4 -94 -64q-2 -31 18 -51.5t58 -18.5v-6
q-30 -11 -57.5 -5t-45.5 29.5t-17 55.5q2 41 35.5 68.5t105.5 32.5q13 1 83.5 4t132 7.5t103.5 12.5l2 -10q-43 -7 -60.5 -29t-18.5 -65v-543q0 -26 19 -44.5t45 -18.5h13z" />
    <glyph glyph-name="iogonek" unicode="&#x12f;" horiz-adv-x="386" 
d="M346 0h-120q-69 -18 -65 -79q3 -46 40.5 -60.5t75.5 18.5l6 -6q-5 -33 -27.5 -53t-51 -21t-56 9t-44.5 37.5t-13 64.5q3 38 29 61t63 29h-141v10h13q26 0 44.5 18.5t19.5 44.5v555q-1 26 -19.5 44t-44.5 18h-13v10h304l-1 -10h-12q-26 0 -45 -18t-19 -44v-555
q0 -26 19 -44.5t45 -18.5h12z" />
    <glyph glyph-name="Idotaccent" unicode="&#x130;" horiz-adv-x="456" 
d="M262.5 764q-25.5 0 -43.5 18t-18 43.5t18 44t43.5 18.5t43.5 -18.5t18 -44t-18 -43.5t-43.5 -18zM339 616v-543q1 -26 19.5 -44.5t44.5 -18.5h13v-10h-304v10h13q26 0 44.5 18.5t19.5 44.5v586l-95 -4q-89 -4 -94 -64q-2 -31 18 -51.5t58 -18.5v-6q-30 -11 -57.5 -5
t-45.5 29.5t-17 55.5q2 41 35.5 68.5t105.5 32.5q13 1 83.5 3.5t132 7.5t103.5 13l2 -10q-43 -7 -60.5 -29t-18.5 -65z" />
    <glyph glyph-name="dotlessi" unicode="&#x131;" horiz-adv-x="386" 
d="M345 10l1 -10h-304v10h13q26 0 44.5 18.5t19.5 44.5v555q-1 26 -19.5 44t-44.5 18h-13v10h304l-1 -10h-12q-26 0 -45 -18t-19 -44v-555q0 -26 19 -44.5t45 -18.5h12z" />
    <glyph glyph-name="IJ" unicode="&#x132;" horiz-adv-x="846" 
d="M339 616v-543q1 -26 19.5 -44.5t44.5 -18.5h13v-10h-304v10h13q26 0 44.5 18.5t19.5 44.5v586l-95 -4q-89 -4 -94 -64q-2 -31 18 -51.5t58 -18.5v-6q-30 -11 -57.5 -5t-45.5 29.5t-17 55.5q2 41 35.5 68.5t105.5 32.5q13 1 83.5 4t132 7.5t103.5 12.5l2 -10
q-43 -7 -60.5 -29t-18.5 -65zM501 700h304v-10h-13q-17 0 -31.5 -8.5t-23.5 -22.5t-9 -32v-547q0 -65 -18 -119.5t-51 -90.5t-76 -54t-96.5 -12.5t-109.5 35.5l3 10q63 -12 109 17t67.5 85.5t21.5 131.5v544q-1 26 -19.5 44.5t-44.5 18.5h-13v10z" />
    <glyph glyph-name="ij" unicode="&#x133;" horiz-adv-x="770" 
d="M345 10l1 -10h-304v10h13q26 0 44.5 18.5t19.5 44.5v555q-1 26 -19.5 44t-44.5 18h-13v10h304l-1 -10h-12q-26 0 -45 -18t-19 -44v-555q0 -26 19 -44.5t45 -18.5h12zM431 700h304v-10h-13q-13 0 -24.5 -5t-20 -13.5t-14 -20t-5.5 -24.5v-597q0 -71 -38 -127t-99 -83
t-130 -20v9q60 25 88.5 86.5t28.5 137.5v594q-1 26 -19.5 44.5t-44.5 18.5h-13v10z" />
    <glyph glyph-name="Kcommaaccent" unicode="&#x136;" horiz-adv-x="761" 
d="M269 628v-555q0 -26 19 -44.5t45 -18.5h12l1 -10h-304v10h13q26 0 44.5 18.5t19.5 44.5v555q-1 17 -9.5 31t-23 22.5t-31.5 8.5h-13v10h304l-1 -10h-12q-26 0 -45 -18t-19 -44zM1047 -160l1 -10q-122 -64 -241 -21t-243 197l-263 324l237 314q13 16 5 31.5t-28 15.5h-10
v9h229v-9h-4q-67 0 -109 -48l-195 -232l272 -338q91 -120 171 -174t178 -59zM390 -208l-2 8q26 9 32.5 34t-14.5 49q-15 18 -16.5 40t13.5 38q17 18 45.5 12t40.5 -33q14 -39 5 -74t-39 -57t-65 -17z" />
    <glyph glyph-name="kcommaaccent" unicode="&#x137;" horiz-adv-x="756" 
d="M269 628v-555q0 -26 19 -44.5t45 -18.5h12l1 -10h-304v10h13q26 0 44.5 18.5t19.5 44.5v555q-1 17 -9.5 31t-23 22.5t-31.5 8.5h-13v10h304l-1 -10h-12q-17 0 -31.5 -8.5t-23.5 -22.5t-9 -31zM426 412l249 -340q46 -60 102 -62v-10h-82q-152 0 -215 83q-179 243 -179 247
l237 314q13 16 5 31.5t-28 15.5h-10v9h229v-9h-4q-67 0 -109 -48zM391 -208l-2 8q26 9 32.5 34t-14.5 49q-15 18 -16.5 40t13.5 38q17 18 45.5 12t40.5 -33q14 -39 5 -74t-38.5 -57t-65.5 -17z" />
    <glyph glyph-name="Lacute" unicode="&#x139;" horiz-adv-x="427" 
d="M184 762l-7 7q43 74 144 164q48 -25 67 -81q-102 -65 -204 -90zM1022 -98l7 -8q-37 -52 -85 -83t-92 -44t-103.5 -7t-102 15.5t-106.5 36t-97.5 42.5t-93.5 47l-25 12.5l-22 11l-23 11.5q-40 20 -69.5 31.5t-75.5 22t-92 10.5v10h13q17 0 31.5 8t23 22.5t9.5 32.5v554
q-1 27 -19.5 45t-44.5 18h-13v10h304l-1 -10h-10q-28 0 -47 -18t-19 -45v-580q0 -17 3.5 -28.5t13 -20.5t25.5 -14q132 -43 228.5 -69t193.5 -42.5t168.5 -9t120.5 38.5z" />
    <glyph glyph-name="lacute" unicode="&#x13a;" horiz-adv-x="616" 
d="M184 762l-7 7q43 74 144 164q48 -25 68 -81q-103 -65 -205 -90zM596 204h10l-46 -204h-518v10h13q26 0 44.5 18.5t19.5 44.5v554q-1 17 -9.5 31.5t-23 23t-31.5 8.5h-13v10h304l-1 -10h-12q-26 0 -45 -18.5t-19 -44.5v-584h131q73 0 122.5 42t73.5 119z" />
    <glyph glyph-name="Lcommaaccent" unicode="&#x13b;" horiz-adv-x="427" 
d="M1022 -98l7 -8q-30 -41 -65.5 -69t-71 -43.5t-78 -20t-79.5 -2t-83 14.5t-81 24.5t-81 33t-76 36t-71.5 37t-63.5 31.5q-40 20 -69.5 31.5t-75.5 22t-92 10.5v10h13q26 0 44.5 18t19.5 45v554q-1 27 -19.5 45t-44.5 18h-13v10h304l-1 -10h-10q-18 0 -33 -8.5t-24 -22.5
t-9 -32v-580q0 -17 3.5 -28.5t13 -20.5t25.5 -14q132 -43 228.5 -69t193.5 -42.5t168.5 -9t120.5 38.5zM211 -295l-3 8q27 9 33 34t-14 49q-16 18 -17.5 40t13.5 38q18 18 46 11.5t40 -32.5q14 -39 5.5 -74t-38.5 -57t-65 -17z" />
    <glyph glyph-name="lcommaaccent" unicode="&#x13c;" horiz-adv-x="616" 
d="M596 204h10l-46 -204h-518v10h13q26 0 44.5 18.5t19.5 44.5v554q-1 26 -19.5 44.5t-44.5 18.5h-13v10h304l-1 -10h-12q-26 0 -45 -18.5t-19 -44.5v-584h131q73 0 122.5 42t73.5 119zM285 -247l-3 8q27 9 33 34t-14 49q-15 18 -16.5 40t13.5 38q17 19 45.5 12.5
t39.5 -33.5q15 -39 6 -74t-39 -57t-65 -17z" />
    <glyph glyph-name="Lcaron" unicode="&#x13d;" horiz-adv-x="488" 
d="M407 524l-3 8q27 10 33 35t-14 49q-16 17 -17.5 39.5t13.5 38.5q18 18 46 12t40 -33q15 -39 6 -74t-39 -57t-65 -18zM1022 -98l7 -8q-31 -38 -66 -64t-69.5 -40t-74 -18t-75 -1.5t-78 13.5t-77.5 23.5t-78 31.5t-75.5 35t-75 36.5t-70.5 33.5q-122 56 -248 56v10h13
q12 0 24 5t20.5 13.5t13.5 20t6 24.5v554q-1 27 -19.5 45t-44.5 18h-13v10h304l-1 -10h-12q-27 0 -45.5 -18t-18.5 -45v-574q0 -30 8 -45.5t34 -23.5q117 -40 190.5 -63t143.5 -40t112 -22t90 -1.5t85.5 14t89.5 30.5z" />
    <glyph glyph-name="lcaron" unicode="&#x13e;" horiz-adv-x="616" 
d="M407 524l-3 8q27 10 33 35t-14 49q-16 17 -17.5 39.5t13.5 38.5q18 18 46 12t40 -33q15 -39 6 -74t-39 -57t-65 -18zM596 204h10l-46 -204h-518v10h13q26 0 44.5 18.5t19.5 44.5v554q-1 26 -19.5 44.5t-44.5 18.5h-13v10h304l-1 -10h-12q-26 0 -45 -18.5t-19 -44.5v-584
h131q73 0 122.5 42t73.5 119z" />
    <glyph glyph-name="Ldot" unicode="&#x13f;" horiz-adv-x="548" 
d="M1022 -98l7 -8q-31 -38 -66 -64t-69.5 -40t-74 -18t-75 -1.5t-78 13.5t-77.5 23.5t-78 31.5t-75.5 35t-75 36.5t-70.5 33.5q-122 56 -248 56v10h13q26 0 44.5 18.5t19.5 44.5v554q-1 27 -19.5 45t-44.5 18h-13v10h304l-1 -10h-12q-27 0 -45.5 -18t-18.5 -45v-574
q0 -30 8 -45.5t34 -23.5q117 -40 190.5 -63t143.5 -40t112 -22t90 -1.5t85.5 14t89.5 30.5zM416 357q-26 0 -44 18.5t-18 44t18 44t44 18.5t44 -18.5t18 -44t-18 -44t-44 -18.5z" />
    <glyph glyph-name="ldot" unicode="&#x140;" horiz-adv-x="616" 
d="M596 204h10l-46 -204h-518v10h13q26 0 44.5 18.5t19.5 44.5v554q-1 26 -19.5 44.5t-44.5 18.5h-13v10h304l-1 -10h-12q-26 0 -45 -18.5t-19 -44.5v-584h131q73 0 122.5 42t73.5 119zM416 357q-26 0 -44 18.5t-18 44t18 44t44 18.5t44 -18.5t18 -44t-18 -44t-44 -18.5z
" />
    <glyph glyph-name="Lslash" unicode="&#x141;" horiz-adv-x="463" 
d="M1030 -98l6 -8q-37 -46 -82 -74t-85 -41t-94.5 -9t-92.5 11.5t-98 31t-92.5 38.5t-93.5 45q-68 34 -101 48q-122 56 -248 56v10h13q26 0 45 18.5t19 44.5v199l-63 -36l-21 38l84 49v304q0 27 -19 45t-45 18h-13v10h304v-10h-13q-26 0 -44.5 -18t-19.5 -45v-218l113 65
l21 -38l-134 -77v-306q0 -30 8 -45.5t34 -23.5q118 -40 191.5 -63t143 -40t112 -22t90 -1.5t85 14t90.5 30.5z" />
    <glyph glyph-name="lslash" unicode="&#x142;" horiz-adv-x="616" 
d="M596 204h10l-46 -204h-518v10h13q26 0 44.5 18.5t19.5 44.5v208l-80 -45l-21 38l101 58v295q-1 26 -19.5 44.5t-44.5 18.5h-13v10h304l-1 -10h-12q-26 0 -45 -18.5t-19 -44.5v-208l96 55l21 -38l-117 -68v-325h131q73 0 122.5 42t73.5 119z" />
    <glyph glyph-name="Nacute" unicode="&#x143;" horiz-adv-x="865" 
d="M401 762l-7 7q43 74 144 164q48 -25 68 -81q-103 -65 -205 -90zM1103 -132l4 -10q-185 -90 -380 118l-474 503v-409q0 -25 18 -42.5t43 -17.5h19v-10h-303v10h18q26 0 44 17.5t18 43.5v561q-14 16 -25 28.5t-28 29.5t-31.5 30t-34 28t-37 25t-38.5 18.5t-41 11.5t-42 1.5
t-43 -8.5l-4 10q174 101 380 -118l447 -475v416q-1 26 -19 43.5t-43 17.5h-18v10h303v-10h-19q-25 0 -43 -17.5t-19 -42.5v-569l16 -16q6 -6 18.5 -20.5t22.5 -25t25.5 -26.5t29 -28t32 -26t35 -23.5t37.5 -18t41.5 -12t43.5 -3.5t47 6z" />
    <glyph glyph-name="nacute" unicode="&#x144;" horiz-adv-x="865" 
d="M407 762l-7 7q43 74 144 164q48 -25 68 -81q-103 -65 -205 -90zM533 700h303v-10h-19q-25 0 -43 -17.5t-19 -42.5v-516q0 -34 3 -66t6 -47l3 -15h-9l-505 481v-397q0 -16 8.5 -30t22.5 -22t30 -8h19v-10h-303v10h18q26 0 44 17.5t18 43.5v519q0 33 -3 64.5t-6 45.5l-2 15
h9l505 -481v395q-1 26 -19 43.5t-43 17.5h-18v10z" />
    <glyph glyph-name="Ncommaaccent" unicode="&#x145;" horiz-adv-x="865" 
d="M1103 -132l4 -10q-185 -90 -380 118l-474 503v-409q0 -25 18 -42.5t43 -17.5h19v-10h-303v10h18q26 0 44 17.5t18 43.5v561q-14 16 -25 28.5t-28 29.5t-31.5 30t-34 28t-37 25t-38.5 18.5t-41 11.5t-42 1.5t-43 -8.5l-4 10q174 101 380 -118l447 -475v416q-1 26 -19 43.5
t-43 17.5h-18v10h303v-10h-19q-25 0 -43 -17.5t-19 -42.5v-569l16 -16q6 -6 18.5 -20.5t22.5 -25t25.5 -26.5t29 -28t32 -26t35 -23.5t37.5 -18t41.5 -12t43.5 -3.5t47 6zM431 -247l-3 8q27 9 33 34t-14 49q-15 18 -16.5 40t13.5 38q17 19 45.5 12.5t39.5 -33.5
q15 -39 6 -74t-39 -57t-65 -17z" />
    <glyph glyph-name="ncommaaccent" unicode="&#x146;" horiz-adv-x="865" 
d="M533 700h303v-10h-19q-25 0 -43 -17.5t-19 -42.5v-516q0 -34 3 -66t6 -47l3 -15h-9l-505 481v-397q0 -25 18 -42.5t43 -17.5h19v-10h-303v10h18q26 0 44 17.5t18 43.5v519q0 33 -3 64.5t-6 45.5l-2 15h9l505 -481v395q-1 26 -19 43.5t-43 17.5h-18v10zM427 -247l-3 8
q27 9 33 34t-14 49q-16 18 -17 40t13 38q18 19 46 12.5t40 -33.5q15 -39 6 -74t-39 -57t-65 -17z" />
    <glyph glyph-name="Ncaron" unicode="&#x147;" horiz-adv-x="865" 
d="M417 764l139 153l-7 8l-137 -65l-147 65l-6 -8l147 -153h11zM1103 -132l4 -10q-185 -90 -380 118l-474 503v-409q0 -25 18 -42.5t43 -17.5h19v-10h-303v10h18q26 0 44 17.5t18 43.5v561q-14 16 -25 28.5t-28 29.5t-32 30t-34 28t-36.5 25t-38.5 18.5t-41 11.5t-42 1.5
t-43 -8.5l-4 10q174 101 380 -118l447 -475v416q-1 26 -19 43.5t-43 17.5h-18v10h303v-10h-19q-25 0 -43 -17.5t-19 -42.5v-569l16 -16q6 -6 18.5 -20.5t22.5 -25t25.5 -26.5t29 -28t32 -26t35 -23.5t37.5 -18t41.5 -12t43.5 -3.5t47 6z" />
    <glyph glyph-name="ncaron" unicode="&#x148;" horiz-adv-x="865" 
d="M423 764l139 153l-7 8l-137 -65l-147 65l-6 -8l147 -153h11zM533 700h303v-10h-19q-25 0 -43 -17.5t-19 -42.5v-516q0 -34 3 -66t6 -47l3 -15h-9l-505 481v-397q0 -16 8.5 -30t22.5 -22t30 -8h19v-10h-303v10h18q26 0 44 17.5t18 43.5v519q0 33 -3 64.5t-6 45.5l-2 15h9
l505 -481v395q-1 26 -19 43.5t-43 17.5h-18v10z" />
    <glyph glyph-name="Eng" unicode="&#x14a;" horiz-adv-x="862" 
d="M539 700h288v-11h-18q-22 0 -38.5 -15.5t-16.5 -37.5v-651q0 -64 -31.5 -109.5t-81.5 -64.5t-109 -11l-5 8q32 23 48.5 42t28 59.5t11.5 104.5v104l-373 358v-408q0 -15 8 -28.5t21.5 -21t29.5 -7.5h17v-11h-288v11h17q23 0 39.5 15.5t17.5 37.5v549q-17 19 -30 33
t-34.5 35.5t-40 37t-42.5 33t-47 28t-48 18t-50.5 6.5t-50.5 -9l-5 9q174 102 380 -117l479 -458v403q-1 23 -18 40t-41 17h-17v11z" />
    <glyph glyph-name="eng" unicode="&#x14b;" horiz-adv-x="870" 
d="M533 700h288v-11h-17q-23 0 -39.5 -15.5t-16.5 -37.5v-651q0 -64 -31.5 -109.5t-81.5 -64.5t-108 -11l-6 8q33 23 49 42t27.5 59.5t11.5 104.5v104l-373 355v-405q1 -23 18 -40t41 -17h17v-11h-288v11h18q23 0 40 16.5t18 40.5v522q0 33 -3 64.5t-6 45.5l-3 15h10
l511 -486v403q-1 23 -18 40t-41 17h-17v11z" />
    <glyph glyph-name="Omacron" unicode="&#x14c;" horiz-adv-x="930" 
d="M333 804v65h274v-65h-274zM343 447h-11q-14 30 -17 64.5t7 68t31 62t59 48t88 24.5q54 6 110.5 -5.5t108.5 -41t92.5 -72.5t65 -105t24.5 -133q0 -167 -120.5 -269t-313.5 -102q-194 0 -315.5 102t-121.5 268q0 124 70.5 215.5t190.5 124.5l6 -9q-51 -43 -77 -126
t-26 -179q0 -162 75 -258t197 -96q121 0 195.5 90.5t74.5 239.5q0 90 -27.5 162.5t-82 114.5t-127.5 37q-62 -4 -103 -39t-53.5 -84.5t0.5 -101.5z" />
    <glyph glyph-name="omacron" unicode="&#x14d;" horiz-adv-x="879" 
d="M306 804v65h275v-65h-275zM440 714q185 0 294 -98t109 -266t-109 -266t-294 -98t-294 98t-109 266q0 111 49.5 193.5t140.5 126.5t213 44zM440 28q110 0 174.5 86.5t64.5 235.5q0 98 -29 171t-83 112t-127 39q-110 0 -174.5 -86.5t-64.5 -235.5t64.5 -235.5t174.5 -86.5z
" />
    <glyph glyph-name="Ohungarumlaut" unicode="&#x150;" horiz-adv-x="930" 
d="M369 774l-9 5q27 62 121 164q51 -17 75 -65q-88 -69 -187 -104zM544 774l-8 5q28 66 120 164q52 -17 76 -65q-90 -71 -188 -104zM343 447h-11q-14 30 -17 64.5t7 68t31 62t59 48t88 24.5q54 6 110.5 -5.5t108.5 -41t92.5 -72.5t65 -105t24.5 -133q0 -167 -120.5 -269
t-313.5 -102q-194 0 -315.5 102t-121.5 268q0 124 71 215.5t190 124.5l6 -9q-51 -43 -77 -126t-26 -179q0 -162 75 -258t197 -96q121 0 195.5 90.5t74.5 239.5q0 90 -27 162.5t-82 114.5t-128 37q-62 -4 -103 -39t-53.5 -84.5t0.5 -101.5z" />
    <glyph glyph-name="ohungarumlaut" unicode="&#x151;" horiz-adv-x="879" 
d="M343 774l-9 5q27 62 120 164q52 -17 76 -65q-88 -69 -187 -104zM518 774l-8 5q28 66 120 164q51 -17 75 -65q-90 -71 -187 -104zM440 714q185 0 294 -98t109 -266t-109 -266t-294 -98t-294 98t-109 266q0 111 49.5 193.5t140.5 126.5t213 44zM440 28q110 0 174.5 86.5
t64.5 235.5t-64.5 235.5t-174.5 86.5t-174.5 -86.5t-64.5 -235.5t64.5 -235.5t174.5 -86.5z" />
    <glyph glyph-name="OE" unicode="&#x152;" horiz-adv-x="1051" 
d="M1040 204h10l-46 -204h-405q-26 0 -54 -2q-10 -1 -23.5 -2.5t-26 -3t-26.5 -3t-29.5 -2.5t-29.5 -1q-177 0 -283 98.5t-106 266.5t106.5 265.5t289.5 97.5q49 0 113 -9q37 -5 68 -5h211q31 0 67.5 6t51.5 12v-175h-11v12q0 45 -26.5 72.5t-71.5 29.5h-131v-291h141
q24 1 43.5 12t30 30.5t10.5 43.5v9h10v-231h-10v8q1 37 -23 61t-60 25h-142v-281h157q73 0 122 42t73 119zM539 88v523q0 24 -35.5 42.5t-84.5 18.5q-71 0 -125 -37.5t-85 -111t-32 -173.5q0 -98 30 -171.5t85 -112t126 -38.5q49 0 85 18.5t36 41.5z" />
    <glyph glyph-name="oe" unicode="&#x153;" horiz-adv-x="1076" 
d="M1041 204h10l-46 -204h-382q-26 0 -54 -2q-11 -1 -29.5 -3t-33 -4t-34.5 -3.5t-38 -1.5q-177 0 -283 98.5t-106 266.5t106.5 265.5t289.5 97.5q49 0 113 -9q37 -5 68 -5h249q31 0 67.5 6t51.5 12v-175h-11v12q0 45 -26.5 72.5t-71.5 29.5h-169v-291h135q24 1 43.5 12
t30 30.5t10.5 43.5v9h10v-231h-10v8q1 37 -23 61t-60 25h-136v-281h133q73 0 122.5 42t73.5 119zM564 88v523q0 24 -35.5 42.5t-85.5 18.5q-107 0 -174 -86t-67 -236q-1 -98 29.5 -171.5t85 -112t126.5 -38.5q49 0 85 18.5t36 41.5z" />
    <glyph glyph-name="Racute" unicode="&#x154;" horiz-adv-x="731" 
d="M354 762l-7 7q43 74 144 164q48 -25 68 -81q-103 -65 -205 -90zM45 700h343q38 0 73 -5.5t69 -19t58.5 -34.5t40 -53.5t15.5 -73.5q0 -87 -57 -142t-135 -49q26 -14 49 -32t47 -44.5t40.5 -46.5t46.5 -59t48 -61q44 -57 84.5 -97.5t89.5 -74t105.5 -50.5t122.5 -18v-10
q-41 -20 -89.5 -30.5t-108 -7t-117 25t-118.5 71.5t-110 125q-25 36 -93 138t-88 131q-35 54 -56 59v10h2.5h3.5h4h5h5.5h5h5.5q20 1 40.5 6t42.5 17t38.5 36t22.5 57q5 25 4 48q-3 65 -41.5 102.5t-94.5 37.5h-76v-583q0 -26 19 -44.5t45 -18.5h13v-10h-304v10h13
q25 0 44 18t20 44v555q-1 17 -9.5 31.5t-23 23t-31.5 8.5h-13v10z" />
    <glyph glyph-name="racute" unicode="&#x155;" horiz-adv-x="746" 
d="M350 762l-7 7q43 74 144 164q48 -25 68 -81q-103 -65 -205 -90zM45 700h343q48 0 89 -10t75 -31.5t54 -59t20 -88.5q0 -70 -42 -126t-122 -64q30 -9 57 -34t45 -54q61 -97 101 -147q33 -42 59 -58.5t65 -17.5v-10h-98q-85 0 -142 23.5t-93 80.5q-18 29 -46 87.5t-37 83.5
q-27 60 -68 67v10h31q45 0 79.5 27t46.5 88q5 25 4 49q-3 69 -34.5 104t-83.5 36q-13 1 -43 0.5t-33 -0.5v-583q1 -26 19.5 -44.5t44.5 -18.5h13v-10h-304v10h13q26 0 44.5 18t19.5 44v555q-1 26 -19.5 44.5t-44.5 18.5h-13v10z" />
    <glyph glyph-name="Rcommaaccent" unicode="&#x156;" horiz-adv-x="731" 
d="M45 700h343q38 0 73 -5.5t69 -19t58.5 -34.5t40 -53.5t15.5 -73.5q0 -87 -57 -142t-135 -49q22 -12 43 -28t37 -32t36.5 -40t35 -42.5t38.5 -49t41 -51.5q35 -45 66.5 -79.5t70 -65.5t78 -51t87 -31.5t100.5 -12.5v-10q-41 -20 -89.5 -30.5t-108 -7t-117 25t-118.5 71.5
t-110 125q-25 36 -93 138t-88 130q-35 55 -56 60v10h2.5h3.5h4h5h5.5h5h5.5q20 1 40.5 6t42.5 17t38.5 36t22.5 57q5 25 4 48q-3 65 -41.5 102.5t-94.5 37.5h-76v-583q0 -26 19 -44.5t45 -18.5h13v-10h-304v10h13q25 0 44 18t20 44v555q-1 26 -19.5 44.5t-44.5 18.5h-13v10z
M391 -242l-3 8q27 9 33 34t-14 49q-15 18 -16.5 40t12.5 38q18 19 46.5 12.5t39.5 -33.5q15 -39 6 -74t-39 -57t-65 -17z" />
    <glyph glyph-name="rcommaaccent" unicode="&#x157;" horiz-adv-x="746" 
d="M45 700h343q48 0 89 -10t75 -31.5t54 -59t20 -88.5q0 -70 -42 -126t-122 -64q20 -6 40 -21t35 -31.5t27 -35.5q61 -97 101 -147q22 -29 40 -44.5t38 -23.5t46 -8v-10h-98q-85 0 -142 23.5t-93 80.5q-18 29 -46 87.5t-37 83.5q-27 60 -68 67v10h31q21 0 40 6t36.5 19
t30.5 36t19 54q5 25 4 49q-3 69 -34.5 104t-83.5 36q-13 1 -43 0.5t-33 -0.5v-583q0 -17 9 -31.5t23.5 -23t31.5 -8.5h13v-10h-304v10h13q17 0 31.5 8.5t23 22.5t9.5 31v555q-1 26 -19.5 44.5t-44.5 18.5h-13v10zM392 -247l-3 8q27 9 33 34t-14 49q-16 18 -17.5 40t13.5 38
q17 19 45.5 12.5t40.5 -33.5q14 -39 5.5 -74t-38.5 -57t-65 -17z" />
    <glyph glyph-name="Rcaron" unicode="&#x158;" horiz-adv-x="731" 
d="M371 764l138 153l-7 8l-136 -65l-147 65l-7 -8l147 -153h12zM45 700h343q38 0 73 -5.5t69 -19t58.5 -34.5t40 -53.5t15.5 -73.5q0 -87 -57 -142t-135 -49q22 -12 43 -28t37 -32t36.5 -40t35 -42.5t38.5 -49t41 -51.5q35 -45 66.5 -79.5t70 -65.5t78 -51t87 -31.5
t100.5 -12.5v-10q-41 -20 -89.5 -30.5t-108 -7t-117 25t-118.5 71.5t-110 125q-25 36 -93 138t-88 130q-35 55 -56 60v10h3.5h5.5h6.5h8h7.5q20 1 40.5 6t42.5 17t38.5 36t22.5 57q5 25 4 48q-3 65 -41.5 102.5t-94.5 37.5h-76v-583q0 -26 19 -44.5t45 -18.5h13v-10h-304v10
h13q25 0 44 18t20 44v555q-1 26 -19.5 44.5t-44.5 18.5h-13v10z" />
    <glyph glyph-name="rcaron" unicode="&#x159;" horiz-adv-x="746" 
d="M367 764l138 153l-7 8l-137 -65l-146 65l-7 -8l147 -153h12zM45 700h343q48 0 89 -10t75 -31.5t54 -59t20 -88.5q0 -70 -42 -126t-122 -64q20 -6 40 -21t35 -31.5t27 -35.5q61 -97 101 -147q17 -22 30.5 -35.5t28 -23t30 -13.5t35.5 -4v-10h-98q-85 0 -142 23.5t-93 80.5
q-18 29 -46 87.5t-37 83.5q-27 60 -68 67v10h31q21 0 40 6t36.5 19t30.5 36t19 54q5 25 4 49q-3 69 -34.5 104t-83.5 36q-13 1 -43 0.5t-33 -0.5v-583q1 -26 19.5 -44.5t44.5 -18.5h13v-10h-304v10h13q26 0 44.5 18t19.5 44v555q-1 26 -19.5 44.5t-44.5 18.5h-13v10z" />
    <glyph glyph-name="Sacute" unicode="&#x15a;" horiz-adv-x="623" 
d="M307 762l-7 7q43 74 144 164q48 -25 67 -81q-102 -65 -204 -90zM281 483l187 -122q57 -37 89 -87t37 -100t-13.5 -100t-56 -88t-96.5 -62t-130 -24q-72 0 -130 24.5t-90.5 65.5t-45.5 91.5t0.5 105.5t52.5 104l9 -7q-25 -40 -34.5 -81.5t-3.5 -78t25 -69.5t47.5 -56.5
t67 -37t81.5 -13.5q54 0 96 20.5t61.5 54t22 72t-22 79.5t-71.5 72l-170 114q-108 69 -98 180q6 77 61.5 125.5t148.5 48.5q57 0 138 -10h62l-13 -147h-9q-1 52 -40 83.5t-103 31.5q-38 0 -67.5 -12.5t-45.5 -34.5t-17 -50t16.5 -48.5t54.5 -43.5z" />
    <glyph glyph-name="sacute" unicode="&#x15b;" horiz-adv-x="578" 
d="M281 762l-7 7q43 74 144 164q48 -25 68 -81q-103 -65 -205 -90zM251 483l191 -124q96 -56 90 -166q-5 -98 -75 -152.5t-190 -54.5q-68 0 -125.5 16.5t-84.5 44.5q-12 32 -4 84t28 85h9q-7 -79 46.5 -134t141.5 -54q64 1 101 32.5t37 80.5q0 59 -80 103l-174 115
q-52 30 -76.5 77t-18.5 103q6 79 61.5 127t148.5 48q55 0 136 -10h63l-13 -147h-10q0 52 -38.5 83.5t-102.5 31.5q-38 0 -67.5 -13t-45.5 -34.5t-18 -48.5q-3 -50 70 -93z" />
    <glyph glyph-name="Scedilla" unicode="&#x15e;" horiz-adv-x="623" 
d="M281 483l187 -122q55 -35 87 -83t38 -96.5t-9 -97t-48.5 -87t-87.5 -65t-119 -31.5l-42 -48q15 5 33.5 5t37.5 -5t31.5 -21t11.5 -40q-3 -50 -57.5 -75t-112.5 -5l1 10q36 0 66 17.5t32 53.5q1 20 -15 31.5t-37 11t-40 -6.5l-5 10l47 61q-85 4 -147 43t-87.5 95.5
t-16.5 125t56 127.5l9 -7q-30 -48 -37.5 -97.5t7 -91.5t43.5 -75.5t73.5 -52.5t96.5 -19q54 0 96 20.5t61.5 54t22 72t-22 79.5t-71.5 72l-170 114q-108 69 -98 180q6 77 61.5 125.5t148.5 48.5q57 0 138 -10h62l-13 -147h-9q-1 52 -40 83.5t-103 31.5q-38 0 -67.5 -12.5
t-45.5 -34.5t-17 -50t16.5 -48.5t54.5 -43.5z" />
    <glyph glyph-name="scedilla" unicode="&#x15f;" horiz-adv-x="578" 
d="M251 483l191 -124q96 -56 90 -166q-5 -91 -65.5 -144.5t-165.5 -61.5l-42 -48q15 5 33.5 5t37.5 -5t31.5 -21t11.5 -40q-3 -50 -57.5 -75t-112.5 -5l1 10q36 0 66 17.5t32 53.5q1 20 -15 31.5t-37 11t-40 -6.5l-5 10l47 61q-64 2 -116.5 18.5t-78.5 42.5q-12 32 -4 84
t28 85h9q-7 -79 46.5 -134t141.5 -54q64 1 101 32.5t37 80.5q0 59 -80 103l-174 115q-52 30 -76.5 77t-18.5 103q6 79 61.5 127t148.5 48q55 0 136 -10h63l-13 -147h-10q0 52 -38.5 83.5t-102.5 31.5q-38 0 -67.5 -13t-45.5 -34.5t-18 -48.5q-3 -50 70 -93z" />
    <glyph glyph-name="Scaron" unicode="&#x160;" horiz-adv-x="623" 
d="M323 764l139 153l-7 8l-137 -65l-147 65l-6 -8l147 -153h11zM281 483l187 -122q57 -37 89 -87t37 -100t-13.5 -100t-56 -88t-96.5 -62t-130 -24q-72 0 -130 24.5t-90.5 65.5t-45.5 91.5t0.5 105.5t52.5 104l9 -7q-19 -30 -29 -61.5t-11 -60t6 -56.5t20.5 -51.5t34 -43.5
t45 -33.5t55 -21.5t62.5 -8q54 0 96 20.5t61.5 54t22 72t-22 79.5t-71.5 72l-170 114q-108 69 -98 180q6 77 61.5 125.5t148.5 48.5q57 0 138 -10h62l-13 -147h-9q-1 52 -40 83.5t-103 31.5q-57 0 -92.5 -27.5t-37.5 -69.5q-1 -28 16.5 -48.5t54.5 -43.5z" />
    <glyph glyph-name="scaron" unicode="&#x161;" horiz-adv-x="578" 
d="M298 764l138 153l-7 8l-137 -65l-146 65l-7 -8l147 -153h12zM251 483l191 -124q96 -56 90 -166q-5 -98 -75 -152.5t-190 -54.5q-68 0 -125.5 16.5t-84.5 44.5q-12 32 -4 84t28 85h9q-7 -79 46.5 -134t141.5 -54q64 1 101 32.5t37 80.5q0 59 -80 103l-174 115
q-52 30 -76.5 77t-19.5 103q7 79 62.5 127t148.5 48q55 0 136 -10h63l-13 -147h-10q0 52 -38.5 83.5t-102.5 31.5q-38 0 -67.5 -13t-45.5 -34.5t-18 -48.5q-3 -50 70 -93z" />
    <glyph glyph-name="Tcedilla" unicode="&#x162;" horiz-adv-x="698" 
d="M95 701h471q31 0 67.5 6t51.5 12v-174h-10v12q0 30 -12 53t-35 35.5t-53 13.5h-135v-587q1 -26 19.5 -44t44.5 -18h13v-10h-133l-42 -48q15 5 33.5 5t37.5 -5t31.5 -21t11.5 -40q-3 -50 -57.5 -75t-112.5 -5l1 10q36 0 66 17.5t32 53.5q1 20 -15 31.5t-37 11t-40 -6.5
l-5 10l48 62h-123v10h13q26 0 44.5 18t19.5 43v588h-195q-41 0 -72 -15t-47.5 -40t-15.5 -60t24 -72l-10 -5q-30 29 -42 62.5t-4 63.5t29 54.5t57.5 39t80.5 14.5z" />
    <glyph glyph-name="tcedilla" unicode="&#x163;" horiz-adv-x="666" 
d="M132 701h403q31 0 67.5 6t50.5 12v-174h-10v12q0 30 -12 53t-34.5 35.5t-53.5 13.5h-134v-587q1 -26 19.5 -44t44.5 -18h12l1 -10h-158l-41 -47q15 5 33.5 5t37.5 -5t31.5 -21t11.5 -40q-3 -50 -57.5 -75t-112.5 -5l1 10q36 0 66 17.5t32 53.5q1 20 -15 31.5t-37 11
t-40 -6.5l-5 10l47 61h-98v10h13q25 0 43.5 18t20.5 43v588h-135q-46 -1 -73 -29t-27 -73v-12h-10v174q15 -6 51 -12t67 -6z" />
    <glyph glyph-name="Tcaron" unicode="&#x164;" horiz-adv-x="698" 
d="M372 739l138 153l-7 8l-136 -65l-147 65l-7 -8l147 -153h12zM95 701h471q31 0 67.5 6t51.5 12v-174h-10v12q0 30 -12 53t-35 35.5t-53 13.5h-135v-587q1 -26 19.5 -44t44.5 -18h13v-10h-304v10h13q26 0 44.5 18t19.5 43v588h-195q-41 0 -72 -15t-47.5 -39.5t-15.5 -60
t24 -72.5l-10 -5q-30 29 -42 62.5t-4 63.5t29 54.5t57.5 39t80.5 14.5z" />
    <glyph glyph-name="tcaron" unicode="&#x165;" horiz-adv-x="666" 
d="M340 764h-11l-148 153l7 8l147 -65l137 65l6 -8zM132 701h403q31 0 67.5 6t50.5 12v-174h-10v12q0 30 -12 53t-34.5 35.5t-53.5 13.5h-134v-587q1 -26 19.5 -44t44.5 -18h12l1 -10h-304v10h13q25 0 43.5 18t20.5 43v588h-135q-46 -1 -73 -29t-27 -73v-12h-10v174
q14 -6 50.5 -12t67.5 -6z" />
    <glyph glyph-name="Tbar" unicode="&#x166;" horiz-adv-x="698" 
d="M95 701h471q21 0 45.5 3t44.5 7t29 8v-174h-10v12q0 45 -27 73t-73 29h-135v-269h155v-39h-155v-279q1 -17 9.5 -31t23 -22.5t31.5 -8.5h13v-10h-304v10h13q26 0 44.5 18t19.5 43v280h-154v39h154v269h-195q-41 0 -72 -15t-47.5 -40t-15.5 -60t24 -72l-10 -5
q-30 29 -42 62.5t-4 63.5t29 54.5t57.5 39t80.5 14.5z" />
    <glyph glyph-name="tbar" unicode="&#x167;" horiz-adv-x="666" 
d="M132 701h403q15 0 33.5 2t34.5 4.5t29.5 5.5t20.5 6v-174h-10v12q0 45 -27 73t-73 29h-134v-257h155v-42h-155v-288q1 -26 19.5 -44t44.5 -18h12l1 -10h-304v10h13q25 0 43.5 18t20.5 43v289h-155v42h155v257h-135q-46 -1 -73 -29t-27 -73v-12h-10v174q14 -6 50.5 -12
t67.5 -6z" />
    <glyph glyph-name="Umacron" unicode="&#x16a;" horiz-adv-x="824" 
d="M662 247v363q0 135 76 218.5t199 73.5v-10q-39 -3 -71.5 -16.5t-57 -37.5t-41.5 -57.5t-25.5 -76.5t-8.5 -94v-357q-2 -126 -81 -196.5t-222 -70.5q-150 0 -237 72.5t-86 193.5v389q0 21 -15.5 35t-37.5 14h-16v10h288v-10h-16q-15 0 -27 -6.5t-19 -17.5t-7 -24v-382
q0 -106 55 -168.5t146 -61.5q90 -1 147 57.5t57 159.5zM335 795v66h274v-66h-274z" />
    <glyph glyph-name="umacron" unicode="&#x16b;" horiz-adv-x="821" 
d="M317 795v66h274v-66h-274zM581 700h209v-10h-17q-21 0 -36.5 -13.5t-15.5 -33.5v-390q0 -123 -77 -195t-211 -72q-158 0 -242 70.5t-84 195.5v388q0 15 -7.5 26t-19.5 17.5t-26 6.5h-16v10h288v-10h-16q-22 0 -37 -13.5t-16 -34.5v-382q0 -106 52 -168t142 -62
q92 0 145 58.5t54 158.5v395q0 21 -15.5 34.5t-37.5 13.5h-16v10z" />
    <glyph glyph-name="Uring" unicode="&#x16e;" horiz-adv-x="824" 
d="M469 931q47 0 77.5 -23t30.5 -59q0 -37 -31 -61t-77.5 -24t-77.5 23.5t-31 59.5t31 60t78 24zM662 247v363q0 135 76 218.5t199 73.5v-10q-98 -8 -151 -81t-53 -201v-357q-2 -126 -81 -196.5t-222 -70.5q-150 0 -237 72.5t-86 193.5v389q0 21 -15.5 35t-37.5 14h-16v10
h288v-10h-16q-22 0 -37 -14t-16 -34v-382q0 -106 55 -168.5t146 -61.5q90 -1 147 57.5t57 159.5zM469 906q-22 0 -36.5 -16.5t-14.5 -42.5t14.5 -42t36.5 -16q21 0 35.5 16t14.5 42t-14.5 42.5t-35.5 16.5z" />
    <glyph glyph-name="uring" unicode="&#x16f;" horiz-adv-x="821" 
d="M451 931q47 0 77.5 -23t30.5 -59q0 -37 -31 -61t-77.5 -24t-77.5 23.5t-31 59.5t31 60t78 24zM450 906q-21 0 -35.5 -16.5t-14.5 -42.5q0 -17 6.5 -30.5t18 -20.5t26 -7t26 7t18 20.5t6.5 30.5q0 26 -14.5 42.5t-36.5 16.5zM581 700h209v-10h-17q-14 0 -26 -6t-19 -17
t-7 -24v-390q0 -123 -77 -195t-211 -72q-158 0 -242 70.5t-84 195.5v388q0 22 -15.5 36t-37.5 14h-16v10h288v-10h-16q-22 0 -37 -13.5t-16 -34.5v-382q0 -106 52 -168t142 -62q92 0 145 58.5t54 158.5v395q0 21 -15.5 34.5t-37.5 13.5h-16v10z" />
    <glyph glyph-name="Uhungarumlaut" unicode="&#x170;" horiz-adv-x="824" 
d="M371 766l-8 5q27 61 120 164q51 -18 76 -66q-89 -69 -188 -103zM547 766l-9 5q28 65 120 164q52 -17 76 -66q-90 -70 -187 -103zM662 247v363q0 88 33.5 156.5t96.5 105.5t145 30v-10q-98 -8 -151 -81t-53 -201v-357q-1 -83 -36.5 -143t-103.5 -92t-163 -32
q-150 0 -237 72.5t-86 193.5v389q0 21 -15.5 35t-37.5 14h-16v10h288v-10h-16q-15 0 -27 -6.5t-18.5 -17.5t-7.5 -24v-382q0 -106 55 -168.5t146 -61.5q44 0 81.5 14.5t64.5 42t42.5 69t15.5 91.5z" />
    <glyph glyph-name="uhungarumlaut" unicode="&#x171;" horiz-adv-x="821" 
d="M353 766l-9 5q27 61 121 164q51 -18 75 -66q-88 -69 -187 -103zM529 766l-9 5q28 65 120 164q52 -17 76 -66q-90 -70 -187 -103zM581 700h209v-10h-16q-22 0 -37.5 -13.5t-15.5 -33.5v-390q0 -123 -77 -195t-211 -72q-158 0 -242 70.5t-84 195.5v388q0 15 -7.5 26
t-19.5 17.5t-26 6.5h-16v10h288v-10h-16q-22 0 -37 -13.5t-16 -34.5v-382q0 -106 52 -168t142 -62q45 0 82.5 15t63 43t39.5 68.5t14 90.5v395q0 21 -15.5 34.5t-37.5 13.5h-16v10z" />
    <glyph glyph-name="Uogonek" unicode="&#x172;" horiz-adv-x="824" 
d="M662 247v363q0 135 76 218.5t199 73.5v-10q-98 -7 -151 -80.5t-53 -201.5v-357q-1 -115 -67.5 -184t-188.5 -81q-71 -17 -67 -78q3 -45 41 -59.5t75 17.5l6 -6q-5 -33 -27.5 -53t-51 -21t-56 9t-44.5 37.5t-13 64.5q3 34 24.5 56t53.5 31q-145 3 -228.5 75t-82.5 191v389
q0 21 -15.5 35t-37.5 14h-16v10h288v-10h-16q-15 0 -27 -6.5t-19 -17.5t-7 -24v-382q0 -106 55 -168.5t146 -61.5q90 -1 147 57.5t57 159.5z" />
    <glyph glyph-name="uogonek" unicode="&#x173;" horiz-adv-x="821" 
d="M581 700h209v-10h-17q-10 0 -19.5 -3.5t-17 -9.5t-11.5 -15t-4 -19v-390q0 -57 -17.5 -104t-49.5 -81.5t-79.5 -55t-106.5 -25.5q-68 -17 -64 -77q3 -45 40.5 -59.5t75.5 17.5l6 -6q-5 -33 -27.5 -53t-51 -21t-56 9t-44.5 37.5t-13 64.5q3 34 24.5 56t54.5 31
q-149 5 -227.5 75t-78.5 191v388q0 22 -15.5 36t-37.5 14h-16v10h288v-10h-16q-22 0 -37 -13.5t-16 -34.5v-382q0 -106 52 -168t142 -62q92 0 145 58.5t54 158.5v395q0 21 -15.5 34.5t-37.5 13.5h-16v10z" />
    <glyph glyph-name="Wcircumflex" unicode="&#x174;" horiz-adv-x="960" 
d="M736 276l115 403q12 41 30 78.5t48.5 75t67.5 64t90 40t113 7.5v-10q-47 -2 -88 -19.5t-69.5 -42t-52.5 -58.5t-39 -66t-27 -69l-188 -586q-2 -7 -5 -18.5t-8 -41t-4 -51.5h-10l-217 482l-178 -423q-13 -31 -32 -63t-47 -65t-61.5 -54.5t-74 -32.5t-85.5 1l1 10
q37 2 71.5 20t60.5 43.5t50 59.5t39 62.5t27 57.5l-203 552q-13 29 -37 43.5t-49 14.5h-8v10h305v-10h-9q-21 0 -34.5 -17.5t-3.5 -44.5l123 -347l181 435l9 -1zM527 915l-144 -153l6 -8l143 65l152 -65l7 8l-153 153h-11z" />
    <glyph glyph-name="wcircumflex" unicode="&#x175;" horiz-adv-x="971" 
d="M523 919l-145 -153l7 -8l143 65l152 -65l7 8l-153 153h-11zM789 700h211v-10h-9q-25 0 -50.5 -15t-36.5 -43l-168 -539q-2 -7 -5 -18.5t-8 -41t-4 -51.5h-10l-218 483l-158 -372q-23 -58 -24 -111h-10l-239 650q-9 20 -24 33.5t-30.5 19t-31.5 5.5h-8v10h305v-10h-9
q-21 0 -34.5 -17.5t-3.5 -45.5l123 -347l181 436l9 -1l199 -439l100 352q8 28 -4 45t-34 17h-9v10z" />
    <glyph glyph-name="Ycircumflex" unicode="&#x176;" horiz-adv-x="667" 
d="M345 915l-144 -153l7 -8l142 65l153 -65l7 8l-154 153h-11zM-67 748v10q71 5 134.5 -11.5t111.5 -47.5t88.5 -75.5t68 -93t47.5 -103.5q17 49 38.5 94t52.5 90t65 77.5t78 52t91 17.5v-10q-50 -1 -103.5 -52.5t-93.5 -124.5t-67.5 -152t-32.5 -137v-209q0 -25 18.5 -44
t45.5 -19h13v-10h-304v10h13q26 0 44.5 18.5t19.5 44.5v210q-6 48 -24 107.5t-48.5 121.5t-68 113.5t-87 86t-100.5 36.5z" />
    <glyph glyph-name="ycircumflex" unicode="&#x177;" horiz-adv-x="702" 
d="M393 915l-145 -153l7 -8l143 65l152 -65l7 8l-153 153h-11zM496 700h238v-10h-14q-30 0 -57 -17t-43 -41l-197 -314v-245q0 -17 8.5 -31.5t23.5 -23t32 -8.5h12l1 -10h-304v10h13q26 0 44.5 18t19.5 44v247l-191 314q-15 24 -42.5 40.5t-56.5 16.5h-14v10h331v-10h-13
q-22 0 -34 -20.5t-1 -41.5l143 -260l148 260q12 21 -0.5 41.5t-34.5 20.5h-12v10z" />
    <glyph glyph-name="Ydieresis" unicode="&#x178;" horiz-adv-x="667" 
d="M233 759q-25 0 -42.5 17.5t-17.5 42.5t17.5 42.5t42.5 17.5t42.5 -17.5t17.5 -42.5t-17.5 -42.5t-42.5 -17.5zM466 759q-25 0 -42.5 17.5t-17.5 42.5t17.5 42.5t42.5 17.5t42.5 -17.5t17.5 -42.5t-17.5 -42.5t-42.5 -17.5zM-67 748v10q71 5 134.5 -11.5t111.5 -47.5
t88.5 -75.5t68 -93t47.5 -103.5q17 49 38.5 94t52.5 90t65 77.5t78 52t91 17.5v-10q-34 -1 -70 -25t-67 -63t-59.5 -88.5t-49.5 -101t-34.5 -101t-16.5 -87.5v-209q0 -25 18.5 -44t45.5 -19h13v-10h-304v10h13q26 0 44.5 18.5t19.5 44.5v210q-6 48 -24 107.5t-48.5 121.5
t-68 113.5t-87 86t-100.5 36.5z" />
    <glyph glyph-name="Zacute" unicode="&#x179;" horiz-adv-x="649" 
d="M320 762l-7 7q43 74 144 164q49 -25 68 -81q-103 -65 -205 -90zM1049 -105l7 -7q-39 -47 -86.5 -75t-97 -37t-104.5 -6t-109 17.5t-112 34.5t-111 44t-108 47.5t-101.5 42.5t-93 31t-81.5 13h-7v9l367 650h-242q-46 -1 -73.5 -28.5t-27.5 -73.5v-12h-10v174q15 -6 53 -12
t68 -6h319q19 0 42 2t40.5 5t22.5 6v-9l-390 -697l30 -7q35 -9 107.5 -28.5t104 -28t92 -23.5t90 -21t80 -16t78.5 -12t68.5 -4.5t68 1t58.5 9.5t58 17z" />
    <glyph glyph-name="zacute" unicode="&#x17a;" horiz-adv-x="660" 
d="M320 762l-7 7q43 74 144 164q49 -25 68 -81q-103 -65 -205 -90zM623 201h10l-36 -201h-552v9l367 650h-242q-46 -1 -73.5 -28.5t-27.5 -73.5v-12h-10v174q15 -6 53 -12t68 -6h319q19 0 42 2t40.5 5t22.5 6v-9l-370 -663h210q64 0 111.5 43t67.5 116z" />
    <glyph glyph-name="Zdotaccent" unicode="&#x17b;" horiz-adv-x="649" 
d="M330.5 764q-25.5 0 -44 18t-18.5 43.5t18.5 44t44 18.5t43.5 -18.5t18 -44t-18 -43.5t-43.5 -18zM1049 -105l7 -7q-39 -47 -86.5 -75t-97 -37t-104.5 -6t-109 17.5t-112 34.5t-111 44t-108 47.5t-101.5 42.5t-93 31t-81.5 13h-7v9l367 650h-242q-46 -1 -73.5 -28.5
t-27.5 -73.5v-12h-10v174q15 -6 53 -12t68 -6h319q19 0 42 2t40.5 5t22.5 6v-9l-390 -697l30 -7q35 -10 107.5 -29t104 -27.5t92 -23.5t90 -21t80 -16t78.5 -12t68.5 -4.5t68 1t58.5 9.5t58 17z" />
    <glyph glyph-name="zdotaccent" unicode="&#x17c;" horiz-adv-x="660" 
d="M330.5 764q-25.5 0 -44 18t-18.5 43.5t18.5 44t44 18.5t43.5 -18.5t18 -44t-18 -43.5t-43.5 -18zM623 201h10l-36 -201h-552v9l367 650h-242q-46 -1 -73.5 -28.5t-27.5 -73.5v-12h-10v174q15 -6 53 -12t68 -6h319q14 0 31 1t32 3t26.5 4.5t15.5 4.5v-9l-370 -663h210
q64 0 111.5 43t67.5 116z" />
    <glyph glyph-name="Zcaron" unicode="&#x17d;" horiz-adv-x="649" 
d="M337 764l138 153l-7 8l-136 -65l-147 65l-7 -8l148 -153h11zM1049 -105l7 -7q-39 -47 -86.5 -75t-97 -37t-104.5 -6t-109 17.5t-112 34.5t-111 44t-108 47.5t-101.5 42.5t-93 31t-81.5 13h-7v9l367 650h-242q-46 -1 -73.5 -28.5t-27.5 -73.5v-12h-10v174q15 -6 53 -12
t68 -6h319q19 0 42 2t40.5 5t22.5 6v-9l-390 -697l30 -7q35 -9 107.5 -28.5t104 -28t92 -23.5t90 -21t80 -16t78.5 -12t68.5 -4.5t68 1t58.5 9.5t58 17z" />
    <glyph glyph-name="zcaron" unicode="&#x17e;" horiz-adv-x="660" 
d="M337 764l138 153l-7 8l-136 -65l-147 65l-7 -8l148 -153h11zM623 201h10l-36 -201h-552v9l367 650h-242q-46 -1 -73.5 -28.5t-27.5 -73.5v-12h-10v174q15 -6 53 -12t68 -6h319q29 0 63 4t42 9v-9l-371 -663h210q65 0 112.5 43t67.5 116z" />
    <glyph glyph-name="florin" unicode="&#x192;" horiz-adv-x="544" 
d="M57 600h345q26 0 57 5t44 10v-160h-9v9q0 29 -11 50.5t-32 33t-50 12.5h-131v-243h103q35 1 56 23t21 56v7l9 1v-213l-9 1v6q0 34 -21 56t-55 23h-104v-228q0 -60 -21.5 -105t-58 -71t-79.5 -38.5t-91 -12.5v10q101 50 101 198v508q0 23 -15.5 38t-36.5 15h-12v9z" />
    <glyph glyph-name="Scommaaccent" unicode="&#x218;" horiz-adv-x="623" 
d="M281 483l187 -122q57 -37 89 -87t37 -100t-13.5 -100t-56 -88t-96.5 -62t-130 -24q-72 0 -130 24.5t-90.5 65.5t-45.5 91.5t0.5 105.5t52.5 104l9 -7q-30 -48 -37.5 -97.5t7 -91.5t43.5 -75.5t73.5 -52.5t96.5 -19q54 0 96 20.5t61.5 54t22 72t-22 79.5t-71.5 72
l-170 114q-108 69 -98 180q6 77 61.5 125.5t148.5 48.5q57 0 138 -10h62l-13 -147h-9q-1 52 -40 83.5t-103 31.5q-38 0 -67.5 -12.5t-45.5 -34.5t-17 -50t16.5 -48.5t54.5 -43.5zM261 -342l-2 8q27 9 33 34t-14 49q-16 18 -17 40t13 38q18 19 46 12.5t40 -33.5q13 -28 9 -56
t-18.5 -50t-38.5 -34t-51 -8z" />
    <glyph glyph-name="scommaaccent" unicode="&#x219;" horiz-adv-x="578" 
d="M251 483l191 -124q96 -56 90 -166q-5 -98 -75 -152.5t-190 -54.5q-68 0 -125.5 16.5t-84.5 44.5q-12 32 -4 84t28 85h9q-7 -79 46.5 -134t141.5 -54q64 1 101 32.5t37 80.5q0 59 -80 103l-174 115q-52 30 -76.5 77t-18.5 103q6 79 61.5 127t148.5 48q55 0 136 -10h63
l-13 -147h-10q0 52 -38.5 83.5t-102.5 31.5q-38 0 -67.5 -13t-45.5 -34.5t-18 -48.5q-3 -50 70 -93zM237 -252l-3 8q27 9 33 34t-14 49q-16 18 -17 40t13 38q18 18 46 11.5t40 -32.5q15 -39 6 -74t-39 -57t-65 -17z" />
    <glyph glyph-name="uni021A" unicode="&#x21a;" horiz-adv-x="698" 
d="M95 701h471q31 0 67.5 6t51.5 12v-174h-10v12q0 45 -27 73t-73 29h-135v-587q1 -17 9.5 -31t23 -22.5t31.5 -8.5h13v-10h-304v10h13q26 0 44.5 18t19.5 43v588h-195q-41 0 -72 -15t-47.5 -40t-15.5 -60t24 -72l-10 -5q-30 29 -42 62.5t-4 63.5t29 54.5t57.5 39t80.5 14.5
zM317 -183l-3 8q27 9 33 34t-14 49q-16 18 -17.5 40t13.5 38q18 18 46 12t40 -33q15 -39 6 -74t-39 -57t-65 -17z" />
    <glyph glyph-name="uni021B" unicode="&#x21b;" horiz-adv-x="666" 
d="M132 701h403q15 0 33.5 2t34.5 4.5t29.5 5.5t20.5 6v-174h-10v12q0 45 -27 73t-73 29h-134v-587q1 -26 19.5 -44t44.5 -18h12l1 -10h-304v10h13q25 0 43.5 18t20.5 43v588h-135q-46 -1 -73 -29t-27 -73v-12h-10v174q14 -6 50.5 -12t67.5 -6zM285 -247l-2 8q26 9 32.5 34
t-14.5 49q-15 18 -16.5 40t13.5 38q17 19 45.5 12.5t40.5 -33.5q14 -39 5 -74t-39 -57t-65 -17z" />
    <glyph glyph-name="circumflex" unicode="&#x2c6;" 
d="M271 849l-144 -154l6 -8l143 65l153 -65l6 8l-153 154h-11z" />
    <glyph glyph-name="caron" unicode="&#x2c7;" 
d="M291 693l138 154l-6 8l-137 -65l-147 65l-7 -8l148 -154h11z" />
    <glyph glyph-name="breve" unicode="&#x2d8;" horiz-adv-x="537" 
d="M334 866h11q9 -56 -29.5 -98t-95.5 -42t-95 42.5t-30 97.5h12q10 -25 42 -42.5t71 -17.5t71 17.5t43 42.5z" />
    <glyph glyph-name="dotaccent" unicode="&#x2d9;" 
d="M296.5 679q-25.5 0 -43.5 18t-18 43.5t18 44t43.5 18.5t43.5 -18.5t18 -44t-18 -43.5t-43.5 -18z" />
    <glyph glyph-name="ring" unicode="&#x2da;" 
d="M301 866q31 0 55.5 -10.5t38.5 -29.5t14 -43q0 -36 -31 -60.5t-77.5 -24.5t-77.5 24t-31 60t31 60t78 24zM301 841q-22 0 -36.5 -16.5t-14.5 -42.5q0 -17 7 -30.5t18 -20.5t26 -7q21 0 35.5 16t14.5 42t-14.5 42.5t-35.5 16.5z" />
    <glyph glyph-name="ogonek" unicode="&#x2db;" 
d="M425 -107l6 -6q-5 -33 -27.5 -53t-51 -21t-55.5 9t-44 37.5t-14 64.5q3 32 23.5 54t48 31t57.5 7l10 -2q-73 -18 -69 -79q3 -45 41 -59.5t75 17.5z" />
    <glyph glyph-name="tilde" unicode="&#x2dc;" 
d="M452 791h-11q-7 -17 -29 -30t-48 -10q-28 3 -73 26t-73 23q-50 0 -75.5 -43t-20.5 -88h11q9 20 30.5 35t46.5 12q18 -2 37.5 -10.5t34.5 -17t35 -15.5t39 -7q52 -1 79 41.5t17 83.5z" />
    <glyph glyph-name="hungarumlaut" unicode="&#x2dd;" 
d="M169 746l-9 5q27 61 120 164q52 -17 76 -65q-88 -69 -187 -104zM344 746l-8 5q27 66 120 164q51 -17 75 -65q-90 -71 -187 -104z" />
    <glyph glyph-name="commaaccentcomb" unicode="&#x326;" horiz-adv-x="0" 
d="M35 -183l-2 8q26 9 32 34t-14 49q-15 18 -16.5 40t13.5 38q17 18 45.5 12t39.5 -33q15 -39 6 -74t-39 -57t-65 -17z" />
    <glyph glyph-name="Delta" unicode="&#x394;" horiz-adv-x="652" 
d="M321 714h10l316 -704v-10h-642v10zM522 42l-225 521l-230 -521h455z" />
    <glyph glyph-name="Omega" unicode="&#x3a9;" horiz-adv-x="851" 
d="M808 213h10l-48 -213h-295l-12 132q85 35 139 105.5t55 174.5q1 110 -65 185t-165 75t-166 -75.5t-67 -186.5q0 -102 53 -173t138 -105l-12 -132h-292l-48 213h10q19 -34 33.5 -51t34 -25.5t49.5 -8.5h164q-128 19 -206 99.5t-79 184.5q-1 85 49.5 154.5t140 108.5
t198.5 39q108 0 196.5 -39.5t138.5 -109t50 -153.5q0 -103 -82.5 -186t-205.5 -98h167q43 0 66 17.5t51 67.5z" />
    <glyph glyph-name="mu" unicode="&#x3bc;" horiz-adv-x="953" 
d="M789 714l85 -641q5 -29 25.5 -46t47.5 -17h16v-10h-300v9h15q17 0 29 13.5t10 29.5l-39 363l-188 -324q-37 -62 -38 -111h-10l-257 432l-39 -360q-2 -16 10 -29.5t29 -13.5h15v-9h-209v10h16q28 0 48.5 17t24.5 46l83 641h9l310 -510l298 510h9z" />
    <glyph glyph-name="pi" unicode="&#x3c0;" horiz-adv-x="751" 
d="M716 10v-10h-282v10h11q23 0 39 16t16 38v440q0 14 -7 26.5t-19.5 20t-26.5 7.5h-141q-22 0 -37.5 -15.5t-16.5 -37.5v-442q1 -22 17 -37.5t38 -15.5h11v-10h-281v10h11q22 0 38.5 16t16.5 38v472q0 15 -7.5 27.5t-20 19.5t-27.5 7h-11v10h679v-10h-11q-23 0 -38.5 -15.5
t-17.5 -37.5v-474q1 -14 8.5 -26.5t20 -19.5t27.5 -7h11z" />
    <glyph glyph-name="Wgrave" unicode="&#x1e80;" horiz-adv-x="960" 
d="M736 276l115 403q12 41 30 78.5t48.5 75t67.5 64t90 40t113 7.5v-10q-47 -2 -88 -19.5t-69.5 -42t-52.5 -58.5t-39 -66t-27 -69l-188 -586q-2 -7 -5 -18.5t-8 -41t-4 -51.5h-10l-217 482l-178 -423q-13 -31 -32 -63t-47 -65t-61.5 -54.5t-74 -32.5t-85.5 1l1 10
q37 2 71.5 20t60.5 43.5t50 59.5t39 62.5t27 57.5l-203 552q-13 29 -37 43.5t-49 14.5h-8v10h305v-10h-9q-21 0 -34.5 -17.5t-3.5 -44.5l123 -347l181 435l9 -1zM552 771l-7 -7q-100 24 -204 90q19 57 67 81q102 -91 144 -164z" />
    <glyph glyph-name="wgrave" unicode="&#x1e81;" horiz-adv-x="971" 
d="M548 775l-7 -7q-100 23 -204 90q19 56 67 81q102 -91 144 -164zM789 700h211v-10h-9q-25 0 -50.5 -15t-36.5 -43l-168 -539q-2 -7 -5 -18.5t-8 -41t-4 -51.5h-10l-218 483l-158 -372q-23 -58 -24 -111h-10l-239 650q-13 29 -37 43.5t-49 14.5h-8v10h305v-10h-9
q-21 0 -34.5 -17.5t-3.5 -45.5l123 -347l181 436l9 -1l199 -439l100 352q4 15 2.5 26.5t-7 19.5t-14 12t-19.5 4h-9v10z" />
    <glyph glyph-name="Wacute" unicode="&#x1e82;" horiz-adv-x="960" 
d="M736 276l115 403q12 41 30 78.5t48.5 75t67.5 64t90 40t113 7.5v-10q-47 -2 -88 -19.5t-69.5 -42t-52.5 -58.5t-39 -66t-27 -69l-188 -586q-2 -7 -5 -18.5t-8 -41t-4 -51.5h-10l-217 482l-178 -423q-13 -31 -32 -63t-47 -65t-61.5 -54.5t-74 -32.5t-85.5 1l1 10
q37 2 71.5 20t60.5 43.5t50 59.5t39 62.5t27 57.5l-203 552q-13 29 -37 43.5t-49 14.5h-8v10h305v-10h-9q-21 0 -34.5 -17.5t-3.5 -44.5l123 -347l181 435l9 -1zM523 762l-7 7q43 74 144 164q48 -25 67 -81q-102 -65 -204 -90z" />
    <glyph glyph-name="wacute" unicode="&#x1e83;" horiz-adv-x="971" 
d="M519 766l-7 7q43 74 144 164q48 -25 67 -81q-102 -65 -204 -90zM789 700h211v-10h-9q-25 0 -50.5 -15t-36.5 -43l-168 -539q-2 -7 -5 -18.5t-8 -41t-4 -51.5h-10l-218 483l-158 -372q-23 -58 -24 -111h-10l-239 650q-13 29 -37 43.5t-49 14.5h-8v10h305v-10h-9
q-21 0 -34.5 -17.5t-3.5 -44.5l123 -347l181 435l9 -1l199 -439l100 352q4 15 2.5 26.5t-7 19.5t-14 12t-19.5 4h-9v10z" />
    <glyph glyph-name="Wdieresis" unicode="&#x1e84;" horiz-adv-x="960" 
d="M736 276l115 403q12 41 30 78.5t48.5 75t67.5 64t90 40t113 7.5v-10q-47 -2 -88 -19.5t-69.5 -42t-52.5 -58.5t-39 -66t-27 -69l-188 -586q-2 -7 -5 -18.5t-8 -41t-4 -51.5h-10l-217 482l-178 -423q-13 -31 -32 -63t-47 -65t-61.5 -54.5t-74 -32.5t-85.5 1l1 10
q37 2 71.5 20t60.5 43.5t50 59.5t39 62.5t27 57.5l-203 552q-13 29 -37 43.5t-49 14.5h-8v10h305v-10h-9q-21 0 -34.5 -17.5t-3.5 -44.5l123 -347l181 435l9 -1zM414 759q-25 0 -42.5 17.5t-17.5 42.5t17.5 42.5t42.5 17.5t42.5 -17.5t17.5 -42.5t-17.5 -42.5t-42.5 -17.5z
M648 759q-25 0 -42.5 17.5t-17.5 42.5t17.5 42.5t42.5 17.5t42.5 -17.5t17.5 -42.5t-17.5 -42.5t-42.5 -17.5z" />
    <glyph glyph-name="wdieresis" unicode="&#x1e85;" horiz-adv-x="971" 
d="M410 763q-25 0 -42.5 17.5t-17.5 42.5t17.5 42.5t42.5 17.5t42.5 -17.5t17.5 -42.5t-17.5 -42.5t-42.5 -17.5zM644 763q-25 0 -42.5 17.5t-17.5 42.5t17.5 42.5t42.5 17.5t42.5 -17.5t17.5 -42.5t-17.5 -42.5t-42.5 -17.5zM789 700h211v-10h-9q-25 0 -50.5 -15t-36.5 -43
l-168 -539q-2 -7 -5 -18.5t-8 -41t-4 -51.5h-10l-218 483l-158 -372q-23 -58 -24 -111h-10l-239 650q-13 29 -37 43.5t-49 14.5h-8v10h305v-10h-9q-21 0 -34.5 -17.5t-3.5 -44.5l123 -348l181 436l9 -1l199 -439l100 352q4 15 2.5 26.5t-7 19.5t-14 12t-19.5 4h-9v10z" />
    <glyph glyph-name="Ygrave" unicode="&#x1ef2;" horiz-adv-x="667" 
d="M371 771l-7 -7q-101 24 -205 90q19 57 68 81q101 -91 144 -164zM-67 748v10q71 5 134.5 -11.5t111.5 -47.5t88.5 -75.5t68 -93t47.5 -103.5q17 49 38.5 94t52.5 90t65 77.5t78 52t91 17.5v-10q-50 -1 -103.5 -52.5t-93.5 -124.5t-67.5 -152t-32.5 -137v-209
q0 -25 18.5 -44t45.5 -19h13v-10h-304v10h13q26 0 44.5 18.5t19.5 44.5v210q-6 48 -24 107.5t-48.5 121.5t-68 113.5t-87 86t-100.5 36.5z" />
    <glyph glyph-name="ygrave" unicode="&#x1ef3;" horiz-adv-x="702" 
d="M418 771l-7 -7q-100 24 -204 90q19 57 67 81q102 -91 144 -164zM496 700h238v-10h-14q-30 0 -57 -17t-43 -41l-197 -314v-245q0 -26 19 -44.5t45 -18.5h12l1 -10h-304v10h13q26 0 44.5 18t19.5 44v247l-191 314q-15 24 -42.5 40.5t-56.5 16.5h-14v10h331v-10h-13
q-22 0 -34 -20.5t-1 -41.5l143 -260l148 260q8 15 4.5 28.5t-14.5 23.5t-25 10h-12v10z" />
    <glyph glyph-name="endash" unicode="&#x2013;" horiz-adv-x="500" 
d="M0 265v52h500v-52h-500z" />
    <glyph glyph-name="emdash" unicode="&#x2014;" horiz-adv-x="800" 
d="M0 265v52h800v-52h-800z" />
    <glyph glyph-name="quoteleft" unicode="&#x2018;" horiz-adv-x="245" 
d="M199 819l4 -12q-39 -14 -48 -49.5t22 -72.5q22 -26 24 -60t-21 -56q-26 -27 -68 -17.5t-59 48.5q-20 41 -13.5 82.5t27.5 74t57 50.5t75 12z" />
    <glyph glyph-name="quoteright" unicode="&#x2019;" horiz-adv-x="236" 
d="M46 564l-3 11q36 14 44.5 48t-20.5 69q-21 25 -22.5 57t19.5 53q25 26 65 17t56 -46q19 -40 12.5 -79.5t-26 -70t-54 -48t-71.5 -11.5z" />
    <glyph glyph-name="quotesinglbase" unicode="&#x201a;" horiz-adv-x="245" 
d="M46 -124l-3 12q38 15 47 50.5t-21 72.5q-23 26 -24.5 59.5t20.5 56.5q26 26 68 17t59 -48q20 -42 13.5 -83.5t-27.5 -73.5t-57 -50t-75 -13z" />
    <glyph glyph-name="quotedblleft" unicode="&#x201c;" horiz-adv-x="446" 
d="M400 819l3 -12q-38 -14 -47 -49.5t21 -72.5q23 -26 24.5 -60t-20.5 -56q-26 -27 -68 -17.5t-59 48.5q-20 41 -13.5 82.5t27.5 74t56.5 50.5t75.5 12zM198 819l4 -12q-39 -14 -48 -49.5t22 -72.5q22 -26 24 -60t-21 -56q-26 -27 -67.5 -17.5t-59.5 48.5q-20 41 -13.5 82.5
t27.5 74t57 50.5t75 12z" />
    <glyph glyph-name="quotedblright" unicode="&#x201d;" horiz-adv-x="433" 
d="M241 564l-4 11q37 14 45.5 48t-20.5 69q-21 25 -23 57t20 53q24 26 64 17t57 -46q19 -40 12.5 -79.5t-26.5 -70t-54 -48t-71 -11.5zM46 564l-3 11q36 14 44.5 48t-20.5 69q-21 25 -22.5 57t19.5 53q25 26 65 17t56 -46q19 -40 12.5 -79.5t-26 -70t-54 -48t-71.5 -11.5z
" />
    <glyph glyph-name="quotedblbase" unicode="&#x201e;" horiz-adv-x="444" 
d="M244 -130l-4 12q40 15 49 51.5t-22 73.5q-23 26 -24.5 60.5t20.5 57.5q27 27 69.5 17.5t60.5 -49.5q20 -42 13.5 -84.5t-28 -75t-58 -50.5t-76.5 -13zM46 -130l-3 12q39 15 48 51.5t-22 73.5q-23 26 -24.5 60.5t21.5 57.5q26 27 69 17.5t60 -49.5q20 -42 13.5 -84.5
t-28 -75t-58 -50.5t-76.5 -13z" />
    <glyph glyph-name="dagger" unicode="&#x2020;" horiz-adv-x="492" 
d="M466 438l-20 -67l-138 32l-57 31l31 -55l30 -224l-60 -335h-10l-61 335l31 224l30 55l-58 -31l-136 -32l-20 67l20 68l136 -32l58 -30l-30 54l-33 196l69 20l66 -20l-32 -196l-30 -54l56 30l138 32z" />
    <glyph glyph-name="daggerdbl" unicode="&#x2021;" horiz-adv-x="493" 
d="M446 163l21 -68l-21 -68l-136 33l-57 30l30 -54l33 -197l-69 -20l-67 20l32 197l31 54l-57 -30l-137 -33l-21 68l21 68l137 -33l57 -30l-31 54l-33 113l33 112l30 55l-58 -31l-136 -32l-20 67l20 68l136 -32l58 -30l-30 54l-33 196l69 20l66 -20l-32 -196l-30 -54l56 30
l138 32l20 -68l-20 -67l-138 32l-57 31l31 -55l33 -112l-32 -113l-31 -54l58 30z" />
    <glyph glyph-name="bullet" unicode="&#x2022;" horiz-adv-x="367" 
d="M202 200q-18 -6 -35 0q-56 19 -71.5 34.5t-34.5 71.5q-6 18 0 35q19 56 34.5 71.5t71.5 34.5q17 6 35 0q55 -19 71 -34.5t34 -71.5q6 -17 0 -37q-18 -54 -34 -69.5t-71 -34.5zM193 262q27 10 35 17.5t17 34.5q3 10 0 18q-9 28 -17 35.5t-35 17.5q-9 3 -18 0
q-27 -10 -35 -17.5t-17 -35.5q-3 -8 0 -17q9 -28 17 -35.5t36 -17.5q8 -3 17 0z" />
    <glyph glyph-name="ellipsis" unicode="&#x2026;" horiz-adv-x="672" 
d="M111 -10q-30 0 -51 21t-21 51t21 51.5t51 21.5t51.5 -21.5t21.5 -51.5t-21.5 -51t-51.5 -21zM339 -10q-30 0 -51.5 21t-21.5 51t21.5 51.5t51.5 21.5t51 -21.5t21 -51.5t-21 -51t-51 -21zM562 -10q-30 0 -51 21t-21 51t21 51.5t51 21.5t51 -21.5t21 -51.5t-21 -51
t-51 -21z" />
    <glyph glyph-name="perthousand" unicode="&#x2030;" horiz-adv-x="1107" 
d="M534 709l33 -14l-373 -711l-37 16l350 662q-57 -34 -111 -28q-25 3 -53 14q21 -44 12 -111q-11 -82 -63 -129t-130 -47q-73 0 -107.5 48.5t-21.5 133.5q13 80 64 125.5t126 45.5q40 0 70.5 -12t55 -25t48.5 -15q19 -2 41 3.5t35.5 12t34.5 17.5t26 14zM257 537
q9 68 -0.5 106.5t-36.5 38.5q-28 0 -49.5 -38.5t-32.5 -106.5q-11 -67 -1.5 -105.5t36.5 -38.5q30 0 52 38.5t32 105.5zM567 339q71 0 106 -47t25 -130q-10 -82 -62 -129t-132 -47q-73 0 -107.5 48.5t-20.5 133.5q13 80 64 125.5t127 45.5zM934 339q71 0 106 -47t25 -130
q-10 -82 -62 -129t-132 -47q-73 0 -107.5 48.5t-20.5 133.5q13 80 64 125.5t127 45.5zM962 162q5 34 5 61t-4.5 45.5t-14 28.5t-22.5 10q-10 0 -18.5 -4.5t-16.5 -13t-15 -21t-13 -28.5t-11 -35.5t-8 -42.5q-11 -67 -1.5 -105.5t35.5 -38.5q30 0 52.5 38t31.5 106zM595 162
q5 34 5 61t-4.5 45.5t-14 28.5t-22.5 10q-28 0 -50 -38.5t-33 -106.5q-10 -67 -0.5 -105.5t35.5 -38.5q30 0 52.5 38t31.5 106z" />
    <glyph glyph-name="guilsinglleft" unicode="&#x2039;" horiz-adv-x="311" 
d="M259 485l-8 5q-45 -64 -95 -108t-116 -90q121 -87 211 -204l9 7q-16 33 -49 96t-51 101q18 37 50.5 98.5t48.5 94.5z" />
    <glyph glyph-name="guilsinglright" unicode="&#x203a;" horiz-adv-x="311" 
d="M52 95l9 -6q90 116 211 203q-66 46 -116 90t-95 108l-8 -5q16 -33 49 -94.5t51 -98.5q-15 -31 -33 -65.5l-36 -69t-32 -62.5z" />
    <glyph glyph-name="fraction" unicode="&#x2044;" horiz-adv-x="577" 
d="M498 719l-478 -711l38 -26l478 712z" />
    <glyph glyph-name="Euro" unicode="&#x20ac;" horiz-adv-x="708" 
d="M670 190h9v-141q-30 -31 -94.5 -46.5t-131.5 -15.5q-92 0 -169.5 36.5t-128 100.5t-67.5 147h-116l15 43h95q-2 18 -2 36q0 17 1 34h-109l15 42h100q25 128 125.5 208t242.5 80q33 0 66.5 -3.5t64.5 -10.5t55.5 -18.5t36.5 -26.5l-44 -132h-10q3 34 -5.5 61t-24.5 43
t-39 26.5t-44.5 14.5t-45.5 4q-89 0 -147 -66t-73 -180h356l-15 -42h-346v-33q0 -19 1 -37h321l-14 -43h-303q16 -113 75.5 -177.5t153.5 -64.5q81 0 128 39.5t68 121.5z" />
    <glyph glyph-name="trademark" unicode="&#x2122;" horiz-adv-x="486" 
d="M193 651v3q0 7 -2.5 13t-6 10t-9.5 6t-13 2h-33v-163q0 -5 2 -9t6.5 -6.5t8.5 -2.5h4v-3h-94v3h3q7 0 12.5 5t5.5 13v163h-34q-14 0 -22 -8.5t-8 -22.5v-3h-3v35v11v9q13 -5 34 -5h118q21 0 33 5v-55h-2zM423 704l29 -183q4 -17 20 -17h5v-3h-94v3h5q4 0 7.5 3.5t3.5 8.5
l-14 91l-49 -80q-11 -18 -11 -32h-3l-72 109l-9 -89q0 -3 1.5 -5.5t4 -4t5.5 -1.5h4v-3h-63v3h4q17 0 21 16l24 184h3l92 -136l84 136h2z" />
    <glyph glyph-name="partialdiff" unicode="&#x2202;" horiz-adv-x="615" 
d="M76 583l-9 7q37 72 102 103t146 22q125 -14 194 -120.5t61 -261.5q-8 -159 -81 -249.5t-204 -97.5q-62 -4 -110.5 13t-76.5 47.5t-42.5 70t-13.5 82t15 82.5q21 61 72 103.5t125 52.5t159 -40q-4 88 -31.5 149t-76.5 83q-31 15 -68 19.5t-82.5 -10.5t-78.5 -55zM414 333
v29q-49 17 -84 16t-61 -23t-41.5 -52t-24.5 -72q-10 -56 -4 -102t29.5 -75t56.5 -26q51 5 86.5 89.5t42.5 215.5z" />
    <glyph glyph-name="product" unicode="&#x220f;" horiz-adv-x="817" 
d="M776 -190v-10h-282v10h11q23 0 39 15.5t16 38.5v740q0 22 -15.5 38t-37.5 16h-195q-22 0 -37.5 -15.5t-16.5 -37.5v-742q1 -22 17 -37.5t38 -15.5h11v-10h-281v10h11q23 0 39 15.5t16 38.5v772q0 15 -7.5 27.5t-20 19.5t-27.5 7h-11v10h733v-10h-11q-23 0 -38.5 -15.5
t-17.5 -37.5v-774q1 -22 17 -37.5t39 -15.5h11z" />
    <glyph glyph-name="summation" unicode="&#x2211;" horiz-adv-x="636" 
d="M601 110h10l-36 -291h-544v11l272 410l-267 450v10h415q21 0 46.5 3t45.5 7t30 8v-174h-10v12q0 46 -27 73.5t-74 28.5h-241l197 -339l-245 -368h259q61 4 105.5 46.5t63.5 112.5z" />
    <glyph glyph-name="minus" unicode="&#x2212;" horiz-adv-x="481" 
d="M40 281v57h402v-57h-402z" />
    <glyph glyph-name="radical" unicode="&#x221a;" horiz-adv-x="592" 
d="M24 387l-10 43l197 44l95 -330l230 699l45 -2l-320 -988l-168 548z" />
    <glyph glyph-name="infinity" unicode="&#x221e;" horiz-adv-x="617" 
d="M316 252q-26 -40 -67.5 -67t-86.5 -27q-55 0 -92 40t-36 99q1 58 38 98.5t90 40.5q41 0 82 -26t73 -66q31 39 72 65.5t82 26.5q54 0 91 -40.5t37 -98.5q1 -39 -16 -70.5t-46.5 -50t-65.5 -18.5q-46 0 -87 27t-68 67zM162 214q33 0 64.5 24t55.5 59q-63 83 -120 83
q-28 0 -49.5 -24.5t-21.5 -58.5t21.5 -58.5t49.5 -24.5zM471 214q29 0 50 24.5t21 58.5q0 22 -10 41.5t-26 30.5t-35 11q-56 0 -120 -83q56 -83 120 -83z" />
    <glyph glyph-name="integral" unicode="&#x222b;" horiz-adv-x="562" 
d="M182 -63l35 638q5 97 53.5 153.5t117.5 63.5q30 3 72 -2.5t68 -26.5q20 -17 22.5 -40t-16.5 -41q-22 -18 -45 -15t-38 21q-7 8 -13 23t-12.5 23t-18.5 8q-14 -1 -22.5 -17t-10.5 -61q-5 -79 -10 -175.5t-9 -167t-7.5 -135.5t-6 -105.5t-3.5 -54.5q-7 -102 -53 -156
t-118 -61q-35 -4 -75 2.5t-63 27.5q-17 16 -20 37.5t13 41.5q21 20 44.5 17.5t38.5 -21.5q7 -8 13.5 -23.5t13 -23.5t18.5 -8q10 1 16 7.5t10 24t6 46.5z" />
    <glyph glyph-name="approxequal" unicode="&#x2248;" horiz-adv-x="481" 
d="M67 338l-39 35q6 10 15 19t26 23t40 21t48 4q34 -4 91 -31t74 -29q16 -2 36 6.5t29 15t29 23.5l38 -36q-1 -2 -5 -6q-14 -13 -23.5 -21.5t-27 -20.5t-38.5 -16.5t-43 -1.5q-25 4 -56 17.5t-59.5 26.5t-48.5 16q-24 3 -39.5 -6t-39.5 -33q-4 -4 -7 -6zM67 168l-39 35
q6 10 15 19t26 23t40 21t48 4q34 -4 91 -31t74 -29q16 -2 36 6.5t29 15t29 23.5l38 -36q-1 -2 -5 -6q-14 -14 -23.5 -22t-27 -20t-38.5 -16.5t-43 -1.5q-31 5 -85.5 31t-78.5 29t-39.5 -6t-39.5 -33q-4 -4 -7 -6z" />
    <glyph glyph-name="notequal" unicode="&#x2260;" horiz-adv-x="481" 
d="M442 358h-129l-57 -118h186v-57h-213l-59 -122l-53 24l47 98h-124v57h152l57 118h-209v57h236l53 110l53 -24l-42 -86h102v-57z" />
    <glyph glyph-name="lessequal" unicode="&#x2264;" horiz-adv-x="493" 
d="M442 219v-62l-402 188v54l402 188v-62l-322 -153zM40 94h402v-57h-402v57z" />
    <glyph glyph-name="greaterequal" unicode="&#x2265;" horiz-adv-x="553" 
d="M40 587l402 -188v-54l-402 -188v62l322 153l-322 153v62zM40 37v57h402v-57h-402z" />
    <glyph glyph-name="lozenge" unicode="&#x25ca;" horiz-adv-x="517" 
d="M475 350l-222 364l-209 -364l209 -364zM101 350l153 271l164 -271l-164 -271z" />
    <glyph glyph-name="fi" unicode="&#xfb01;" horiz-adv-x="981" 
d="M545 718v-169h-10v10q0 44 -25.5 70.5t-69.5 27.5h-171v-291h132q37 1 61 25t24 61v9h10v-231h-10v8q0 37 -23.5 61t-60.5 25h-133v-251q0 -17 8.5 -31.5t23.5 -23t32 -8.5h12l1 -10h-304v10h13q26 0 44.5 18.5t19.5 44.5v557q-2 25 -20.5 42.5t-43.5 17.5h-13v10h383
q16 0 34.5 2t35 4.5t30 5.5t20.5 6zM940 10l1 -10h-304v10h13q26 0 44.5 18.5t19.5 44.5v555q-1 26 -19.5 44t-44.5 18h-13v10h304l-1 -10h-12q-26 0 -45 -18t-19 -44v-555q0 -26 19 -44.5t45 -18.5h12z" />
    <glyph glyph-name="fl" unicode="&#xfb02;" horiz-adv-x="1211" 
d="M545 718v-169h-10v10q0 44 -25.5 70.5t-69.5 27.5h-171v-291h132q37 1 61 25t24 61v9h10v-231h-10v8q0 37 -23.5 61t-60.5 25h-133v-251q0 -17 8.5 -31.5t23.5 -23t32 -8.5h12l1 -10h-304v10h13q26 0 44.5 18.5t19.5 44.5v557q-2 25 -20.5 42.5t-43.5 17.5h-13v10h383
q16 0 34.5 2t35 4.5t30 5.5t20.5 6zM1191 204h10l-46 -204h-518v10h13q26 0 44.5 18.5t19.5 44.5v554q-1 26 -19.5 44.5t-44.5 18.5h-13v10h304l-1 -10h-12q-17 0 -32 -8.5t-23.5 -23t-8.5 -31.5v-584h131q73 0 122.5 42t73.5 119z" />
    </font>
</defs>
</svg>
